<?xml version="1.0" encoding="UTF-8" standalone="no"?>
<!DOCTYPE svg PUBLIC "-//W3C//DTD SVG 1.1//EN"
 "http://www.w3.org/Graphics/SVG/1.1/DTD/svg11.dtd">
<!-- Generated by graphviz version 2.39.20160823.1445 (20160823.1445)
 -->
<!-- Title: Workflow Pages: 1 -->
<svg width="686pt" height="118pt"
 viewBox="0.00 0.00 686.15 118.00" xmlns="http://www.w3.org/2000/svg" xmlns:xlink="http://www.w3.org/1999/xlink">
<g id="graph0" class="graph" transform="scale(1 1) rotate(0) translate(4 114)">
<title>Workflow</title>
<polygon fill="white" stroke="transparent" points="-4,4 -4,-114 682.146,-114 682.146,4 -4,4"/>
<text text-anchor="middle" x="339.073" y="-91.6" font-family="Courier,monospace" font-size="18.00">get_raw_data</text>
<g id="clust1" class="cluster">
<title>cluster_workflow_box_outer</title>
<polygon fill="none" stroke="black" stroke-width="2" points="97.248,-8 97.248,-76 550.554,-76 550.554,-8 97.248,-8"/>
</g>
<g id="clust2" class="cluster">
<title>cluster_workflow_box_inner</title>
<polygon fill="none" stroke="white" stroke-width="2" points="105.248,-16 105.248,-68 542.554,-68 542.554,-16 105.248,-16"/>
</g>
<g id="clust3" class="cluster">
<title>cluster_input_ports_group_outer</title>
<polygon fill="none" stroke="white" points="8,-19 8,-65 54,-65 54,-19 8,-19"/>
</g>
<g id="clust4" class="cluster">
<title>cluster_input_ports_group_inner</title>
<polygon fill="none" stroke="white" points="16,-27 16,-57 46,-57 46,-27 16,-27"/>
</g>
<g id="clust5" class="cluster">
<title>cluster_output_ports_group_outer</title>
<polygon fill="none" stroke="white" points="624.146,-19 624.146,-65 670.146,-65 670.146,-19 624.146,-19"/>
</g>
<g id="clust6" class="cluster">
<title>cluster_output_ports_group_inner</title>
<polygon fill="none" stroke="white" points="632.146,-27 632.146,-57 662.146,-57 662.146,-27 632.146,-27"/>
</g>
<!-- download_file -->
<g id="node1" class="node">
<title>download_file</title>
<polygon fill="#ccffcc" stroke="black" points="238.575,-60 113.139,-60 113.139,-24 238.575,-24 238.575,-60"/>
<text text-anchor="middle" x="175.857" y="-37.8" font-family="Courier,monospace" font-size="14.00">download_file</text>
</g>
<!-- read_file -->
<g id="node2" class="node">
<title>read_file</title>
<polygon fill="#ccffcc" stroke="black" points="534.361,-60 443.134,-60 443.134,-24 534.361,-24 534.361,-60"/>
<text text-anchor="middle" x="488.748" y="-37.8" font-family="Courier,monospace" font-size="14.00">read_file</text>
</g>
<!-- download_file&#45;&gt;read_file -->
<g id="edge1" class="edge">
<title>download_file&#45;&gt;read_file</title>
<path fill="none" stroke="black" d="M238.604,-42C250.988,-42 263.887,-42 275.966,-42 275.966,-42 275.966,-42 405.441,-42 414.268,-42 423.621,-42 432.748,-42"/>
<polygon fill="black" stroke="black" points="432.916,-45.5001 442.916,-42 432.916,-38.5001 432.916,-45.5001"/>
<text text-anchor="middle" x="340.704" y="-44.8" font-family="Helvetica,sans-Serif" font-size="14.00">local_file</text>
</g>
<!-- raw_data_output_port -->
<g id="node4" class="node">
<title>raw_data_output_port</title>
<ellipse fill="#ffffff" stroke="black" cx="647.146" cy="-42" rx="7" ry="7"/>
</g>
<!-- read_file&#45;&gt;raw_data_output_port -->
<g id="edge3" class="edge">
<title>read_file&#45;&gt;raw_data_output_port</title>
<path fill="none" stroke="black" d="M534.563,-42C566.464,-42 607.21,-42 629.903,-42"/>
<polygon fill="black" stroke="black" points="629.982,-45.5001 639.982,-42 629.982,-38.5001 629.982,-45.5001"/>
<text text-anchor="middle" x="587.35" y="-44.8" font-family="Helvetica,sans-Serif" font-size="14.00">raw_data</text>
</g>
<!-- path_input_port -->
<g id="node3" class="node">
<title>path_input_port</title>
<ellipse fill="#ffffff" stroke="black" cx="31" cy="-42" rx="7" ry="7"/>
</g>
<!-- path_input_port&#45;&gt;download_file -->
<g id="edge2" class="edge">
<title>path_input_port&#45;&gt;download_file</title>
<path fill="none" stroke="black" d="M38.3826,-42C50.7544,-42 76.904,-42 103.109,-42"/>
<polygon fill="black" stroke="black" points="103.127,-45.5001 113.127,-42 103.127,-38.5001 103.127,-45.5001"/>
<text text-anchor="middle" x="75.624" y="-44.8" font-family="Helvetica,sans-Serif" font-size="14.00">path</text>
</g>
</g>
</svg>
