<?xml version="1.0" encoding="UTF-8" standalone="no"?>
<!DOCTYPE svg PUBLIC "-//W3C//DTD SVG 1.1//EN"
 "http://www.w3.org/Graphics/SVG/1.1/DTD/svg11.dtd">
<!-- Generated by graphviz version 2.39.20160823.1445 (20160823.1445)
 -->
<!-- Title: Workflow Pages: 1 -->
<svg width="2471pt" height="351pt"
 viewBox="0.00 0.00 2470.56 351.00" xmlns="http://www.w3.org/2000/svg" xmlns:xlink="http://www.w3.org/1999/xlink">
<g id="graph0" class="graph" transform="scale(1 1) rotate(0) translate(4 347)">
<title>Workflow</title>
<polygon fill="white" stroke="transparent" points="-4,4 -4,-347 2466.56,-347 2466.56,4 -4,4"/>
<text text-anchor="middle" x="1231.28" y="-324.6" font-family="Courier,monospace" font-size="18.00">LDA</text>
<g id="clust1" class="cluster">
<title>cluster_workflow_box_outer</title>
<polygon fill="none" stroke="black" stroke-width="2" points="124.476,-177 124.476,-291 2336.52,-291 2336.52,-177 124.476,-177"/>
</g>
<g id="clust2" class="cluster">
<title>cluster_workflow_box_inner</title>
<polygon fill="none" stroke="white" stroke-width="2" points="132.476,-185 132.476,-283 2328.52,-283 2328.52,-185 132.476,-185"/>
</g>
<g id="clust3" class="cluster">
<title>cluster_input_ports_group_outer</title>
<polygon fill="none" stroke="white" points="8,-8 8,-246 54,-246 54,-8 8,-8"/>
</g>
<g id="clust4" class="cluster">
<title>cluster_input_ports_group_inner</title>
<polygon fill="none" stroke="white" points="16,-16 16,-238 46,-238 46,-16 16,-16"/>
</g>
<g id="clust5" class="cluster">
<title>cluster_output_ports_group_outer</title>
<polygon fill="none" stroke="white" points="2408.56,-229 2408.56,-275 2454.56,-275 2454.56,-229 2408.56,-229"/>
</g>
<g id="clust6" class="cluster">
<title>cluster_output_ports_group_inner</title>
<polygon fill="none" stroke="white" points="2416.56,-237 2416.56,-267 2446.56,-267 2446.56,-237 2416.56,-237"/>
</g>
<!-- tf_calculation -->
<g id="node1" class="node">
<title>tf_calculation</title>
<polygon fill="#ccffcc" stroke="black" points="140.476,-194 140.476,-238 778.177,-238 778.177,-194 140.476,-194"/>
<text text-anchor="middle" x="459.326" y="-222.8" font-family="Courier,monospace" font-size="14.00">tf_calculation</text>
<polyline fill="none" stroke="black" points="140.476,-216 778.177,-216 "/>
<text text-anchor="middle" x="459.326" y="-200.8" font-family="Courier,monospace" font-size="14.00">using CountVectorizer from sklearn library to calculate the term frequency</text>
</g>
<!-- LatentDirichletAllocation -->
<g id="node2" class="node">
<title>LatentDirichletAllocation</title>
<polygon fill="#ccffcc" stroke="black" points="1276.38,-194 1276.38,-238 1695.64,-238 1695.64,-194 1276.38,-194"/>
<text text-anchor="middle" x="1486.01" y="-222.8" font-family="Courier,monospace" font-size="14.00">LatentDirichletAllocation</text>
<polyline fill="none" stroke="black" points="1276.38,-216 1695.64,-216 "/>
<text text-anchor="middle" x="1486.01" y="-200.8" font-family="Courier,monospace" font-size="14.00">using the sciki&#45;learn library to do LDA modeling</text>
</g>
<!-- tf_calculation&#45;&gt;LatentDirichletAllocation -->
<g id="edge1" class="edge">
<title>tf_calculation&#45;&gt;LatentDirichletAllocation</title>
<path fill="none" stroke="black" d="M778.42,-211.085C791.002,-211.03 803.457,-211 815.677,-211 815.677,-211 815.677,-211 1159.71,-211 1194.15,-211 1230.63,-211.282 1266.24,-211.712"/>
<polygon fill="black" stroke="black" points="1266.22,-215.212 1276.26,-211.837 1266.3,-208.212 1266.22,-215.212"/>
<text text-anchor="middle" x="1039.34" y="-213.8" font-family="Helvetica,sans-Serif" font-size="14.00">term_frequency</text>
</g>
<!-- tf_calculation&#45;&gt;LatentDirichletAllocation -->
<g id="edge2" class="edge">
<title>tf_calculation&#45;&gt;LatentDirichletAllocation</title>
<path fill="none" stroke="black" d="M574.814,-238.039C644.333,-249.44 734.768,-261 815.677,-261 815.677,-261 815.677,-261 1159.71,-261 1229.99,-261 1308,-250.627 1370.12,-239.842"/>
<polygon fill="black" stroke="black" points="1371.1,-243.223 1380.34,-238.039 1369.89,-236.329 1371.1,-243.223"/>
<text text-anchor="middle" x="1039.34" y="-263.8" font-family="Helvetica,sans-Serif" font-size="14.00">term_frequency_vectorizer</text>
</g>
<!-- print_top_words -->
<g id="node3" class="node">
<title>print_top_words</title>
<polygon fill="#ccffcc" stroke="black" points="2044.07,-230 2044.07,-274 2320.52,-274 2320.52,-230 2044.07,-230"/>
<text text-anchor="middle" x="2182.3" y="-258.8" font-family="Courier,monospace" font-size="14.00">print_top_words</text>
<polyline fill="none" stroke="black" points="2044.07,-252 2320.52,-252 "/>
<text text-anchor="middle" x="2182.3" y="-236.8" font-family="Courier,monospace" font-size="14.00">print the topics with top words</text>
</g>
<!-- LatentDirichletAllocation&#45;&gt;print_top_words -->
<g id="edge3" class="edge">
<title>LatentDirichletAllocation&#45;&gt;print_top_words</title>
<path fill="none" stroke="black" d="M1695.66,-211.172C1708.34,-211.062 1720.91,-211 1733.14,-211 1733.14,-211 1733.14,-211 2006.57,-211 2040.92,-211 2078.08,-218.52 2109.34,-227.118"/>
<polygon fill="black" stroke="black" points="2108.69,-230.574 2119.27,-229.94 2110.6,-223.84 2108.69,-230.574"/>
<text text-anchor="middle" x="1869.86" y="-213.8" font-family="Helvetica,sans-Serif" font-size="14.00">LDA_model</text>
</g>
<!-- LatentDirichletAllocation&#45;&gt;print_top_words -->
<g id="edge4" class="edge">
<title>LatentDirichletAllocation&#45;&gt;print_top_words</title>
<path fill="none" stroke="black" d="M1565.75,-238.039C1613.85,-249.44 1676.56,-261 1733.14,-261 1733.14,-261 1733.14,-261 2006.57,-261 2015.34,-261 2024.35,-260.887 2033.44,-260.686"/>
<polygon fill="black" stroke="black" points="2033.82,-264.178 2043.72,-260.423 2033.64,-257.18 2033.82,-264.178"/>
<text text-anchor="middle" x="1869.86" y="-263.8" font-family="Helvetica,sans-Serif" font-size="14.00">TermFrequency_feature_names</text>
</g>
<!-- topic_log_output_port -->
<g id="node11" class="node">
<title>topic_log_output_port</title>
<ellipse fill="#ffffff" stroke="black" cx="2431.56" cy="-252" rx="7" ry="7"/>
</g>
<!-- print_top_words&#45;&gt;topic_log_output_port -->
<g id="edge12" class="edge">
<title>print_top_words&#45;&gt;topic_log_output_port</title>
<path fill="none" stroke="black" d="M2320.78,-252C2358.24,-252 2394.02,-252 2414.34,-252"/>
<polygon fill="black" stroke="black" points="2414.41,-255.5 2424.41,-252 2414.41,-248.5 2414.41,-255.5"/>
<text text-anchor="middle" x="2372.54" y="-254.8" font-family="Helvetica,sans-Serif" font-size="14.00">topic_log</text>
</g>
<!-- file_valid_input_port -->
<g id="node4" class="node">
<title>file_valid_input_port</title>
<ellipse fill="#ffffff" stroke="black" cx="31" cy="-191" rx="7" ry="7"/>
</g>
<!-- file_valid_input_port&#45;&gt;tf_calculation -->
<g id="edge5" class="edge">
<title>file_valid_input_port&#45;&gt;tf_calculation</title>
<path fill="none" stroke="black" d="M38.077,-191.413C52.3101,-192.244 86.7829,-194.256 130.22,-196.791"/>
<polygon fill="black" stroke="black" points="130.038,-200.286 140.225,-197.375 130.446,-193.298 130.038,-200.286"/>
<text text-anchor="middle" x="89.2378" y="-198.8" font-family="Helvetica,sans-Serif" font-size="14.00">file_valid</text>
</g>
<!-- n_components_input_port -->
<g id="node5" class="node">
<title>n_components_input_port</title>
<ellipse fill="#ffffff" stroke="black" cx="31" cy="-159" rx="7" ry="7"/>
</g>
<!-- n_components_input_port&#45;&gt;LatentDirichletAllocation -->
<g id="edge6" class="edge">
<title>n_components_input_port&#45;&gt;LatentDirichletAllocation</title>
<path fill="none" stroke="black" d="M38.0639,-159.173C78.8411,-160.157 288.276,-165 459.326,-165 459.326,-165 459.326,-165 1159.71,-165 1235.63,-165 1320.31,-178.645 1384.38,-191.819"/>
<polygon fill="black" stroke="black" points="1383.98,-195.31 1394.48,-193.927 1385.41,-188.458 1383.98,-195.31"/>
<text text-anchor="middle" x="886.325" y="-167.8" font-family="Helvetica,sans-Serif" font-size="14.00">n_components</text>
</g>
<!-- n_top_words_input_port -->
<g id="node6" class="node">
<title>n_top_words_input_port</title>
<ellipse fill="#ffffff" stroke="black" cx="31" cy="-223" rx="7" ry="7"/>
</g>
<!-- n_top_words_input_port&#45;&gt;print_top_words -->
<g id="edge11" class="edge">
<title>n_top_words_input_port&#45;&gt;print_top_words</title>
<path fill="none" stroke="black" d="M37.7127,-225.223C77.3432,-238.144 284.957,-303 459.326,-303 459.326,-303 459.326,-303 2006.57,-303 2046.91,-303 2090.46,-290.455 2124.11,-277.809"/>
<polygon fill="black" stroke="black" points="2125.71,-280.943 2133.78,-274.073 2123.19,-274.414 2125.71,-280.943"/>
<text text-anchor="middle" x="1218.29" y="-305.8" font-family="Helvetica,sans-Serif" font-size="14.00">n_top_words</text>
</g>
<!-- random_state_input_port -->
<g id="node7" class="node">
<title>random_state_input_port</title>
<ellipse fill="#ffffff" stroke="black" cx="31" cy="-95" rx="7" ry="7"/>
</g>
<!-- random_state_input_port&#45;&gt;LatentDirichletAllocation -->
<g id="edge10" class="edge">
<title>random_state_input_port&#45;&gt;LatentDirichletAllocation</title>
<path fill="none" stroke="black" d="M38.0639,-94.8269C78.8411,-93.8431 288.276,-89 459.326,-89 459.326,-89 459.326,-89 1159.71,-89 1268.41,-89 1384.46,-150.967 1444.56,-188.33"/>
<polygon fill="black" stroke="black" points="1443.03,-191.508 1453.36,-193.878 1446.77,-185.586 1443.03,-191.508"/>
<text text-anchor="middle" x="886.325" y="-91.8" font-family="Helvetica,sans-Serif" font-size="14.00">random_state</text>
</g>
<!-- max_iter_input_port -->
<g id="node8" class="node">
<title>max_iter_input_port</title>
<ellipse fill="#ffffff" stroke="black" cx="31" cy="-63" rx="7" ry="7"/>
</g>
<!-- max_iter_input_port&#45;&gt;LatentDirichletAllocation -->
<g id="edge7" class="edge">
<title>max_iter_input_port&#45;&gt;LatentDirichletAllocation</title>
<path fill="none" stroke="black" d="M38.0624,-62.6538C78.8309,-60.6863 288.226,-51 459.326,-51 459.326,-51 459.326,-51 1159.71,-51 1278.9,-51 1398.79,-139.764 1454.22,-187.082"/>
<polygon fill="black" stroke="black" points="1452.08,-189.852 1461.93,-193.747 1456.66,-184.558 1452.08,-189.852"/>
<text text-anchor="middle" x="886.325" y="-53.8" font-family="Helvetica,sans-Serif" font-size="14.00">max_iter</text>
</g>
<!-- learning_method_input_port -->
<g id="node9" class="node">
<title>learning_method_input_port</title>
<ellipse fill="#ffffff" stroke="black" cx="31" cy="-31" rx="7" ry="7"/>
</g>
<!-- learning_method_input_port&#45;&gt;LatentDirichletAllocation -->
<g id="edge8" class="edge">
<title>learning_method_input_port&#45;&gt;LatentDirichletAllocation</title>
<path fill="none" stroke="black" d="M38.0598,-30.4807C78.8138,-27.5294 288.142,-13 459.326,-13 459.326,-13 459.326,-13 1159.71,-13 1289.38,-13 1410.24,-130.01 1460.92,-186.359"/>
<polygon fill="black" stroke="black" points="1458.34,-188.731 1467.6,-193.889 1463.58,-184.085 1458.34,-188.731"/>
<text text-anchor="middle" x="886.325" y="-15.8" font-family="Helvetica,sans-Serif" font-size="14.00">learning_method</text>
</g>
<!-- learning_offset_input_port -->
<g id="node10" class="node">
<title>learning_offset_input_port</title>
<ellipse fill="#ffffff" stroke="black" cx="31" cy="-127" rx="7" ry="7"/>
</g>
<!-- learning_offset_input_port&#45;&gt;LatentDirichletAllocation -->
<g id="edge9" class="edge">
<title>learning_offset_input_port&#45;&gt;LatentDirichletAllocation</title>
<path fill="none" stroke="black" d="M38.0645,-127C78.8445,-127 288.293,-127 459.326,-127 459.326,-127 459.326,-127 1159.71,-127 1256.33,-127 1363.56,-163.772 1427.83,-190.044"/>
<polygon fill="black" stroke="black" points="1426.81,-193.407 1437.38,-194 1429.48,-186.94 1426.81,-193.407"/>
<text text-anchor="middle" x="886.325" y="-129.8" font-family="Helvetica,sans-Serif" font-size="14.00">learning_offset</text>
</g>
</g>
</svg>
