<?xml version="1.0" encoding="UTF-8" standalone="no"?>
<!DOCTYPE svg PUBLIC "-//W3C//DTD SVG 1.1//EN"
 "http://www.w3.org/Graphics/SVG/1.1/DTD/svg11.dtd">
<!-- Generated by graphviz version 2.39.20160823.1445 (20160823.1445)
 -->
<!-- Title: Workflow Pages: 1 -->
<svg width="1701pt" height="342pt"
 viewBox="0.00 0.00 1701.02 342.00" xmlns="http://www.w3.org/2000/svg" xmlns:xlink="http://www.w3.org/1999/xlink">
<g id="graph0" class="graph" transform="scale(1 1) rotate(0) translate(4 338)">
<title>Workflow</title>
<polygon fill="white" stroke="transparent" points="-4,4 -4,-338 1697.02,-338 1697.02,4 -4,4"/>
<text text-anchor="middle" x="846.509" y="-315.6" font-family="Courier,monospace" font-size="18.00">topic_modeling</text>
<g id="clust1" class="cluster">
<title>cluster_workflow_box_outer</title>
<polygon fill="none" stroke="black" stroke-width="2" points="186.449,-222 186.449,-300 1566.98,-300 1566.98,-222 186.449,-222"/>
</g>
<g id="clust2" class="cluster">
<title>cluster_workflow_box_inner</title>
<polygon fill="none" stroke="white" stroke-width="2" points="194.449,-230 194.449,-292 1558.98,-292 1558.98,-230 194.449,-230"/>
</g>
<g id="clust3" class="cluster">
<title>cluster_input_ports_group_outer</title>
<polygon fill="none" stroke="white" points="486.858,-8 486.858,-214 532.858,-214 532.858,-8 486.858,-8"/>
</g>
<g id="clust4" class="cluster">
<title>cluster_input_ports_group_inner</title>
<polygon fill="none" stroke="white" points="494.858,-16 494.858,-206 524.858,-206 524.858,-16 494.858,-16"/>
</g>
<g id="clust5" class="cluster">
<title>cluster_output_ports_group_outer</title>
<polygon fill="none" stroke="white" points="1639.02,-237 1639.02,-283 1685.02,-283 1685.02,-237 1639.02,-237"/>
</g>
<g id="clust6" class="cluster">
<title>cluster_output_ports_group_inner</title>
<polygon fill="none" stroke="white" points="1647.02,-245 1647.02,-275 1677.02,-275 1677.02,-245 1647.02,-245"/>
</g>
<!-- get_raw_data -->
<g id="node1" class="node">
<title>get_raw_data</title>
<polygon fill="#ccffcc" stroke="black" points="323.18,-279 206.535,-279 206.535,-243 323.18,-243 323.18,-279"/>
<polygon fill="none" stroke="black" points="327.174,-283 202.541,-283 202.541,-239 327.174,-239 327.174,-283"/>
<text text-anchor="middle" x="264.857" y="-256.8" font-family="Courier,monospace" font-size="14.00">get_raw_data</text>
</g>
<!-- pre_process -->
<g id="node2" class="node">
<title>pre_process</title>
<polygon fill="#ccffcc" stroke="black" points="677.927,-239 677.927,-283 1181.21,-283 1181.21,-239 677.927,-239"/>
<text text-anchor="middle" x="929.566" y="-267.8" font-family="Courier,monospace" font-size="14.00">pre_process</text>
<polyline fill="none" stroke="black" points="677.927,-261 1181.21,-261 "/>
<text text-anchor="middle" x="929.566" y="-245.8" font-family="Courier,monospace" font-size="14.00">pre&#45;process the data, do data cleaning,tokenization,filter</text>
</g>
<!-- get_raw_data&#45;&gt;pre_process -->
<g id="edge1" class="edge">
<title>get_raw_data&#45;&gt;pre_process</title>
<path fill="none" stroke="black" d="M327.212,-261C339.652,-261 352.624,-261 364.765,-261 364.765,-261 364.765,-261 509.858,-261 560.857,-261 615.341,-261 667.593,-261"/>
<polygon fill="black" stroke="black" points="667.666,-264.5 677.666,-261 667.666,-257.5 667.666,-264.5"/>
<text text-anchor="middle" x="431.062" y="-263.8" font-family="Helvetica,sans-Serif" font-size="14.00">raw_data</text>
</g>
<!-- LDA -->
<g id="node3" class="node">
<title>LDA</title>
<polygon fill="#ccffcc" stroke="black" points="1546.98,-278 1492.98,-278 1492.98,-242 1546.98,-242 1546.98,-278"/>
<polygon fill="none" stroke="black" points="1550.98,-282 1488.98,-282 1488.98,-238 1550.98,-238 1550.98,-282"/>
<text text-anchor="middle" x="1519.98" y="-255.8" font-family="Courier,monospace" font-size="14.00">LDA</text>
</g>
<!-- pre_process&#45;&gt;LDA -->
<g id="edge2" class="edge">
<title>pre_process&#45;&gt;LDA</title>
<path fill="none" stroke="black" d="M1181.49,-260.025C1194.07,-260.009 1206.53,-260 1218.71,-260 1218.71,-260 1218.71,-260 1451.48,-260 1460.28,-260 1469.72,-260 1478.69,-260"/>
<polygon fill="black" stroke="black" points="1478.95,-263.5 1488.95,-260 1478.95,-256.5 1478.95,-263.5"/>
<text text-anchor="middle" x="1386.74" y="-262.8" font-family="Helvetica,sans-Serif" font-size="14.00">file_valid</text>
</g>
<!-- topic_log_output_port -->
<g id="node10" class="node">
<title>topic_log_output_port</title>
<ellipse fill="#ffffff" stroke="black" cx="1662.02" cy="-260" rx="7" ry="7"/>
</g>
<!-- LDA&#45;&gt;topic_log_output_port -->
<g id="edge10" class="edge">
<title>LDA&#45;&gt;topic_log_output_port</title>
<path fill="none" stroke="black" d="M1551.15,-260C1579.93,-260 1621.63,-260 1644.82,-260"/>
<polygon fill="black" stroke="black" points="1644.83,-263.5 1654.83,-260 1644.83,-256.5 1644.83,-263.5"/>
<text text-anchor="middle" x="1603" y="-262.8" font-family="Helvetica,sans-Serif" font-size="14.00">topic_log</text>
</g>
<!-- stopwords_input_port -->
<g id="node4" class="node">
<title>stopwords_input_port</title>
<ellipse fill="#ffffff" stroke="black" cx="509.858" cy="-191" rx="7" ry="7"/>
</g>
<!-- stopwords_input_port&#45;&gt;pre_process -->
<g id="edge4" class="edge">
<title>stopwords_input_port&#45;&gt;pre_process</title>
<path fill="none" stroke="black" d="M514.437,-196.671C519.959,-203.061 529.878,-213.184 540.858,-218 554.82,-224.124 606.835,-231.244 668.483,-237.907"/>
<polygon fill="black" stroke="black" points="668.14,-241.391 678.455,-238.973 668.883,-234.43 668.14,-241.391"/>
<text text-anchor="middle" x="600.392" y="-239.8" font-family="Helvetica,sans-Serif" font-size="14.00">stopwords</text>
</g>
<!-- regular_expression_input_port -->
<g id="node5" class="node">
<title>regular_expression_input_port</title>
<ellipse fill="#ffffff" stroke="black" cx="509.858" cy="-159" rx="7" ry="7"/>
</g>
<!-- regular_expression_input_port&#45;&gt;pre_process -->
<g id="edge5" class="edge">
<title>regular_expression_input_port&#45;&gt;pre_process</title>
<path fill="none" stroke="black" d="M515.815,-162.693C521.901,-166.315 531.728,-171.753 540.858,-175 591.805,-193.12 607.095,-188.478 659.927,-200 714.11,-211.816 774.313,-225.393 824.063,-236.734"/>
<polygon fill="black" stroke="black" points="823.341,-240.159 833.869,-238.971 824.898,-233.334 823.341,-240.159"/>
<text text-anchor="middle" x="600.392" y="-202.8" font-family="Helvetica,sans-Serif" font-size="14.00">regular_expression</text>
</g>
<!-- max_iteration_input_port -->
<g id="node6" class="node">
<title>max_iteration_input_port</title>
<ellipse fill="#ffffff" stroke="black" cx="509.858" cy="-127" rx="7" ry="7"/>
</g>
<!-- max_iteration_input_port&#45;&gt;LDA -->
<g id="edge7" class="edge">
<title>max_iteration_input_port&#45;&gt;LDA</title>
<path fill="none" stroke="black" d="M516.92,-129.223C523.152,-131.088 532.517,-133.657 540.858,-135 711.801,-162.529 756.421,-161 929.566,-161 929.566,-161 929.566,-161 1451.48,-161 1484.57,-161 1502.93,-198.87 1512.12,-227.766"/>
<polygon fill="black" stroke="black" points="1508.82,-228.932 1515,-237.535 1515.53,-226.954 1508.82,-228.932"/>
<text text-anchor="middle" x="1289.35" y="-163.8" font-family="Helvetica,sans-Serif" font-size="14.00">max_iteration</text>
</g>
<!-- random_state_input_port -->
<g id="node7" class="node">
<title>random_state_input_port</title>
<ellipse fill="#ffffff" stroke="black" cx="509.858" cy="-95" rx="7" ry="7"/>
</g>
<!-- random_state_input_port&#45;&gt;LDA -->
<g id="edge6" class="edge">
<title>random_state_input_port&#45;&gt;LDA</title>
<path fill="none" stroke="black" d="M517.033,-95.7781C557.566,-100.104 762.018,-121 929.566,-121 929.566,-121 929.566,-121 1451.48,-121 1475.22,-121 1498.8,-187.102 1511.14,-228.138"/>
<polygon fill="black" stroke="black" points="1507.85,-229.367 1514.03,-237.975 1514.57,-227.394 1507.85,-229.367"/>
<text text-anchor="middle" x="1289.35" y="-123.8" font-family="Helvetica,sans-Serif" font-size="14.00">random_state</text>
</g>
<!-- learning_method_input_port -->
<g id="node8" class="node">
<title>learning_method_input_port</title>
<ellipse fill="#ffffff" stroke="black" cx="509.858" cy="-63" rx="7" ry="7"/>
</g>
<!-- learning_method_input_port&#45;&gt;LDA -->
<g id="edge8" class="edge">
<title>learning_method_input_port&#45;&gt;LDA</title>
<path fill="none" stroke="black" d="M517.037,-63.5986C557.593,-66.9263 762.149,-83 929.566,-83 929.566,-83 929.566,-83 1451.48,-83 1482.23,-83 1504.55,-177.083 1514.39,-228.063"/>
<polygon fill="black" stroke="black" points="1510.96,-228.758 1516.24,-237.941 1517.84,-227.467 1510.96,-228.758"/>
<text text-anchor="middle" x="1289.35" y="-85.8" font-family="Helvetica,sans-Serif" font-size="14.00">learning_method</text>
</g>
<!-- learning_offset_input_port -->
<g id="node9" class="node">
<title>learning_offset_input_port</title>
<ellipse fill="#ffffff" stroke="black" cx="509.858" cy="-31" rx="7" ry="7"/>
</g>
<!-- learning_offset_input_port&#45;&gt;LDA -->
<g id="edge9" class="edge">
<title>learning_offset_input_port&#45;&gt;LDA</title>
<path fill="none" stroke="black" d="M517.041,-31.3891C557.616,-33.5521 762.259,-44 929.566,-44 929.566,-44 929.566,-44 1451.48,-44 1489.52,-44 1509.18,-167.264 1516.52,-227.559"/>
<polygon fill="black" stroke="black" points="1513.06,-228.174 1517.71,-237.698 1520.02,-227.358 1513.06,-228.174"/>
<text text-anchor="middle" x="1289.35" y="-46.8" font-family="Helvetica,sans-Serif" font-size="14.00">learning_offset</text>
</g>
<!-- path_input_port -->
<g id="node11" class="node">
<title>path_input_port</title>
<ellipse fill="none" stroke="black" cx="66.6005" cy="-261" rx="66.7012" ry="18"/>
<text text-anchor="middle" x="66.6005" y="-256.8" font-family="Times,serif" font-size="14.00">path_input_port</text>
</g>
<!-- path_input_port&#45;&gt;get_raw_data -->
<g id="edge3" class="edge">
<title>path_input_port&#45;&gt;get_raw_data</title>
<path fill="none" stroke="black" d="M133.445,-261C152.312,-261 172.931,-261 192.125,-261"/>
<polygon fill="black" stroke="black" points="192.318,-264.5 202.318,-261 192.318,-257.5 192.318,-264.5"/>
<text text-anchor="middle" x="164.825" y="-263.8" font-family="Helvetica,sans-Serif" font-size="14.00">path</text>
</g>
</g>
</svg>
