<?xml version="1.0" encoding="UTF-8" standalone="no"?>
<!DOCTYPE svg PUBLIC "-//W3C//DTD SVG 1.1//EN"
 "http://www.w3.org/Graphics/SVG/1.1/DTD/svg11.dtd">
<!-- Generated by graphviz version 2.39.20160823.1445 (20160823.1445)
 -->
<!-- Title: Workflow Pages: 1 -->
<svg width="2064pt" height="195pt"
 viewBox="0.00 0.00 2064.41 195.00" xmlns="http://www.w3.org/2000/svg" xmlns:xlink="http://www.w3.org/1999/xlink">
<g id="graph0" class="graph" transform="scale(1 1) rotate(0) translate(4 191)">
<title>Workflow</title>
<polygon fill="white" stroke="transparent" points="-4,4 -4,-191 2060.41,-191 2060.41,4 -4,4"/>
<text text-anchor="middle" x="1028.2" y="-168.6" font-family="Courier,monospace" font-size="18.00">pre_process</text>
<g id="clust1" class="cluster">
<title>cluster_workflow_box_outer</title>
<polygon fill="none" stroke="black" stroke-width="2" points="127.593,-75 127.593,-153 1931.93,-153 1931.93,-75 127.593,-75"/>
</g>
<g id="clust2" class="cluster">
<title>cluster_workflow_box_inner</title>
<polygon fill="none" stroke="white" stroke-width="2" points="135.593,-83 135.593,-145 1923.93,-145 1923.93,-83 135.593,-83"/>
</g>
<g id="clust3" class="cluster">
<title>cluster_input_ports_group_outer</title>
<polygon fill="none" stroke="white" points="8,-8 8,-118 54,-118 54,-8 8,-8"/>
</g>
<g id="clust4" class="cluster">
<title>cluster_input_ports_group_inner</title>
<polygon fill="none" stroke="white" points="16,-16 16,-110 46,-110 46,-16 16,-16"/>
</g>
<g id="clust5" class="cluster">
<title>cluster_output_ports_group_outer</title>
<polygon fill="none" stroke="white" points="2002.41,-91 2002.41,-137 2048.41,-137 2048.41,-91 2002.41,-91"/>
</g>
<g id="clust6" class="cluster">
<title>cluster_output_ports_group_inner</title>
<polygon fill="none" stroke="white" points="2010.41,-99 2010.41,-129 2040.41,-129 2040.41,-99 2010.41,-99"/>
</g>
<!-- tokenization -->
<g id="node1" class="node">
<title>tokenization</title>
<polygon fill="#ccffcc" stroke="black" points="143.593,-92 143.593,-136 520.852,-136 520.852,-92 143.593,-92"/>
<text text-anchor="middle" x="332.222" y="-120.8" font-family="Courier,monospace" font-size="14.00">tokenization</text>
<polyline fill="none" stroke="black" points="143.593,-114 520.852,-114 "/>
<text text-anchor="middle" x="332.222" y="-98.8" font-family="Courier,monospace" font-size="14.00">using NLTK word_tokenize to do tokenization</text>
</g>
<!-- stopwords_removal -->
<g id="node2" class="node">
<title>stopwords_removal</title>
<polygon fill="#ccffcc" stroke="black" points="918.657,-92 918.657,-136 1220.3,-136 1220.3,-92 918.657,-92"/>
<text text-anchor="middle" x="1069.48" y="-120.8" font-family="Courier,monospace" font-size="14.00">stopwords_removal</text>
<polyline fill="none" stroke="black" points="918.657,-114 1220.3,-114 "/>
<text text-anchor="middle" x="1069.48" y="-98.8" font-family="Courier,monospace" font-size="14.00">remove the stopwords from the file</text>
</g>
<!-- tokenization&#45;&gt;stopwords_removal -->
<g id="edge1" class="edge">
<title>tokenization&#45;&gt;stopwords_removal</title>
<path fill="none" stroke="black" d="M521.003,-114C533.643,-114 546.181,-114 558.352,-114 558.352,-114 558.352,-114 763.089,-114 810.168,-114 861.316,-114 908.092,-114"/>
<polygon fill="black" stroke="black" points="908.315,-117.5 918.315,-114 908.315,-110.5 908.315,-117.5"/>
<text text-anchor="middle" x="692.124" y="-116.8" font-family="Helvetica,sans-Serif" font-size="14.00">file_tokens</text>
</g>
<!-- filter_rules -->
<g id="node3" class="node">
<title>filter_rules</title>
<polygon fill="#ccffcc" stroke="black" points="1429.46,-92 1429.46,-136 1915.93,-136 1915.93,-92 1429.46,-92"/>
<text text-anchor="middle" x="1672.69" y="-120.8" font-family="Courier,monospace" font-size="14.00">filter_rules</text>
<polyline fill="none" stroke="black" points="1429.46,-114 1915.93,-114 "/>
<text text-anchor="middle" x="1672.69" y="-98.8" font-family="Courier,monospace" font-size="14.00">using regular expression to filter the other data format</text>
</g>
<!-- stopwords_removal&#45;&gt;filter_rules -->
<g id="edge2" class="edge">
<title>stopwords_removal&#45;&gt;filter_rules</title>
<path fill="none" stroke="black" d="M1220.32,-114C1233,-114 1245.62,-114 1257.8,-114 1257.8,-114 1257.8,-114 1391.96,-114 1400.9,-114 1410.01,-114 1419.21,-114"/>
<polygon fill="black" stroke="black" points="1419.23,-117.5 1429.23,-114 1419.23,-110.5 1419.23,-117.5"/>
<text text-anchor="middle" x="1324.88" y="-116.8" font-family="Helvetica,sans-Serif" font-size="14.00">clean_file</text>
</g>
<!-- file_valid_output_port -->
<g id="node7" class="node">
<title>file_valid_output_port</title>
<ellipse fill="#ffffff" stroke="black" cx="2025.41" cy="-114" rx="7" ry="7"/>
</g>
<!-- filter_rules&#45;&gt;file_valid_output_port -->
<g id="edge6" class="edge">
<title>filter_rules&#45;&gt;file_valid_output_port</title>
<path fill="none" stroke="black" d="M1916.22,-114C1955.21,-114 1989.05,-114 2008.34,-114"/>
<polygon fill="black" stroke="black" points="2008.38,-117.5 2018.38,-114 2008.38,-110.5 2008.38,-117.5"/>
<text text-anchor="middle" x="1967.17" y="-116.8" font-family="Helvetica,sans-Serif" font-size="14.00">file_valid</text>
</g>
<!-- raw_data_input_port -->
<g id="node4" class="node">
<title>raw_data_input_port</title>
<ellipse fill="#ffffff" stroke="black" cx="31" cy="-95" rx="7" ry="7"/>
</g>
<!-- raw_data_input_port&#45;&gt;tokenization -->
<g id="edge3" class="edge">
<title>raw_data_input_port&#45;&gt;tokenization</title>
<path fill="none" stroke="black" d="M38.1489,-95.4509C53.1919,-96.3998 90.2952,-98.7401 133.273,-101.451"/>
<polygon fill="black" stroke="black" points="133.214,-104.954 143.415,-102.091 133.655,-97.9681 133.214,-104.954"/>
<text text-anchor="middle" x="90.7964" y="-102.8" font-family="Helvetica,sans-Serif" font-size="14.00">raw_data</text>
</g>
<!-- stopwords_input_port -->
<g id="node5" class="node">
<title>stopwords_input_port</title>
<ellipse fill="#ffffff" stroke="black" cx="31" cy="-63" rx="7" ry="7"/>
</g>
<!-- stopwords_input_port&#45;&gt;stopwords_removal -->
<g id="edge4" class="edge">
<title>stopwords_input_port&#45;&gt;stopwords_removal</title>
<path fill="none" stroke="black" d="M38.0051,-63C71.0382,-63 214.557,-63 332.222,-63 332.222,-63 332.222,-63 763.089,-63 834.347,-63 913.678,-76.5888 973.76,-89.7378"/>
<polygon fill="black" stroke="black" points="973.09,-93.1741 983.611,-91.9273 974.609,-86.3409 973.09,-93.1741"/>
<text text-anchor="middle" x="608.755" y="-65.8" font-family="Helvetica,sans-Serif" font-size="14.00">stopwords</text>
</g>
<!-- regular_expression_input_port -->
<g id="node6" class="node">
<title>regular_expression_input_port</title>
<ellipse fill="#ffffff" stroke="black" cx="31" cy="-31" rx="7" ry="7"/>
</g>
<!-- regular_expression_input_port&#45;&gt;filter_rules -->
<g id="edge5" class="edge">
<title>regular_expression_input_port&#45;&gt;filter_rules</title>
<path fill="none" stroke="black" d="M38.0041,-30.7574C71.0326,-29.6349 214.534,-25 332.222,-25 332.222,-25 332.222,-25 1391.96,-25 1475.57,-25 1566.92,-61.3206 1622.01,-87.5568"/>
<polygon fill="black" stroke="black" points="1620.67,-90.7968 1631.19,-92 1623.71,-84.4951 1620.67,-90.7968"/>
<text text-anchor="middle" x="841.123" y="-27.8" font-family="Helvetica,sans-Serif" font-size="14.00">regular_expression</text>
</g>
</g>
</svg>
