<?xml version="1.0" encoding="UTF-8" standalone="no"?>
<!DOCTYPE svg PUBLIC "-//W3C//DTD SVG 1.1//EN"
 "http://www.w3.org/Graphics/SVG/1.1/DTD/svg11.dtd">
<!-- Generated by graphviz version 2.39.20160823.1445 (20160823.1445)
 -->
<!-- Title: Workflow Pages: 1 -->
<svg width="621pt" height="550pt"
 viewBox="0.00 0.00 621.00 550.00" xmlns="http://www.w3.org/2000/svg" xmlns:xlink="http://www.w3.org/1999/xlink">
<g id="graph0" class="graph" transform="scale(1 1) rotate(0) translate(4 546)">
<title>Workflow</title>
<polygon fill="white" stroke="transparent" points="-4,4 -4,-546 617,-546 617,4 -4,4"/>
<text text-anchor="middle" x="306.5" y="-523.6" font-family="Courier,monospace" font-size="18.00">topic_modeling</text>
<g id="clust1" class="cluster">
<title>cluster_workflow_box_outer</title>
<polygon fill="none" stroke="black" stroke-width="2" points="8,-62 8,-454 605,-454 605,-62 8,-62"/>
</g>
<g id="clust2" class="cluster">
<title>cluster_workflow_box_inner</title>
<polygon fill="none" stroke="white" stroke-width="2" points="16,-70 16,-446 597,-446 597,-70 16,-70"/>
</g>
<g id="clust3" class="cluster">
<title>cluster_input_ports_group_outer</title>
<polygon fill="none" stroke="white" points="331,-462 331,-508 377,-508 377,-462 331,-462"/>
</g>
<g id="clust4" class="cluster">
<title>cluster_input_ports_group_inner</title>
<polygon fill="none" stroke="white" points="339,-470 339,-500 369,-500 369,-470 339,-470"/>
</g>
<g id="clust5" class="cluster">
<title>cluster_output_ports_group_outer</title>
<polygon fill="none" stroke="white" points="241,-8 241,-54 383,-54 383,-8 241,-8"/>
</g>
<g id="clust6" class="cluster">
<title>cluster_output_ports_group_inner</title>
<polygon fill="none" stroke="white" points="249,-16 249,-46 375,-46 375,-16 249,-16"/>
</g>
<!-- TrainingCorpus -->
<g id="node1" class="node">
<title>TrainingCorpus</title>
<polygon fill="#ccffcc" stroke="black" points="55.772,-312.5 55.772,-356.5 416.228,-356.5 416.228,-312.5 55.772,-312.5"/>
<text text-anchor="middle" x="236" y="-341.3" font-family="Courier,monospace" font-size="14.00">TrainingCorpus</text>
<polyline fill="none" stroke="black" points="55.772,-334.5 416.228,-334.5 "/>
<text text-anchor="middle" x="236" y="-319.3" font-family="Courier,monospace" font-size="14.00">Using Gensim to construct training corpus</text>
</g>
<!-- Corpus -->
<g id="node8" class="node">
<title>Corpus</title>
<path fill="#ffffcc" stroke="black" d="M237.631,-276C237.631,-276 200.369,-276 200.369,-276 194.369,-276 188.369,-270 188.369,-264 188.369,-264 188.369,-252 188.369,-252 188.369,-246 194.369,-240 200.369,-240 200.369,-240 237.631,-240 237.631,-240 243.631,-240 249.631,-246 249.631,-252 249.631,-252 249.631,-264 249.631,-264 249.631,-270 243.631,-276 237.631,-276"/>
<text text-anchor="middle" x="219" y="-253.8" font-family="Helvetica,sans-Serif" font-size="14.00">Corpus</text>
</g>
<!-- TrainingCorpus&#45;&gt;Corpus -->
<g id="edge1" class="edge">
<title>TrainingCorpus&#45;&gt;Corpus</title>
<path fill="none" stroke="black" d="M231.083,-312.373C229.27,-304.216 227.192,-294.862 225.275,-286.239"/>
<polygon fill="black" stroke="black" points="228.633,-285.214 223.047,-276.211 221.8,-286.732 228.633,-285.214"/>
</g>
<!-- dictionary -->
<g id="node9" class="node">
<title>dictionary</title>
<path fill="#ffffcc" stroke="black" d="M331.917,-276C331.917,-276 280.083,-276 280.083,-276 274.083,-276 268.083,-270 268.083,-264 268.083,-264 268.083,-252 268.083,-252 268.083,-246 274.083,-240 280.083,-240 280.083,-240 331.917,-240 331.917,-240 337.917,-240 343.917,-246 343.917,-252 343.917,-252 343.917,-264 343.917,-264 343.917,-270 337.917,-276 331.917,-276"/>
<text text-anchor="middle" x="306" y="-253.8" font-family="Helvetica,sans-Serif" font-size="14.00">dictionary</text>
</g>
<!-- TrainingCorpus&#45;&gt;dictionary -->
<g id="edge2" class="edge">
<title>TrainingCorpus&#45;&gt;dictionary</title>
<path fill="none" stroke="black" d="M256.247,-312.373C264.449,-303.41 273.974,-293 282.481,-283.703"/>
<polygon fill="black" stroke="black" points="285.167,-285.952 289.336,-276.211 280.003,-281.226 285.167,-285.952"/>
</g>
<!-- Evaluation_Model -->
<g id="node2" class="node">
<title>Evaluation_Model</title>
<polygon fill="#ccffcc" stroke="black" points="41.3638,-159.5 41.3638,-203.5 502.636,-203.5 502.636,-159.5 41.3638,-159.5"/>
<text text-anchor="middle" x="272" y="-188.3" font-family="Courier,monospace" font-size="14.00">Evaluation_Model</text>
<polyline fill="none" stroke="black" points="41.3638,-181.5 502.636,-181.5 "/>
<text text-anchor="middle" x="272" y="-166.3" font-family="Courier,monospace" font-size="14.00">Using different models to do Topic and Transformation</text>
</g>
<!-- LDA_model -->
<g id="node3" class="node">
<title>LDA_model</title>
<path fill="#ffffcc" stroke="black" d="M35.8003,-78.5C35.8003,-78.5 142.2,-78.5 142.2,-78.5 148.2,-78.5 154.2,-84.5 154.2,-90.5 154.2,-90.5 154.2,-110.5 154.2,-110.5 154.2,-116.5 148.2,-122.5 142.2,-122.5 142.2,-122.5 35.8003,-122.5 35.8003,-122.5 29.8003,-122.5 23.8003,-116.5 23.8003,-110.5 23.8003,-110.5 23.8003,-90.5 23.8003,-90.5 23.8003,-84.5 29.8003,-78.5 35.8003,-78.5"/>
<text text-anchor="middle" x="89" y="-107.3" font-family="Helvetica,sans-Serif" font-size="14.00">LDA_model</text>
<polyline fill="none" stroke="black" points="23.8003,-100.5 154.2,-100.5 "/>
<text text-anchor="middle" x="89" y="-85.3" font-family="Helvetica,sans-Serif" font-size="14.00">file:LDA_output.txt</text>
</g>
<!-- Evaluation_Model&#45;&gt;LDA_model -->
<g id="edge6" class="edge">
<title>Evaluation_Model&#45;&gt;LDA_model</title>
<path fill="none" stroke="black" d="M221.994,-159.366C199.199,-149.277 172.044,-137.257 148.233,-126.718"/>
<polygon fill="black" stroke="black" points="149.506,-123.454 138.945,-122.607 146.673,-129.855 149.506,-123.454"/>
</g>
<!-- HDP_model -->
<g id="node4" class="node">
<title>HDP_model</title>
<path fill="#ffffcc" stroke="black" d="M184.638,-78.5C184.638,-78.5 293.362,-78.5 293.362,-78.5 299.362,-78.5 305.362,-84.5 305.362,-90.5 305.362,-90.5 305.362,-110.5 305.362,-110.5 305.362,-116.5 299.362,-122.5 293.362,-122.5 293.362,-122.5 184.638,-122.5 184.638,-122.5 178.638,-122.5 172.638,-116.5 172.638,-110.5 172.638,-110.5 172.638,-90.5 172.638,-90.5 172.638,-84.5 178.638,-78.5 184.638,-78.5"/>
<text text-anchor="middle" x="239" y="-107.3" font-family="Helvetica,sans-Serif" font-size="14.00">HDP_model</text>
<polyline fill="none" stroke="black" points="172.638,-100.5 305.362,-100.5 "/>
<text text-anchor="middle" x="239" y="-85.3" font-family="Helvetica,sans-Serif" font-size="14.00">file:HDP_output.txt</text>
</g>
<!-- Evaluation_Model&#45;&gt;HDP_model -->
<g id="edge7" class="edge">
<title>Evaluation_Model&#45;&gt;HDP_model</title>
<path fill="none" stroke="black" d="M262.983,-159.366C259.563,-150.973 255.6,-141.245 251.892,-132.143"/>
<polygon fill="black" stroke="black" points="255.021,-130.547 248.006,-122.607 248.538,-133.188 255.021,-130.547"/>
</g>
<!-- LSI_model -->
<g id="node5" class="node">
<title>LSI_model</title>
<path fill="#ffffcc" stroke="black" d="M334.911,-78.5C334.911,-78.5 435.089,-78.5 435.089,-78.5 441.089,-78.5 447.089,-84.5 447.089,-90.5 447.089,-90.5 447.089,-110.5 447.089,-110.5 447.089,-116.5 441.089,-122.5 435.089,-122.5 435.089,-122.5 334.911,-122.5 334.911,-122.5 328.911,-122.5 322.911,-116.5 322.911,-110.5 322.911,-110.5 322.911,-90.5 322.911,-90.5 322.911,-84.5 328.911,-78.5 334.911,-78.5"/>
<text text-anchor="middle" x="385" y="-107.3" font-family="Helvetica,sans-Serif" font-size="14.00">LSI_model</text>
<polyline fill="none" stroke="black" points="322.911,-100.5 447.089,-100.5 "/>
<text text-anchor="middle" x="385" y="-85.3" font-family="Helvetica,sans-Serif" font-size="14.00">file:LSI_output.txt</text>
</g>
<!-- Evaluation_Model&#45;&gt;LSI_model -->
<g id="edge8" class="edge">
<title>Evaluation_Model&#45;&gt;LSI_model</title>
<path fill="none" stroke="black" d="M302.878,-159.366C316.082,-149.902 331.654,-138.739 345.67,-128.693"/>
<polygon fill="black" stroke="black" points="348.071,-131.278 354.16,-122.607 343.993,-125.588 348.071,-131.278"/>
</g>
<!-- Evaluation_result -->
<g id="node6" class="node">
<title>Evaluation_result</title>
<path fill="#ffffcc" stroke="black" d="M576.9,-118.5C576.9,-118.5 477.1,-118.5 477.1,-118.5 471.1,-118.5 465.1,-112.5 465.1,-106.5 465.1,-106.5 465.1,-94.5 465.1,-94.5 465.1,-88.5 471.1,-82.5 477.1,-82.5 477.1,-82.5 576.9,-82.5 576.9,-82.5 582.9,-82.5 588.9,-88.5 588.9,-94.5 588.9,-94.5 588.9,-106.5 588.9,-106.5 588.9,-112.5 582.9,-118.5 576.9,-118.5"/>
<text text-anchor="middle" x="527" y="-96.3" font-family="Helvetica,sans-Serif" font-size="14.00">Evaluation_result</text>
</g>
<!-- Evaluation_Model&#45;&gt;Evaluation_result -->
<g id="edge9" class="edge">
<title>Evaluation_Model&#45;&gt;Evaluation_result</title>
<path fill="none" stroke="black" d="M341.343,-159.473C378.438,-147.69 423.892,-133.252 460.54,-121.611"/>
<polygon fill="black" stroke="black" points="461.67,-124.924 470.141,-118.561 459.551,-118.253 461.67,-124.924"/>
</g>
<!-- LDA_model_output_port -->
<g id="node13" class="node">
<title>LDA_model_output_port</title>
<ellipse fill="#ffffff" stroke="black" cx="264" cy="-31" rx="7" ry="7"/>
</g>
<!-- LDA_model&#45;&gt;LDA_model_output_port -->
<g id="edge13" class="edge">
<title>LDA_model&#45;&gt;LDA_model_output_port</title>
<path fill="none" stroke="black" d="M128.877,-78.4067C140.058,-72.6609 152.346,-66.7556 164,-62 192.55,-50.35 227.176,-40.5268 247.287,-35.2253"/>
<polygon fill="black" stroke="black" points="248.257,-38.59 257.066,-32.7044 246.509,-31.8116 248.257,-38.59"/>
</g>
<!-- HDP_model_output_port -->
<g id="node14" class="node">
<title>HDP_model_output_port</title>
<ellipse fill="#ffffff" stroke="black" cx="296" cy="-31" rx="7" ry="7"/>
</g>
<!-- HDP_model&#45;&gt;HDP_model_output_port -->
<g id="edge14" class="edge">
<title>HDP_model&#45;&gt;HDP_model_output_port</title>
<path fill="none" stroke="black" d="M259.554,-78.2394C266.263,-70.7007 273.623,-62.1293 280,-54 282.094,-51.3306 284.235,-48.4084 286.241,-45.5694"/>
<polygon fill="black" stroke="black" points="289.216,-47.4199 291.975,-37.1905 283.439,-43.4668 289.216,-47.4199"/>
</g>
<!-- LSI_model_output_port -->
<g id="node15" class="node">
<title>LSI_model_output_port</title>
<ellipse fill="#ffffff" stroke="black" cx="328" cy="-31" rx="7" ry="7"/>
</g>
<!-- LSI_model&#45;&gt;LSI_model_output_port -->
<g id="edge15" class="edge">
<title>LSI_model&#45;&gt;LSI_model_output_port</title>
<path fill="none" stroke="black" d="M364.446,-78.2394C357.737,-70.7007 350.377,-62.1293 344,-54 341.906,-51.3306 339.765,-48.4084 337.759,-45.5694"/>
<polygon fill="black" stroke="black" points="340.561,-43.4668 332.025,-37.1905 334.784,-47.4199 340.561,-43.4668"/>
</g>
<!-- Evaluation_result_output_port -->
<g id="node16" class="node">
<title>Evaluation_result_output_port</title>
<ellipse fill="#ffffff" stroke="black" cx="360" cy="-31" rx="7" ry="7"/>
</g>
<!-- Evaluation_result&#45;&gt;Evaluation_result_output_port -->
<g id="edge16" class="edge">
<title>Evaluation_result&#45;&gt;Evaluation_result_output_port</title>
<path fill="none" stroke="black" d="M496.51,-82.3624C484.184,-75.4575 469.663,-67.8511 456,-62 429.083,-50.4731 396.379,-40.7803 376.927,-35.4423"/>
<polygon fill="black" stroke="black" points="377.714,-32.0299 367.149,-32.8217 375.902,-38.7913 377.714,-32.0299"/>
</g>
<!-- Static_text -->
<g id="node7" class="node">
<title>Static_text</title>
<path fill="#ffffcc" stroke="black" d="M305.859,-393.5C305.859,-393.5 402.141,-393.5 402.141,-393.5 408.141,-393.5 414.141,-399.5 414.141,-405.5 414.141,-405.5 414.141,-425.5 414.141,-425.5 414.141,-431.5 408.141,-437.5 402.141,-437.5 402.141,-437.5 305.859,-437.5 305.859,-437.5 299.859,-437.5 293.859,-431.5 293.859,-425.5 293.859,-425.5 293.859,-405.5 293.859,-405.5 293.859,-399.5 299.859,-393.5 305.859,-393.5"/>
<text text-anchor="middle" x="354" y="-422.3" font-family="Helvetica,sans-Serif" font-size="14.00">Static_text</text>
<polyline fill="none" stroke="black" points="293.859,-415.5 414.141,-415.5 "/>
<text text-anchor="middle" x="354" y="-400.3" font-family="Helvetica,sans-Serif" font-size="14.00">file:news2012.txt</text>
</g>
<!-- Static_text&#45;&gt;TrainingCorpus -->
<g id="edge3" class="edge">
<title>Static_text&#45;&gt;TrainingCorpus</title>
<path fill="none" stroke="black" d="M321.756,-393.366C307.838,-383.812 291.399,-372.528 276.657,-362.409"/>
<polygon fill="black" stroke="black" points="278.43,-359.381 268.205,-356.607 274.469,-365.152 278.43,-359.381"/>
</g>
<!-- Corpus&#45;&gt;Evaluation_Model -->
<g id="edge10" class="edge">
<title>Corpus&#45;&gt;Evaluation_Model</title>
<path fill="none" stroke="black" d="M231.56,-239.871C237.326,-231.549 244.322,-221.451 250.863,-212.009"/>
<polygon fill="black" stroke="black" points="253.876,-213.807 256.694,-203.593 248.122,-209.82 253.876,-213.807"/>
</g>
<!-- dictionary&#45;&gt;Evaluation_Model -->
<g id="edge11" class="edge">
<title>dictionary&#45;&gt;Evaluation_Model</title>
<path fill="none" stroke="black" d="M297.942,-239.871C294.357,-231.804 290.03,-222.067 285.946,-212.878"/>
<polygon fill="black" stroke="black" points="289.079,-211.31 281.819,-203.593 282.682,-214.153 289.079,-211.31"/>
</g>
<!-- stopwords -->
<g id="node10" class="node">
<title>stopwords</title>
<path fill="#fcfcfc" stroke="black" d="M263.807,-433.5C263.807,-433.5 208.193,-433.5 208.193,-433.5 202.193,-433.5 196.193,-427.5 196.193,-421.5 196.193,-421.5 196.193,-409.5 196.193,-409.5 196.193,-403.5 202.193,-397.5 208.193,-397.5 208.193,-397.5 263.807,-397.5 263.807,-397.5 269.807,-397.5 275.807,-403.5 275.807,-409.5 275.807,-409.5 275.807,-421.5 275.807,-421.5 275.807,-427.5 269.807,-433.5 263.807,-433.5"/>
<text text-anchor="middle" x="236" y="-411.3" font-family="Helvetica,sans-Serif" font-size="14.00">stopwords</text>
</g>
<!-- stopwords&#45;&gt;TrainingCorpus -->
<g id="edge4" class="edge">
<title>stopwords&#45;&gt;TrainingCorpus</title>
<path fill="none" stroke="black" d="M236,-397.12C236,-388.088 236,-376.939 236,-366.563"/>
<polygon fill="black" stroke="black" points="239.5,-366.552 236,-356.552 232.5,-366.552 239.5,-366.552"/>
</g>
<!-- regular_expression -->
<g id="node11" class="node">
<title>regular_expression</title>
<path fill="#fcfcfc" stroke="black" d="M166.568,-433.5C166.568,-433.5 55.4316,-433.5 55.4316,-433.5 49.4316,-433.5 43.4316,-427.5 43.4316,-421.5 43.4316,-421.5 43.4316,-409.5 43.4316,-409.5 43.4316,-403.5 49.4316,-397.5 55.4316,-397.5 55.4316,-397.5 166.568,-397.5 166.568,-397.5 172.568,-397.5 178.568,-403.5 178.568,-409.5 178.568,-409.5 178.568,-421.5 178.568,-421.5 178.568,-427.5 172.568,-433.5 166.568,-433.5"/>
<text text-anchor="middle" x="111" y="-411.3" font-family="Helvetica,sans-Serif" font-size="14.00">regular_expression</text>
</g>
<!-- regular_expression&#45;&gt;TrainingCorpus -->
<g id="edge5" class="edge">
<title>regular_expression&#45;&gt;TrainingCorpus</title>
<path fill="none" stroke="black" d="M139.052,-397.322C155.012,-386.98 175.329,-373.815 193.238,-362.21"/>
<polygon fill="black" stroke="black" points="195.317,-365.033 201.806,-356.658 191.51,-359.159 195.317,-365.033"/>
</g>
<!-- Static_text_input_port -->
<g id="node12" class="node">
<title>Static_text_input_port</title>
<ellipse fill="#ffffff" stroke="black" cx="354" cy="-485" rx="7" ry="7"/>
</g>
<!-- Static_text_input_port&#45;&gt;Static_text -->
<g id="edge12" class="edge">
<title>Static_text_input_port&#45;&gt;Static_text</title>
<path fill="none" stroke="black" d="M354,-477.824C354,-470.602 354,-458.944 354,-447.653"/>
<polygon fill="black" stroke="black" points="357.5,-447.526 354,-437.526 350.5,-447.526 357.5,-447.526"/>
</g>
</g>
</svg>
