<?xml version="1.0" encoding="UTF-8" standalone="no"?>
<!DOCTYPE svg PUBLIC "-//W3C//DTD SVG 1.1//EN"
 "http://www.w3.org/Graphics/SVG/1.1/DTD/svg11.dtd">
<!-- Generated by graphviz version 2.39.20160823.1445 (20160823.1445)
 -->
<!-- Title: Workflow Pages: 1 -->
<svg width="617pt" height="702pt"
 viewBox="0.00 0.00 617.00 702.00" xmlns="http://www.w3.org/2000/svg" xmlns:xlink="http://www.w3.org/1999/xlink">
<g id="graph0" class="graph" transform="scale(1 1) rotate(0) translate(4 698)">
<title>Workflow</title>
<polygon fill="white" stroke="transparent" points="-4,4 -4,-698 613,-698 613,4 -4,4"/>
<text text-anchor="middle" x="304.5" y="-675.6" font-family="Courier,monospace" font-size="18.00">topic_modeling</text>
<g id="clust1" class="cluster">
<title>cluster_workflow_box_outer</title>
<polygon fill="none" stroke="black" stroke-width="2" points="8,-62 8,-606 601,-606 601,-62 8,-62"/>
</g>
<g id="clust2" class="cluster">
<title>cluster_workflow_box_inner</title>
<polygon fill="none" stroke="white" stroke-width="2" points="16,-70 16,-598 593,-598 593,-70 16,-70"/>
</g>
<g id="clust3" class="cluster">
<title>cluster_input_ports_group_outer</title>
<polygon fill="none" stroke="white" points="382,-614 382,-660 428,-660 428,-614 382,-614"/>
</g>
<g id="clust4" class="cluster">
<title>cluster_input_ports_group_inner</title>
<polygon fill="none" stroke="white" points="390,-622 390,-652 420,-652 420,-622 390,-622"/>
</g>
<g id="clust5" class="cluster">
<title>cluster_output_ports_group_outer</title>
<polygon fill="none" stroke="white" points="300,-8 300,-54 346,-54 346,-8 300,-8"/>
</g>
<g id="clust6" class="cluster">
<title>cluster_output_ports_group_inner</title>
<polygon fill="none" stroke="white" points="308,-16 308,-46 338,-46 338,-16 308,-16"/>
</g>
<!-- AccessText -->
<g id="node1" class="node">
<title>AccessText</title>
<polygon fill="#ccffcc" stroke="black" points="224.772,-464.5 224.772,-508.5 585.228,-508.5 585.228,-464.5 224.772,-464.5"/>
<text text-anchor="middle" x="405" y="-493.3" font-family="Courier,monospace" font-size="14.00">AccessText</text>
<polyline fill="none" stroke="black" points="224.772,-486.5 585.228,-486.5 "/>
<text text-anchor="middle" x="405" y="-471.3" font-family="Courier,monospace" font-size="14.00">To read the text data from book1.txt file</text>
</g>
<!-- TextRead -->
<g id="node6" class="node">
<title>TextRead</title>
<path fill="#ffffcc" stroke="black" d="M501.645,-428C501.645,-428 450.355,-428 450.355,-428 444.355,-428 438.355,-422 438.355,-416 438.355,-416 438.355,-404 438.355,-404 438.355,-398 444.355,-392 450.355,-392 450.355,-392 501.645,-392 501.645,-392 507.645,-392 513.645,-398 513.645,-404 513.645,-404 513.645,-416 513.645,-416 513.645,-422 507.645,-428 501.645,-428"/>
<text text-anchor="middle" x="476" y="-405.8" font-family="Helvetica,sans-Serif" font-size="14.00">TextRead</text>
</g>
<!-- AccessText&#45;&gt;TextRead -->
<g id="edge1" class="edge">
<title>AccessText&#45;&gt;TextRead</title>
<path fill="none" stroke="black" d="M425.536,-464.373C433.855,-455.41 443.516,-445 452.145,-435.703"/>
<polygon fill="black" stroke="black" points="454.861,-437.922 459.098,-428.211 449.73,-433.16 454.861,-437.922"/>
</g>
<!-- PreprocessFile -->
<g id="node2" class="node">
<title>PreprocessFile</title>
<polygon fill="#ccffcc" stroke="black" points="300.582,-311.5 300.582,-355.5 543.418,-355.5 543.418,-311.5 300.582,-311.5"/>
<text text-anchor="middle" x="422" y="-340.3" font-family="Courier,monospace" font-size="14.00">PreprocessFile</text>
<polyline fill="none" stroke="black" points="300.582,-333.5 543.418,-333.5 "/>
<text text-anchor="middle" x="422" y="-318.3" font-family="Courier,monospace" font-size="14.00">To preprocess the text data</text>
</g>
<!-- FileProcess -->
<g id="node7" class="node">
<title>FileProcess</title>
<path fill="#ffffcc" stroke="black" d="M572.631,-275C572.631,-275 507.369,-275 507.369,-275 501.369,-275 495.369,-269 495.369,-263 495.369,-263 495.369,-251 495.369,-251 495.369,-245 501.369,-239 507.369,-239 507.369,-239 572.631,-239 572.631,-239 578.631,-239 584.631,-245 584.631,-251 584.631,-251 584.631,-263 584.631,-263 584.631,-269 578.631,-275 572.631,-275"/>
<text text-anchor="middle" x="540" y="-252.8" font-family="Helvetica,sans-Serif" font-size="14.00">FileProcess</text>
</g>
<!-- PreprocessFile&#45;&gt;FileProcess -->
<g id="edge3" class="edge">
<title>PreprocessFile&#45;&gt;FileProcess</title>
<path fill="none" stroke="black" d="M456.13,-311.373C470.924,-301.782 488.271,-290.536 503.338,-280.768"/>
<polygon fill="black" stroke="black" points="505.422,-283.588 511.909,-275.211 501.614,-277.714 505.422,-283.588"/>
</g>
<!-- LDA -->
<g id="node3" class="node">
<title>LDA</title>
<polygon fill="#ccffcc" stroke="black" points="350,-199 296,-199 296,-163 350,-163 350,-199"/>
<polygon fill="none" stroke="black" points="354,-203 292,-203 292,-159 354,-159 354,-203"/>
<text text-anchor="middle" x="323" y="-176.8" font-family="Courier,monospace" font-size="14.00">LDA</text>
</g>
<!-- Topicmodeling_Result -->
<g id="node4" class="node">
<title>Topicmodeling_Result</title>
<path fill="#ffffcc" stroke="black" d="M258.518,-78.5C258.518,-78.5 387.482,-78.5 387.482,-78.5 393.482,-78.5 399.482,-84.5 399.482,-90.5 399.482,-90.5 399.482,-110.5 399.482,-110.5 399.482,-116.5 393.482,-122.5 387.482,-122.5 387.482,-122.5 258.518,-122.5 258.518,-122.5 252.518,-122.5 246.518,-116.5 246.518,-110.5 246.518,-110.5 246.518,-90.5 246.518,-90.5 246.518,-84.5 252.518,-78.5 258.518,-78.5"/>
<text text-anchor="middle" x="323" y="-107.3" font-family="Helvetica,sans-Serif" font-size="14.00">Topicmodeling_Result</text>
<polyline fill="none" stroke="black" points="246.518,-100.5 399.482,-100.5 "/>
<text text-anchor="middle" x="323" y="-85.3" font-family="Helvetica,sans-Serif" font-size="14.00">file:output.txt</text>
</g>
<!-- LDA&#45;&gt;Topicmodeling_Result -->
<g id="edge7" class="edge">
<title>LDA&#45;&gt;Topicmodeling_Result</title>
<path fill="none" stroke="black" d="M323,-158.576C323,-150.572 323,-141.39 323,-132.724"/>
<polygon fill="black" stroke="black" points="326.5,-132.525 323,-122.525 319.5,-132.525 326.5,-132.525"/>
</g>
<!-- Topicmodeling_Result_output_port -->
<g id="node15" class="node">
<title>Topicmodeling_Result_output_port</title>
<ellipse fill="#ffffff" stroke="black" cx="323" cy="-31" rx="7" ry="7"/>
</g>
<!-- Topicmodeling_Result&#45;&gt;Topicmodeling_Result_output_port -->
<g id="edge14" class="edge">
<title>Topicmodeling_Result&#45;&gt;Topicmodeling_Result_output_port</title>
<path fill="none" stroke="black" d="M323,-78.1272C323,-68.4176 323,-57.225 323,-48.1844"/>
<polygon fill="black" stroke="black" points="326.5,-48.1577 323,-38.1577 319.5,-48.1577 326.5,-48.1577"/>
</g>
<!-- Static_text -->
<g id="node5" class="node">
<title>Static_text</title>
<path fill="#ffffcc" stroke="black" d="M369.7,-545.5C369.7,-545.5 440.3,-545.5 440.3,-545.5 446.3,-545.5 452.3,-551.5 452.3,-557.5 452.3,-557.5 452.3,-577.5 452.3,-577.5 452.3,-583.5 446.3,-589.5 440.3,-589.5 440.3,-589.5 369.7,-589.5 369.7,-589.5 363.7,-589.5 357.7,-583.5 357.7,-577.5 357.7,-577.5 357.7,-557.5 357.7,-557.5 357.7,-551.5 363.7,-545.5 369.7,-545.5"/>
<text text-anchor="middle" x="405" y="-574.3" font-family="Helvetica,sans-Serif" font-size="14.00">Static_text</text>
<polyline fill="none" stroke="black" points="357.7,-567.5 452.3,-567.5 "/>
<text text-anchor="middle" x="405" y="-552.3" font-family="Helvetica,sans-Serif" font-size="14.00">file:book1.txt</text>
</g>
<!-- Static_text&#45;&gt;AccessText -->
<g id="edge2" class="edge">
<title>Static_text&#45;&gt;AccessText</title>
<path fill="none" stroke="black" d="M405,-545.366C405,-537.152 405,-527.658 405,-518.725"/>
<polygon fill="black" stroke="black" points="408.5,-518.607 405,-508.607 401.5,-518.607 408.5,-518.607"/>
</g>
<!-- TextRead&#45;&gt;PreprocessFile -->
<g id="edge6" class="edge">
<title>TextRead&#45;&gt;PreprocessFile</title>
<path fill="none" stroke="black" d="M463.203,-391.871C457.329,-383.549 450.201,-373.451 443.536,-364.009"/>
<polygon fill="black" stroke="black" points="446.222,-361.745 437.595,-355.593 440.503,-365.781 446.222,-361.745"/>
</g>
<!-- FileProcess&#45;&gt;LDA -->
<g id="edge8" class="edge">
<title>FileProcess&#45;&gt;LDA</title>
<path fill="none" stroke="black" d="M495.301,-241.345C456.691,-227.823 401.364,-208.446 363.905,-195.326"/>
<polygon fill="black" stroke="black" points="364.91,-191.97 354.315,-191.968 362.596,-198.576 364.91,-191.97"/>
</g>
<!-- stopwords -->
<g id="node8" class="node">
<title>stopwords</title>
<path fill="#fcfcfc" stroke="black" d="M408.807,-428C408.807,-428 353.193,-428 353.193,-428 347.193,-428 341.193,-422 341.193,-416 341.193,-416 341.193,-404 341.193,-404 341.193,-398 347.193,-392 353.193,-392 353.193,-392 408.807,-392 408.807,-392 414.807,-392 420.807,-398 420.807,-404 420.807,-404 420.807,-416 420.807,-416 420.807,-422 414.807,-428 408.807,-428"/>
<text text-anchor="middle" x="381" y="-405.8" font-family="Helvetica,sans-Serif" font-size="14.00">stopwords</text>
</g>
<!-- stopwords&#45;&gt;PreprocessFile -->
<g id="edge4" class="edge">
<title>stopwords&#45;&gt;PreprocessFile</title>
<path fill="none" stroke="black" d="M390.716,-391.871C395.085,-383.719 400.368,-373.862 405.338,-364.588"/>
<polygon fill="black" stroke="black" points="408.52,-366.061 410.159,-355.593 402.35,-362.754 408.52,-366.061"/>
</g>
<!-- regular_expression -->
<g id="node9" class="node">
<title>regular_expression</title>
<path fill="#fcfcfc" stroke="black" d="M311.568,-428C311.568,-428 200.432,-428 200.432,-428 194.432,-428 188.432,-422 188.432,-416 188.432,-416 188.432,-404 188.432,-404 188.432,-398 194.432,-392 200.432,-392 200.432,-392 311.568,-392 311.568,-392 317.568,-392 323.568,-398 323.568,-404 323.568,-404 323.568,-416 323.568,-416 323.568,-422 317.568,-428 311.568,-428"/>
<text text-anchor="middle" x="256" y="-405.8" font-family="Helvetica,sans-Serif" font-size="14.00">regular_expression</text>
</g>
<!-- regular_expression&#45;&gt;PreprocessFile -->
<g id="edge5" class="edge">
<title>regular_expression&#45;&gt;PreprocessFile</title>
<path fill="none" stroke="black" d="M295.34,-391.871C316.069,-382.318 341.878,-370.424 364.779,-359.87"/>
<polygon fill="black" stroke="black" points="366.442,-362.957 374.059,-355.593 363.512,-356.6 366.442,-362.957"/>
</g>
<!-- random_state -->
<g id="node10" class="node">
<title>random_state</title>
<path fill="#fcfcfc" stroke="black" d="M465.607,-275C465.607,-275 388.393,-275 388.393,-275 382.393,-275 376.393,-269 376.393,-263 376.393,-263 376.393,-251 376.393,-251 376.393,-245 382.393,-239 388.393,-239 388.393,-239 465.607,-239 465.607,-239 471.607,-239 477.607,-245 477.607,-251 477.607,-251 477.607,-263 477.607,-263 477.607,-269 471.607,-275 465.607,-275"/>
<text text-anchor="middle" x="427" y="-252.8" font-family="Helvetica,sans-Serif" font-size="14.00">random_state</text>
</g>
<!-- random_state&#45;&gt;LDA -->
<g id="edge9" class="edge">
<title>random_state&#45;&gt;LDA</title>
<path fill="none" stroke="black" d="M402.353,-238.989C390.216,-230.12 375.3,-219.219 361.688,-209.272"/>
<polygon fill="black" stroke="black" points="363.557,-206.303 353.418,-203.228 359.426,-211.954 363.557,-206.303"/>
</g>
<!-- max_iter -->
<g id="node11" class="node">
<title>max_iter</title>
<path fill="#fcfcfc" stroke="black" d="M345.683,-275C345.683,-275 300.317,-275 300.317,-275 294.317,-275 288.317,-269 288.317,-263 288.317,-263 288.317,-251 288.317,-251 288.317,-245 294.317,-239 300.317,-239 300.317,-239 345.683,-239 345.683,-239 351.683,-239 357.683,-245 357.683,-251 357.683,-251 357.683,-263 357.683,-263 357.683,-269 351.683,-275 345.683,-275"/>
<text text-anchor="middle" x="323" y="-252.8" font-family="Helvetica,sans-Serif" font-size="14.00">max_iter</text>
</g>
<!-- max_iter&#45;&gt;LDA -->
<g id="edge10" class="edge">
<title>max_iter&#45;&gt;LDA</title>
<path fill="none" stroke="black" d="M323,-238.989C323,-231.291 323,-222.063 323,-213.256"/>
<polygon fill="black" stroke="black" points="326.5,-213.228 323,-203.228 319.5,-213.228 326.5,-213.228"/>
</g>
<!-- learning_method -->
<g id="node12" class="node">
<title>learning_method</title>
<path fill="#fcfcfc" stroke="black" d="M258.296,-275C258.296,-275 161.704,-275 161.704,-275 155.704,-275 149.704,-269 149.704,-263 149.704,-263 149.704,-251 149.704,-251 149.704,-245 155.704,-239 161.704,-239 161.704,-239 258.296,-239 258.296,-239 264.296,-239 270.296,-245 270.296,-251 270.296,-251 270.296,-263 270.296,-263 270.296,-269 264.296,-275 258.296,-275"/>
<text text-anchor="middle" x="210" y="-252.8" font-family="Helvetica,sans-Serif" font-size="14.00">learning_method</text>
</g>
<!-- learning_method&#45;&gt;LDA -->
<g id="edge11" class="edge">
<title>learning_method&#45;&gt;LDA</title>
<path fill="none" stroke="black" d="M236.779,-238.989C250.656,-229.656 267.877,-218.074 283.271,-207.72"/>
<polygon fill="black" stroke="black" points="285.258,-210.602 291.603,-202.117 281.352,-204.793 285.258,-210.602"/>
</g>
<!-- learning_offset -->
<g id="node13" class="node">
<title>learning_offset</title>
<path fill="#fcfcfc" stroke="black" d="M119.595,-275C119.595,-275 36.4045,-275 36.4045,-275 30.4045,-275 24.4045,-269 24.4045,-263 24.4045,-263 24.4045,-251 24.4045,-251 24.4045,-245 30.4045,-239 36.4045,-239 36.4045,-239 119.595,-239 119.595,-239 125.595,-239 131.595,-245 131.595,-251 131.595,-251 131.595,-263 131.595,-263 131.595,-269 125.595,-275 119.595,-275"/>
<text text-anchor="middle" x="78" y="-252.8" font-family="Helvetica,sans-Serif" font-size="14.00">learning_offset</text>
</g>
<!-- learning_offset&#45;&gt;LDA -->
<g id="edge12" class="edge">
<title>learning_offset&#45;&gt;LDA</title>
<path fill="none" stroke="black" d="M131.766,-240.321C177.051,-226.274 240.865,-206.479 282.084,-193.692"/>
<polygon fill="black" stroke="black" points="283.282,-196.985 291.796,-190.68 281.208,-190.3 283.282,-196.985"/>
</g>
<!-- Static_text_input_port -->
<g id="node14" class="node">
<title>Static_text_input_port</title>
<ellipse fill="#ffffff" stroke="black" cx="405" cy="-637" rx="7" ry="7"/>
</g>
<!-- Static_text_input_port&#45;&gt;Static_text -->
<g id="edge13" class="edge">
<title>Static_text_input_port&#45;&gt;Static_text</title>
<path fill="none" stroke="black" d="M405,-629.824C405,-622.602 405,-610.944 405,-599.653"/>
<polygon fill="black" stroke="black" points="408.5,-599.526 405,-589.526 401.5,-599.526 408.5,-599.526"/>
</g>
</g>
</svg>
