<?xml version="1.0" encoding="UTF-8" standalone="no"?>
<!DOCTYPE svg PUBLIC "-//W3C//DTD SVG 1.1//EN"
 "http://www.w3.org/Graphics/SVG/1.1/DTD/svg11.dtd">
<!-- Generated by graphviz version 2.39.20160823.1445 (20160823.1445)
 -->
<!-- Title: Workflow Pages: 1 -->
<svg width="617pt" height="693pt"
 viewBox="0.00 0.00 617.00 693.00" xmlns="http://www.w3.org/2000/svg" xmlns:xlink="http://www.w3.org/1999/xlink">
<g id="graph0" class="graph" transform="scale(1 1) rotate(0) translate(4 689)">
<title>Workflow</title>
<polygon fill="white" stroke="transparent" points="-4,4 -4,-689 613,-689 613,4 -4,4"/>
<text text-anchor="middle" x="304.5" y="-666.6" font-family="Courier,monospace" font-size="18.00">topic_modeling</text>
<g id="clust1" class="cluster">
<title>cluster_workflow_box_outer</title>
<polygon fill="none" stroke="black" stroke-width="2" points="8,-62 8,-597 601,-597 601,-62 8,-62"/>
</g>
<g id="clust2" class="cluster">
<title>cluster_workflow_box_inner</title>
<polygon fill="none" stroke="white" stroke-width="2" points="16,-70 16,-589 593,-589 593,-70 16,-70"/>
</g>
<g id="clust3" class="cluster">
<title>cluster_input_ports_group_outer</title>
<polygon fill="none" stroke="white" points="382,-605 382,-651 428,-651 428,-605 382,-605"/>
</g>
<g id="clust4" class="cluster">
<title>cluster_input_ports_group_inner</title>
<polygon fill="none" stroke="white" points="390,-613 390,-643 420,-643 420,-613 390,-613"/>
</g>
<g id="clust5" class="cluster">
<title>cluster_output_ports_group_outer</title>
<polygon fill="none" stroke="white" points="300,-8 300,-54 346,-54 346,-8 300,-8"/>
</g>
<g id="clust6" class="cluster">
<title>cluster_output_ports_group_inner</title>
<polygon fill="none" stroke="white" points="308,-16 308,-46 338,-46 338,-16 308,-16"/>
</g>
<!-- AccessText -->
<g id="node1" class="node">
<title>AccessText</title>
<polygon fill="#ccffcc" stroke="black" points="224.772,-455.5 224.772,-499.5 585.228,-499.5 585.228,-455.5 224.772,-455.5"/>
<text text-anchor="middle" x="405" y="-484.3" font-family="Courier,monospace" font-size="14.00">AccessText</text>
<polyline fill="none" stroke="black" points="224.772,-477.5 585.228,-477.5 "/>
<text text-anchor="middle" x="405" y="-462.3" font-family="Courier,monospace" font-size="14.00">To read the text data from book1.txt file</text>
</g>
<!-- TextRead -->
<g id="node6" class="node">
<title>TextRead</title>
<path fill="#ffffcc" stroke="black" d="M501.645,-419C501.645,-419 450.355,-419 450.355,-419 444.355,-419 438.355,-413 438.355,-407 438.355,-407 438.355,-395 438.355,-395 438.355,-389 444.355,-383 450.355,-383 450.355,-383 501.645,-383 501.645,-383 507.645,-383 513.645,-389 513.645,-395 513.645,-395 513.645,-407 513.645,-407 513.645,-413 507.645,-419 501.645,-419"/>
<text text-anchor="middle" x="476" y="-396.8" font-family="Helvetica,sans-Serif" font-size="14.00">TextRead</text>
</g>
<!-- AccessText&#45;&gt;TextRead -->
<g id="edge1" class="edge">
<title>AccessText&#45;&gt;TextRead</title>
<path fill="none" stroke="black" d="M425.536,-455.373C433.855,-446.41 443.516,-436 452.145,-426.703"/>
<polygon fill="black" stroke="black" points="454.861,-428.922 459.098,-419.211 449.73,-424.16 454.861,-428.922"/>
</g>
<!-- PreprocessFile -->
<g id="node2" class="node">
<title>PreprocessFile</title>
<polygon fill="#ccffcc" stroke="black" points="300.582,-302.5 300.582,-346.5 543.418,-346.5 543.418,-302.5 300.582,-302.5"/>
<text text-anchor="middle" x="422" y="-331.3" font-family="Courier,monospace" font-size="14.00">PreprocessFile</text>
<polyline fill="none" stroke="black" points="300.582,-324.5 543.418,-324.5 "/>
<text text-anchor="middle" x="422" y="-309.3" font-family="Courier,monospace" font-size="14.00">To preprocess the text data</text>
</g>
<!-- FileProcess -->
<g id="node7" class="node">
<title>FileProcess</title>
<path fill="#ffffcc" stroke="black" d="M572.631,-266C572.631,-266 507.369,-266 507.369,-266 501.369,-266 495.369,-260 495.369,-254 495.369,-254 495.369,-242 495.369,-242 495.369,-236 501.369,-230 507.369,-230 507.369,-230 572.631,-230 572.631,-230 578.631,-230 584.631,-236 584.631,-242 584.631,-242 584.631,-254 584.631,-254 584.631,-260 578.631,-266 572.631,-266"/>
<text text-anchor="middle" x="540" y="-243.8" font-family="Helvetica,sans-Serif" font-size="14.00">FileProcess</text>
</g>
<!-- PreprocessFile&#45;&gt;FileProcess -->
<g id="edge3" class="edge">
<title>PreprocessFile&#45;&gt;FileProcess</title>
<path fill="none" stroke="black" d="M456.13,-302.373C470.924,-292.782 488.271,-281.536 503.338,-271.768"/>
<polygon fill="black" stroke="black" points="505.422,-274.588 511.909,-266.211 501.614,-268.714 505.422,-274.588"/>
</g>
<!-- LDA -->
<g id="node3" class="node">
<title>LDA</title>
<polygon fill="#ccffcc" stroke="black" points="350,-190 296,-190 296,-154 350,-154 350,-190"/>
<polygon fill="none" stroke="black" points="354,-194 292,-194 292,-150 354,-150 354,-194"/>
<text text-anchor="middle" x="323" y="-167.8" font-family="Courier,monospace" font-size="14.00">LDA</text>
</g>
<!-- Topicmodeling_Result -->
<g id="node4" class="node">
<title>Topicmodeling_Result</title>
<path fill="#ffffcc" stroke="black" d="M387.465,-114C387.465,-114 258.535,-114 258.535,-114 252.535,-114 246.535,-108 246.535,-102 246.535,-102 246.535,-90 246.535,-90 246.535,-84 252.535,-78 258.535,-78 258.535,-78 387.465,-78 387.465,-78 393.465,-78 399.465,-84 399.465,-90 399.465,-90 399.465,-102 399.465,-102 399.465,-108 393.465,-114 387.465,-114"/>
<text text-anchor="middle" x="323" y="-91.8" font-family="Helvetica,sans-Serif" font-size="14.00">Topicmodeling_Result</text>
</g>
<!-- LDA&#45;&gt;Topicmodeling_Result -->
<g id="edge7" class="edge">
<title>LDA&#45;&gt;Topicmodeling_Result</title>
<path fill="none" stroke="black" d="M323,-149.609C323,-141.727 323,-132.762 323,-124.448"/>
<polygon fill="black" stroke="black" points="326.5,-124.397 323,-114.397 319.5,-124.398 326.5,-124.397"/>
</g>
<!-- Topicmodeling_Result_output_port -->
<g id="node15" class="node">
<title>Topicmodeling_Result_output_port</title>
<ellipse fill="#ffffff" stroke="black" cx="323" cy="-31" rx="7" ry="7"/>
</g>
<!-- Topicmodeling_Result&#45;&gt;Topicmodeling_Result_output_port -->
<g id="edge14" class="edge">
<title>Topicmodeling_Result&#45;&gt;Topicmodeling_Result_output_port</title>
<path fill="none" stroke="black" d="M323,-77.8939C323,-68.5967 323,-57.3301 323,-48.1707"/>
<polygon fill="black" stroke="black" points="326.5,-48.0024 323,-38.0024 319.5,-48.0025 326.5,-48.0024"/>
</g>
<!-- Static_text -->
<g id="node5" class="node">
<title>Static_text</title>
<path fill="#ffffcc" stroke="black" d="M369.7,-536.5C369.7,-536.5 440.3,-536.5 440.3,-536.5 446.3,-536.5 452.3,-542.5 452.3,-548.5 452.3,-548.5 452.3,-568.5 452.3,-568.5 452.3,-574.5 446.3,-580.5 440.3,-580.5 440.3,-580.5 369.7,-580.5 369.7,-580.5 363.7,-580.5 357.7,-574.5 357.7,-568.5 357.7,-568.5 357.7,-548.5 357.7,-548.5 357.7,-542.5 363.7,-536.5 369.7,-536.5"/>
<text text-anchor="middle" x="405" y="-565.3" font-family="Helvetica,sans-Serif" font-size="14.00">Static_text</text>
<polyline fill="none" stroke="black" points="357.7,-558.5 452.3,-558.5 "/>
<text text-anchor="middle" x="405" y="-543.3" font-family="Helvetica,sans-Serif" font-size="14.00">file:book1.txt</text>
</g>
<!-- Static_text&#45;&gt;AccessText -->
<g id="edge2" class="edge">
<title>Static_text&#45;&gt;AccessText</title>
<path fill="none" stroke="black" d="M405,-536.366C405,-528.152 405,-518.658 405,-509.725"/>
<polygon fill="black" stroke="black" points="408.5,-509.607 405,-499.607 401.5,-509.607 408.5,-509.607"/>
</g>
<!-- TextRead&#45;&gt;PreprocessFile -->
<g id="edge6" class="edge">
<title>TextRead&#45;&gt;PreprocessFile</title>
<path fill="none" stroke="black" d="M463.203,-382.871C457.329,-374.549 450.201,-364.451 443.536,-355.009"/>
<polygon fill="black" stroke="black" points="446.222,-352.745 437.595,-346.593 440.503,-356.781 446.222,-352.745"/>
</g>
<!-- FileProcess&#45;&gt;LDA -->
<g id="edge8" class="edge">
<title>FileProcess&#45;&gt;LDA</title>
<path fill="none" stroke="black" d="M495.301,-232.345C456.691,-218.823 401.364,-199.446 363.905,-186.326"/>
<polygon fill="black" stroke="black" points="364.91,-182.97 354.315,-182.968 362.596,-189.576 364.91,-182.97"/>
</g>
<!-- stopwords -->
<g id="node8" class="node">
<title>stopwords</title>
<path fill="#fcfcfc" stroke="black" d="M408.807,-419C408.807,-419 353.193,-419 353.193,-419 347.193,-419 341.193,-413 341.193,-407 341.193,-407 341.193,-395 341.193,-395 341.193,-389 347.193,-383 353.193,-383 353.193,-383 408.807,-383 408.807,-383 414.807,-383 420.807,-389 420.807,-395 420.807,-395 420.807,-407 420.807,-407 420.807,-413 414.807,-419 408.807,-419"/>
<text text-anchor="middle" x="381" y="-396.8" font-family="Helvetica,sans-Serif" font-size="14.00">stopwords</text>
</g>
<!-- stopwords&#45;&gt;PreprocessFile -->
<g id="edge4" class="edge">
<title>stopwords&#45;&gt;PreprocessFile</title>
<path fill="none" stroke="black" d="M390.716,-382.871C395.085,-374.719 400.368,-364.862 405.338,-355.588"/>
<polygon fill="black" stroke="black" points="408.52,-357.061 410.159,-346.593 402.35,-353.754 408.52,-357.061"/>
</g>
<!-- regular_expression -->
<g id="node9" class="node">
<title>regular_expression</title>
<path fill="#fcfcfc" stroke="black" d="M311.568,-419C311.568,-419 200.432,-419 200.432,-419 194.432,-419 188.432,-413 188.432,-407 188.432,-407 188.432,-395 188.432,-395 188.432,-389 194.432,-383 200.432,-383 200.432,-383 311.568,-383 311.568,-383 317.568,-383 323.568,-389 323.568,-395 323.568,-395 323.568,-407 323.568,-407 323.568,-413 317.568,-419 311.568,-419"/>
<text text-anchor="middle" x="256" y="-396.8" font-family="Helvetica,sans-Serif" font-size="14.00">regular_expression</text>
</g>
<!-- regular_expression&#45;&gt;PreprocessFile -->
<g id="edge5" class="edge">
<title>regular_expression&#45;&gt;PreprocessFile</title>
<path fill="none" stroke="black" d="M295.34,-382.871C316.069,-373.318 341.878,-361.424 364.779,-350.87"/>
<polygon fill="black" stroke="black" points="366.442,-353.957 374.059,-346.593 363.512,-347.6 366.442,-353.957"/>
</g>
<!-- random_state -->
<g id="node10" class="node">
<title>random_state</title>
<path fill="#fcfcfc" stroke="black" d="M465.607,-266C465.607,-266 388.393,-266 388.393,-266 382.393,-266 376.393,-260 376.393,-254 376.393,-254 376.393,-242 376.393,-242 376.393,-236 382.393,-230 388.393,-230 388.393,-230 465.607,-230 465.607,-230 471.607,-230 477.607,-236 477.607,-242 477.607,-242 477.607,-254 477.607,-254 477.607,-260 471.607,-266 465.607,-266"/>
<text text-anchor="middle" x="427" y="-243.8" font-family="Helvetica,sans-Serif" font-size="14.00">random_state</text>
</g>
<!-- random_state&#45;&gt;LDA -->
<g id="edge9" class="edge">
<title>random_state&#45;&gt;LDA</title>
<path fill="none" stroke="black" d="M402.353,-229.989C390.216,-221.12 375.3,-210.219 361.688,-200.272"/>
<polygon fill="black" stroke="black" points="363.557,-197.303 353.418,-194.228 359.426,-202.954 363.557,-197.303"/>
</g>
<!-- max_iter -->
<g id="node11" class="node">
<title>max_iter</title>
<path fill="#fcfcfc" stroke="black" d="M345.683,-266C345.683,-266 300.317,-266 300.317,-266 294.317,-266 288.317,-260 288.317,-254 288.317,-254 288.317,-242 288.317,-242 288.317,-236 294.317,-230 300.317,-230 300.317,-230 345.683,-230 345.683,-230 351.683,-230 357.683,-236 357.683,-242 357.683,-242 357.683,-254 357.683,-254 357.683,-260 351.683,-266 345.683,-266"/>
<text text-anchor="middle" x="323" y="-243.8" font-family="Helvetica,sans-Serif" font-size="14.00">max_iter</text>
</g>
<!-- max_iter&#45;&gt;LDA -->
<g id="edge10" class="edge">
<title>max_iter&#45;&gt;LDA</title>
<path fill="none" stroke="black" d="M323,-229.989C323,-222.291 323,-213.063 323,-204.256"/>
<polygon fill="black" stroke="black" points="326.5,-204.228 323,-194.228 319.5,-204.228 326.5,-204.228"/>
</g>
<!-- learning_method -->
<g id="node12" class="node">
<title>learning_method</title>
<path fill="#fcfcfc" stroke="black" d="M258.296,-266C258.296,-266 161.704,-266 161.704,-266 155.704,-266 149.704,-260 149.704,-254 149.704,-254 149.704,-242 149.704,-242 149.704,-236 155.704,-230 161.704,-230 161.704,-230 258.296,-230 258.296,-230 264.296,-230 270.296,-236 270.296,-242 270.296,-242 270.296,-254 270.296,-254 270.296,-260 264.296,-266 258.296,-266"/>
<text text-anchor="middle" x="210" y="-243.8" font-family="Helvetica,sans-Serif" font-size="14.00">learning_method</text>
</g>
<!-- learning_method&#45;&gt;LDA -->
<g id="edge11" class="edge">
<title>learning_method&#45;&gt;LDA</title>
<path fill="none" stroke="black" d="M236.779,-229.989C250.656,-220.656 267.877,-209.074 283.271,-198.72"/>
<polygon fill="black" stroke="black" points="285.258,-201.602 291.603,-193.117 281.352,-195.793 285.258,-201.602"/>
</g>
<!-- learning_offset -->
<g id="node13" class="node">
<title>learning_offset</title>
<path fill="#fcfcfc" stroke="black" d="M119.595,-266C119.595,-266 36.4045,-266 36.4045,-266 30.4045,-266 24.4045,-260 24.4045,-254 24.4045,-254 24.4045,-242 24.4045,-242 24.4045,-236 30.4045,-230 36.4045,-230 36.4045,-230 119.595,-230 119.595,-230 125.595,-230 131.595,-236 131.595,-242 131.595,-242 131.595,-254 131.595,-254 131.595,-260 125.595,-266 119.595,-266"/>
<text text-anchor="middle" x="78" y="-243.8" font-family="Helvetica,sans-Serif" font-size="14.00">learning_offset</text>
</g>
<!-- learning_offset&#45;&gt;LDA -->
<g id="edge12" class="edge">
<title>learning_offset&#45;&gt;LDA</title>
<path fill="none" stroke="black" d="M131.766,-231.321C177.051,-217.274 240.865,-197.479 282.084,-184.692"/>
<polygon fill="black" stroke="black" points="283.282,-187.985 291.796,-181.68 281.208,-181.3 283.282,-187.985"/>
</g>
<!-- Static_text_input_port -->
<g id="node14" class="node">
<title>Static_text_input_port</title>
<ellipse fill="#ffffff" stroke="black" cx="405" cy="-628" rx="7" ry="7"/>
</g>
<!-- Static_text_input_port&#45;&gt;Static_text -->
<g id="edge13" class="edge">
<title>Static_text_input_port&#45;&gt;Static_text</title>
<path fill="none" stroke="black" d="M405,-620.824C405,-613.602 405,-601.944 405,-590.653"/>
<polygon fill="black" stroke="black" points="408.5,-590.526 405,-580.526 401.5,-590.526 408.5,-590.526"/>
</g>
</g>
</svg>
