<?xml version="1.0" encoding="UTF-8" standalone="no"?>
<!DOCTYPE svg PUBLIC "-//W3C//DTD SVG 1.1//EN"
 "http://www.w3.org/Graphics/SVG/1.1/DTD/svg11.dtd">
<!-- Generated by graphviz version 2.39.20160823.1445 (20160823.1445)
 -->
<!-- Title: Workflow Pages: 1 -->
<svg width="694pt" height="550pt"
 viewBox="0.00 0.00 694.00 550.00" xmlns="http://www.w3.org/2000/svg" xmlns:xlink="http://www.w3.org/1999/xlink">
<g id="graph0" class="graph" transform="scale(1 1) rotate(0) translate(4 546)">
<title>Workflow</title>
<polygon fill="white" stroke="transparent" points="-4,4 -4,-546 690,-546 690,4 -4,4"/>
<text text-anchor="middle" x="343" y="-523.6" font-family="Courier,monospace" font-size="18.00">topic_modeling</text>
<g id="clust1" class="cluster">
<title>cluster_workflow_box_outer</title>
<polygon fill="none" stroke="black" stroke-width="2" points="8,-62 8,-454 678,-454 678,-62 8,-62"/>
</g>
<g id="clust2" class="cluster">
<title>cluster_workflow_box_inner</title>
<polygon fill="none" stroke="white" stroke-width="2" points="16,-70 16,-446 670,-446 670,-70 16,-70"/>
</g>
<g id="clust3" class="cluster">
<title>cluster_input_ports_group_outer</title>
<polygon fill="none" stroke="white" points="517,-462 517,-508 627,-508 627,-462 517,-462"/>
</g>
<g id="clust4" class="cluster">
<title>cluster_input_ports_group_inner</title>
<polygon fill="none" stroke="white" points="525,-470 525,-500 619,-500 619,-470 525,-470"/>
</g>
<g id="clust5" class="cluster">
<title>cluster_output_ports_group_outer</title>
<polygon fill="none" stroke="white" points="303,-8 303,-54 381,-54 381,-8 303,-8"/>
</g>
<g id="clust6" class="cluster">
<title>cluster_output_ports_group_inner</title>
<polygon fill="none" stroke="white" points="311,-16 311,-46 373,-46 373,-16 311,-16"/>
</g>
<!-- ConstructCorpus -->
<g id="node1" class="node">
<title>ConstructCorpus</title>
<polygon fill="#ccffcc" stroke="black" points="23.959,-312.5 23.959,-356.5 544.041,-356.5 544.041,-312.5 23.959,-312.5"/>
<text text-anchor="middle" x="284" y="-341.3" font-family="Courier,monospace" font-size="14.00">ConstructCorpus</text>
<polyline fill="none" stroke="black" points="23.959,-334.5 544.041,-334.5 "/>
<text text-anchor="middle" x="284" y="-319.3" font-family="Courier,monospace" font-size="14.00">Using Gensim to construct training corpus and testing corpus</text>
</g>
<!-- train_corpus -->
<g id="node6" class="node">
<title>train_corpus</title>
<path fill="#ffffcc" stroke="black" d="M217.541,-276C217.541,-276 148.459,-276 148.459,-276 142.459,-276 136.459,-270 136.459,-264 136.459,-264 136.459,-252 136.459,-252 136.459,-246 142.459,-240 148.459,-240 148.459,-240 217.541,-240 217.541,-240 223.541,-240 229.541,-246 229.541,-252 229.541,-252 229.541,-264 229.541,-264 229.541,-270 223.541,-276 217.541,-276"/>
<text text-anchor="middle" x="183" y="-253.8" font-family="Helvetica,sans-Serif" font-size="14.00">train_corpus</text>
</g>
<!-- ConstructCorpus&#45;&gt;train_corpus -->
<g id="edge2" class="edge">
<title>ConstructCorpus&#45;&gt;train_corpus</title>
<path fill="none" stroke="black" d="M254.787,-312.373C242.361,-302.961 227.83,-291.956 215.105,-282.317"/>
<polygon fill="black" stroke="black" points="217.128,-279.459 207.044,-276.211 212.902,-285.039 217.128,-279.459"/>
</g>
<!-- dictionary -->
<g id="node7" class="node">
<title>dictionary</title>
<path fill="#ffffcc" stroke="black" d="M310.917,-276C310.917,-276 259.083,-276 259.083,-276 253.083,-276 247.083,-270 247.083,-264 247.083,-264 247.083,-252 247.083,-252 247.083,-246 253.083,-240 259.083,-240 259.083,-240 310.917,-240 310.917,-240 316.917,-240 322.917,-246 322.917,-252 322.917,-252 322.917,-264 322.917,-264 322.917,-270 316.917,-276 310.917,-276"/>
<text text-anchor="middle" x="285" y="-253.8" font-family="Helvetica,sans-Serif" font-size="14.00">dictionary</text>
</g>
<!-- ConstructCorpus&#45;&gt;dictionary -->
<g id="edge1" class="edge">
<title>ConstructCorpus&#45;&gt;dictionary</title>
<path fill="none" stroke="black" d="M284.289,-312.373C284.396,-304.216 284.518,-294.862 284.631,-286.239"/>
<polygon fill="black" stroke="black" points="288.131,-286.256 284.762,-276.211 281.131,-286.165 288.131,-286.256"/>
</g>
<!-- test_corpus -->
<g id="node8" class="node">
<title>test_corpus</title>
<path fill="#ffffcc" stroke="black" d="M417.373,-276C417.373,-276 352.627,-276 352.627,-276 346.627,-276 340.627,-270 340.627,-264 340.627,-264 340.627,-252 340.627,-252 340.627,-246 346.627,-240 352.627,-240 352.627,-240 417.373,-240 417.373,-240 423.373,-240 429.373,-246 429.373,-252 429.373,-252 429.373,-264 429.373,-264 429.373,-270 423.373,-276 417.373,-276"/>
<text text-anchor="middle" x="385" y="-253.8" font-family="Helvetica,sans-Serif" font-size="14.00">test_corpus</text>
</g>
<!-- ConstructCorpus&#45;&gt;test_corpus -->
<g id="edge3" class="edge">
<title>ConstructCorpus&#45;&gt;test_corpus</title>
<path fill="none" stroke="black" d="M313.213,-312.373C325.639,-302.961 340.17,-291.956 352.895,-282.317"/>
<polygon fill="black" stroke="black" points="355.098,-285.039 360.956,-276.211 350.872,-279.459 355.098,-285.039"/>
</g>
<!-- Train_Predict_Model -->
<g id="node2" class="node">
<title>Train_Predict_Model</title>
<polygon fill="#ccffcc" stroke="black" points="24.1494,-159.5 24.1494,-203.5 661.851,-203.5 661.851,-159.5 24.1494,-159.5"/>
<text text-anchor="middle" x="343" y="-188.3" font-family="Courier,monospace" font-size="14.00">Train_Predict_Model</text>
<polyline fill="none" stroke="black" points="24.1494,-181.5 661.851,-181.5 "/>
<text text-anchor="middle" x="343" y="-166.3" font-family="Courier,monospace" font-size="14.00">Using gensim.LDA to training model and predicting, get the converge number</text>
</g>
<!-- LDA_model -->
<g id="node3" class="node">
<title>LDA_model</title>
<path fill="#ffffcc" stroke="black" d="M231.8,-78.5C231.8,-78.5 338.2,-78.5 338.2,-78.5 344.2,-78.5 350.2,-84.5 350.2,-90.5 350.2,-90.5 350.2,-110.5 350.2,-110.5 350.2,-116.5 344.2,-122.5 338.2,-122.5 338.2,-122.5 231.8,-122.5 231.8,-122.5 225.8,-122.5 219.8,-116.5 219.8,-110.5 219.8,-110.5 219.8,-90.5 219.8,-90.5 219.8,-84.5 225.8,-78.5 231.8,-78.5"/>
<text text-anchor="middle" x="285" y="-107.3" font-family="Helvetica,sans-Serif" font-size="14.00">LDA_model</text>
<polyline fill="none" stroke="black" points="219.8,-100.5 350.2,-100.5 "/>
<text text-anchor="middle" x="285" y="-85.3" font-family="Helvetica,sans-Serif" font-size="14.00">file:LDA_output.txt</text>
</g>
<!-- Train_Predict_Model&#45;&gt;LDA_model -->
<g id="edge7" class="edge">
<title>Train_Predict_Model&#45;&gt;LDA_model</title>
<path fill="none" stroke="black" d="M327.151,-159.366C320.885,-150.616 313.581,-140.414 306.829,-130.985"/>
<polygon fill="black" stroke="black" points="309.497,-128.7 300.83,-122.607 303.806,-132.775 309.497,-128.7"/>
</g>
<!-- run_log -->
<g id="node4" class="node">
<title>run_log</title>
<path fill="#ffffcc" stroke="black" d="M419.204,-118.5C419.204,-118.5 380.796,-118.5 380.796,-118.5 374.796,-118.5 368.796,-112.5 368.796,-106.5 368.796,-106.5 368.796,-94.5 368.796,-94.5 368.796,-88.5 374.796,-82.5 380.796,-82.5 380.796,-82.5 419.204,-82.5 419.204,-82.5 425.204,-82.5 431.204,-88.5 431.204,-94.5 431.204,-94.5 431.204,-106.5 431.204,-106.5 431.204,-112.5 425.204,-118.5 419.204,-118.5"/>
<text text-anchor="middle" x="400" y="-96.3" font-family="Helvetica,sans-Serif" font-size="14.00">run_log</text>
</g>
<!-- Train_Predict_Model&#45;&gt;run_log -->
<g id="edge8" class="edge">
<title>Train_Predict_Model&#45;&gt;run_log</title>
<path fill="none" stroke="black" d="M358.576,-159.366C365.631,-149.339 374.028,-137.407 381.412,-126.915"/>
<polygon fill="black" stroke="black" points="384.431,-128.707 387.323,-118.514 378.706,-124.678 384.431,-128.707"/>
</g>
<!-- LDA_model_output_port -->
<g id="node16" class="node">
<title>LDA_model_output_port</title>
<ellipse fill="#ffffff" stroke="black" cx="326" cy="-31" rx="7" ry="7"/>
</g>
<!-- LDA_model&#45;&gt;LDA_model_output_port -->
<g id="edge17" class="edge">
<title>LDA_model&#45;&gt;LDA_model_output_port</title>
<path fill="none" stroke="black" d="M298.198,-78.1272C304.387,-67.6363 311.597,-55.4143 317.124,-46.0459"/>
<polygon fill="black" stroke="black" points="320.266,-47.6087 322.332,-37.2173 314.237,-44.0519 320.266,-47.6087"/>
</g>
<!-- run_log_output_port -->
<g id="node17" class="node">
<title>run_log_output_port</title>
<ellipse fill="#ffffff" stroke="black" cx="358" cy="-31" rx="7" ry="7"/>
</g>
<!-- run_log&#45;&gt;run_log_output_port -->
<g id="edge18" class="edge">
<title>run_log&#45;&gt;run_log_output_port</title>
<path fill="none" stroke="black" d="M388.965,-82.2397C382.113,-70.902 373.419,-56.5156 366.989,-45.8748"/>
<polygon fill="black" stroke="black" points="369.819,-43.7907 361.651,-37.0423 363.828,-47.4112 369.819,-43.7907"/>
</g>
<!-- Static_text -->
<g id="node5" class="node">
<title>Static_text</title>
<path fill="#ffffcc" stroke="black" d="M404.207,-393.5C404.207,-393.5 481.793,-393.5 481.793,-393.5 487.793,-393.5 493.793,-399.5 493.793,-405.5 493.793,-405.5 493.793,-425.5 493.793,-425.5 493.793,-431.5 487.793,-437.5 481.793,-437.5 481.793,-437.5 404.207,-437.5 404.207,-437.5 398.207,-437.5 392.207,-431.5 392.207,-425.5 392.207,-425.5 392.207,-405.5 392.207,-405.5 392.207,-399.5 398.207,-393.5 404.207,-393.5"/>
<text text-anchor="middle" x="443" y="-422.3" font-family="Helvetica,sans-Serif" font-size="14.00">Static_text</text>
<polyline fill="none" stroke="black" points="392.207,-415.5 493.793,-415.5 "/>
<text text-anchor="middle" x="443" y="-400.3" font-family="Helvetica,sans-Serif" font-size="14.00">file:../../nipstxt</text>
</g>
<!-- Static_text&#45;&gt;ConstructCorpus -->
<g id="edge4" class="edge">
<title>Static_text&#45;&gt;ConstructCorpus</title>
<path fill="none" stroke="black" d="M399.553,-393.366C380.097,-383.455 356.987,-371.682 336.566,-361.279"/>
<polygon fill="black" stroke="black" points="337.894,-358.028 327.395,-356.607 334.717,-364.265 337.894,-358.028"/>
</g>
<!-- train_corpus&#45;&gt;Train_Predict_Model -->
<g id="edge9" class="edge">
<title>train_corpus&#45;&gt;Train_Predict_Model</title>
<path fill="none" stroke="black" d="M220.918,-239.871C240.809,-230.36 265.553,-218.529 287.553,-208.011"/>
<polygon fill="black" stroke="black" points="289.28,-211.065 296.792,-203.593 286.26,-204.749 289.28,-211.065"/>
</g>
<!-- dictionary&#45;&gt;Train_Predict_Model -->
<g id="edge10" class="edge">
<title>dictionary&#45;&gt;Train_Predict_Model</title>
<path fill="none" stroke="black" d="M298.745,-239.871C305.119,-231.464 312.867,-221.245 320.088,-211.721"/>
<polygon fill="black" stroke="black" points="322.997,-213.677 326.25,-203.593 317.419,-209.447 322.997,-213.677"/>
</g>
<!-- test_corpus&#45;&gt;Train_Predict_Model -->
<g id="edge11" class="edge">
<title>test_corpus&#45;&gt;Train_Predict_Model</title>
<path fill="none" stroke="black" d="M375.047,-239.871C370.571,-231.719 365.16,-221.862 360.068,-212.588"/>
<polygon fill="black" stroke="black" points="363.01,-210.675 355.13,-203.593 356.874,-214.044 363.01,-210.675"/>
</g>
<!-- num_iteration -->
<g id="node9" class="node">
<title>num_iteration</title>
<path fill="#fcfcfc" stroke="black" d="M647.327,-276C647.327,-276 570.673,-276 570.673,-276 564.673,-276 558.673,-270 558.673,-264 558.673,-264 558.673,-252 558.673,-252 558.673,-246 564.673,-240 570.673,-240 570.673,-240 647.327,-240 647.327,-240 653.327,-240 659.327,-246 659.327,-252 659.327,-252 659.327,-264 659.327,-264 659.327,-270 653.327,-276 647.327,-276"/>
<text text-anchor="middle" x="609" y="-253.8" font-family="Helvetica,sans-Serif" font-size="14.00">num_iteration</text>
</g>
<!-- num_iteration&#45;&gt;Train_Predict_Model -->
<g id="edge12" class="edge">
<title>num_iteration&#45;&gt;Train_Predict_Model</title>
<path fill="none" stroke="black" d="M558.415,-243.035C554.891,-242.005 551.393,-240.985 548,-240 509.662,-228.874 467.239,-216.738 430.979,-206.419"/>
<polygon fill="black" stroke="black" points="431.499,-202.929 420.923,-203.559 429.584,-209.662 431.499,-202.929"/>
</g>
<!-- num_topics -->
<g id="node10" class="node">
<title>num_topics</title>
<path fill="#fcfcfc" stroke="black" d="M526.594,-276C526.594,-276 463.406,-276 463.406,-276 457.406,-276 451.406,-270 451.406,-264 451.406,-264 451.406,-252 451.406,-252 451.406,-246 457.406,-240 463.406,-240 463.406,-240 526.594,-240 526.594,-240 532.594,-240 538.594,-246 538.594,-252 538.594,-252 538.594,-264 538.594,-264 538.594,-270 532.594,-276 526.594,-276"/>
<text text-anchor="middle" x="495" y="-253.8" font-family="Helvetica,sans-Serif" font-size="14.00">num_topics</text>
</g>
<!-- num_topics&#45;&gt;Train_Predict_Model -->
<g id="edge13" class="edge">
<title>num_topics&#45;&gt;Train_Predict_Model</title>
<path fill="none" stroke="black" d="M458.978,-239.871C440.166,-230.402 416.785,-218.635 395.955,-208.151"/>
<polygon fill="black" stroke="black" points="397.404,-204.963 386.898,-203.593 394.257,-211.215 397.404,-204.963"/>
</g>
<!-- stopwords -->
<g id="node11" class="node">
<title>stopwords</title>
<path fill="#fcfcfc" stroke="black" d="M336.807,-433.5C336.807,-433.5 281.193,-433.5 281.193,-433.5 275.193,-433.5 269.193,-427.5 269.193,-421.5 269.193,-421.5 269.193,-409.5 269.193,-409.5 269.193,-403.5 275.193,-397.5 281.193,-397.5 281.193,-397.5 336.807,-397.5 336.807,-397.5 342.807,-397.5 348.807,-403.5 348.807,-409.5 348.807,-409.5 348.807,-421.5 348.807,-421.5 348.807,-427.5 342.807,-433.5 336.807,-433.5"/>
<text text-anchor="middle" x="309" y="-411.3" font-family="Helvetica,sans-Serif" font-size="14.00">stopwords</text>
</g>
<!-- stopwords&#45;&gt;ConstructCorpus -->
<g id="edge5" class="edge">
<title>stopwords&#45;&gt;ConstructCorpus</title>
<path fill="none" stroke="black" d="M303.327,-397.12C300.51,-387.994 297.027,-376.706 293.796,-366.239"/>
<polygon fill="black" stroke="black" points="297.1,-365.075 290.806,-356.552 290.411,-367.139 297.1,-365.075"/>
</g>
<!-- regular_expression -->
<g id="node12" class="node">
<title>regular_expression</title>
<path fill="#fcfcfc" stroke="black" d="M239.568,-433.5C239.568,-433.5 128.432,-433.5 128.432,-433.5 122.432,-433.5 116.432,-427.5 116.432,-421.5 116.432,-421.5 116.432,-409.5 116.432,-409.5 116.432,-403.5 122.432,-397.5 128.432,-397.5 128.432,-397.5 239.568,-397.5 239.568,-397.5 245.568,-397.5 251.568,-403.5 251.568,-409.5 251.568,-409.5 251.568,-421.5 251.568,-421.5 251.568,-427.5 245.568,-433.5 239.568,-433.5"/>
<text text-anchor="middle" x="184" y="-411.3" font-family="Helvetica,sans-Serif" font-size="14.00">regular_expression</text>
</g>
<!-- regular_expression&#45;&gt;ConstructCorpus -->
<g id="edge6" class="edge">
<title>regular_expression&#45;&gt;ConstructCorpus</title>
<path fill="none" stroke="black" d="M206.692,-397.12C219.12,-387.053 234.795,-374.356 248.777,-363.031"/>
<polygon fill="black" stroke="black" points="251.208,-365.566 256.776,-356.552 246.802,-360.126 251.208,-365.566"/>
</g>
<!-- Static_text_input_port -->
<g id="node13" class="node">
<title>Static_text_input_port</title>
<ellipse fill="#ffffff" stroke="black" cx="540" cy="-485" rx="7" ry="7"/>
</g>
<!-- Static_text_input_port&#45;&gt;Static_text -->
<g id="edge14" class="edge">
<title>Static_text_input_port&#45;&gt;Static_text</title>
<path fill="none" stroke="black" d="M534.223,-480.861C524.016,-473.548 501.994,-457.769 482.145,-443.547"/>
<polygon fill="black" stroke="black" points="483.98,-440.556 473.812,-437.577 479.903,-446.246 483.98,-440.556"/>
</g>
<!-- num_topics_input_port -->
<g id="node14" class="node">
<title>num_topics_input_port</title>
<ellipse fill="#ffffff" stroke="black" cx="572" cy="-485" rx="7" ry="7"/>
</g>
<!-- num_topics_input_port&#45;&gt;num_topics -->
<g id="edge15" class="edge">
<title>num_topics_input_port&#45;&gt;num_topics</title>
<path fill="none" stroke="black" d="M572.898,-477.921C575.677,-453.389 582.281,-370.328 553,-312 547.454,-300.953 538.658,-291.009 529.575,-282.754"/>
<polygon fill="black" stroke="black" points="531.818,-280.068 521.943,-276.23 527.27,-285.389 531.818,-280.068"/>
</g>
<!-- num_iteration_input_port -->
<g id="node15" class="node">
<title>num_iteration_input_port</title>
<ellipse fill="#ffffff" stroke="black" cx="604" cy="-485" rx="7" ry="7"/>
</g>
<!-- num_iteration_input_port&#45;&gt;num_iteration -->
<g id="edge16" class="edge">
<title>num_iteration_input_port&#45;&gt;num_iteration</title>
<path fill="none" stroke="black" d="M604.155,-477.957C604.791,-449.103 607.217,-338.965 608.376,-286.333"/>
<polygon fill="black" stroke="black" points="611.882,-286.099 608.603,-276.024 604.884,-285.945 611.882,-286.099"/>
</g>
</g>
</svg>
