<?xml version="1.0" encoding="UTF-8" standalone="no"?>
<!DOCTYPE svg PUBLIC "-//W3C//DTD SVG 1.1//EN"
 "http://www.w3.org/Graphics/SVG/1.1/DTD/svg11.dtd">
<!-- Generated by graphviz version 2.39.20160823.1445 (20160823.1445)
 -->
<!-- Title: yw_data_view Pages: 1 -->
<svg width="208pt" height="316pt"
 viewBox="0.00 0.00 208.00 316.00" xmlns="http://www.w3.org/2000/svg" xmlns:xlink="http://www.w3.org/1999/xlink">
<g id="graph0" class="graph" transform="scale(1 1) rotate(0) translate(4 312)">
<title>yw_data_view</title>
<polygon fill="white" stroke="transparent" points="-4,4 -4,-312 204,-312 204,4 -4,4"/>
<text text-anchor="middle" x="100" y="-289.6" font-family="Courier,monospace" font-size="18.00">topic_modeling</text>
<g id="clust1" class="cluster">
<title>cluster_workflow</title>
<polygon fill="none" stroke="black" stroke-width="2" points="8,-62 8,-274 192,-274 192,-62 8,-62"/>
</g>
<g id="clust2" class="cluster">
<title>cluster_workflow_inner</title>
<polygon fill="none" stroke="white" stroke-width="2" points="16,-70 16,-266 184,-266 184,-70 16,-70"/>
</g>
<g id="clust5" class="cluster">
<title>cluster_outflows</title>
<polygon fill="none" stroke="white" stroke-width="2" points="77,-8 77,-54 123,-54 123,-8 77,-8"/>
</g>
<g id="clust6" class="cluster">
<title>cluster_outflows_inner</title>
<polygon fill="none" stroke="white" stroke-width="2" points="85,-16 85,-46 115,-46 115,-16 85,-16"/>
</g>
<!-- LDA -->
<g id="node1" class="node">
<title>LDA</title>
<polygon fill="#ccffcc" stroke="black" points="127,-186 73,-186 73,-150 127,-150 127,-186"/>
<text text-anchor="middle" x="100" y="-163.8" font-family="Courier,monospace" font-size="14.00">LDA</text>
</g>
<!-- Topicmodeling_Result -->
<g id="node3" class="node">
<title>Topicmodeling_Result</title>
<path fill="#ffffcc" stroke="black" d="M164.465,-114C164.465,-114 35.5352,-114 35.5352,-114 29.5352,-114 23.5352,-108 23.5352,-102 23.5352,-102 23.5352,-90 23.5352,-90 23.5352,-84 29.5352,-78 35.5352,-78 35.5352,-78 164.465,-78 164.465,-78 170.465,-78 176.465,-84 176.465,-90 176.465,-90 176.465,-102 176.465,-102 176.465,-108 170.465,-114 164.465,-114"/>
<text text-anchor="middle" x="100" y="-91.8" font-family="Helvetica,sans-Serif" font-size="14.00">Topicmodeling_Result</text>
</g>
<!-- LDA&#45;&gt;Topicmodeling_Result -->
<g id="edge1" class="edge">
<title>LDA&#45;&gt;Topicmodeling_Result</title>
<path fill="none" stroke="black" d="M100,-149.831C100,-142.131 100,-132.974 100,-124.417"/>
<polygon fill="black" stroke="black" points="103.5,-124.413 100,-114.413 96.5001,-124.413 103.5,-124.413"/>
</g>
<!-- FileProcess -->
<g id="node2" class="node">
<title>FileProcess</title>
<path fill="#ffffcc" stroke="black" d="M132.631,-258C132.631,-258 67.369,-258 67.369,-258 61.369,-258 55.369,-252 55.369,-246 55.369,-246 55.369,-234 55.369,-234 55.369,-228 61.369,-222 67.369,-222 67.369,-222 132.631,-222 132.631,-222 138.631,-222 144.631,-228 144.631,-234 144.631,-234 144.631,-246 144.631,-246 144.631,-252 138.631,-258 132.631,-258"/>
<text text-anchor="middle" x="100" y="-235.8" font-family="Helvetica,sans-Serif" font-size="14.00">FileProcess</text>
</g>
<!-- FileProcess&#45;&gt;LDA -->
<g id="edge2" class="edge">
<title>FileProcess&#45;&gt;LDA</title>
<path fill="none" stroke="black" d="M100,-221.831C100,-214.131 100,-204.974 100,-196.417"/>
<polygon fill="black" stroke="black" points="103.5,-196.413 100,-186.413 96.5001,-196.413 103.5,-196.413"/>
</g>
<!-- Topicmodeling_Result_outflow -->
<g id="node4" class="node">
<title>Topicmodeling_Result_outflow</title>
<ellipse fill="none" stroke="black" cx="100" cy="-31" rx="7" ry="7"/>
</g>
<!-- Topicmodeling_Result&#45;&gt;Topicmodeling_Result_outflow -->
<g id="edge3" class="edge">
<title>Topicmodeling_Result&#45;&gt;Topicmodeling_Result_outflow</title>
<path fill="none" stroke="black" d="M100,-77.8939C100,-68.5967 100,-57.3301 100,-48.1707"/>
<polygon fill="black" stroke="black" points="103.5,-48.0024 100,-38.0024 96.5001,-48.0025 103.5,-48.0024"/>
</g>
</g>
</svg>
