<?xml version="1.0" encoding="UTF-8" standalone="no"?>
<!DOCTYPE svg PUBLIC "-//W3C//DTD SVG 1.1//EN"
 "http://www.w3.org/Graphics/SVG/1.1/DTD/svg11.dtd">
<!-- Generated by graphviz version 2.39.20160823.1445 (20160823.1445)
 -->
<!-- Title: yw_data_view Pages: 1 -->
<svg width="232pt" height="316pt"
 viewBox="0.00 0.00 232.00 316.00" xmlns="http://www.w3.org/2000/svg" xmlns:xlink="http://www.w3.org/1999/xlink">
<g id="graph0" class="graph" transform="scale(1 1) rotate(0) translate(4 312)">
<title>yw_data_view</title>
<polygon fill="white" stroke="transparent" points="-4,4 -4,-312 228,-312 228,4 -4,4"/>
<text text-anchor="middle" x="112" y="-289.6" font-family="Courier,monospace" font-size="18.00">topic_modeling</text>
<g id="clust5" class="cluster">
<title>cluster_outflows</title>
<polygon fill="none" stroke="white" stroke-width="2" points="80,-8 80,-54 158,-54 158,-8 80,-8"/>
</g>
<g id="clust6" class="cluster">
<title>cluster_outflows_inner</title>
<polygon fill="none" stroke="white" stroke-width="2" points="88,-16 88,-46 150,-46 150,-16 88,-16"/>
</g>
<g id="clust1" class="cluster">
<title>cluster_workflow</title>
<polygon fill="none" stroke="black" stroke-width="2" points="8,-62 8,-274 216,-274 216,-62 8,-62"/>
</g>
<g id="clust2" class="cluster">
<title>cluster_workflow_inner</title>
<polygon fill="none" stroke="white" stroke-width="2" points="16,-70 16,-266 208,-266 208,-70 16,-70"/>
</g>
<!-- Train_Predict_Model -->
<g id="node1" class="node">
<title>Train_Predict_Model</title>
<polygon fill="#ccffcc" stroke="black" points="199.626,-186 24.3736,-186 24.3736,-150 199.626,-150 199.626,-186"/>
<text text-anchor="middle" x="112" y="-163.8" font-family="Courier,monospace" font-size="14.00">Train_Predict_Model</text>
</g>
<!-- LDA_model -->
<g id="node3" class="node">
<title>LDA_model</title>
<path fill="#ffffcc" stroke="black" d="M104.651,-114C104.651,-114 39.3485,-114 39.3485,-114 33.3485,-114 27.3485,-108 27.3485,-102 27.3485,-102 27.3485,-90 27.3485,-90 27.3485,-84 33.3485,-78 39.3485,-78 39.3485,-78 104.651,-78 104.651,-78 110.651,-78 116.651,-84 116.651,-90 116.651,-90 116.651,-102 116.651,-102 116.651,-108 110.651,-114 104.651,-114"/>
<text text-anchor="middle" x="72" y="-91.8" font-family="Helvetica,sans-Serif" font-size="14.00">LDA_model</text>
</g>
<!-- Train_Predict_Model&#45;&gt;LDA_model -->
<g id="edge2" class="edge">
<title>Train_Predict_Model&#45;&gt;LDA_model</title>
<path fill="none" stroke="black" d="M101.906,-149.831C97.4403,-141.792 92.0925,-132.167 87.1621,-123.292"/>
<polygon fill="black" stroke="black" points="90.1456,-121.455 82.2296,-114.413 84.0265,-124.855 90.1456,-121.455"/>
</g>
<!-- run_log -->
<g id="node4" class="node">
<title>run_log</title>
<path fill="#ffffcc" stroke="black" d="M185.204,-114C185.204,-114 146.796,-114 146.796,-114 140.796,-114 134.796,-108 134.796,-102 134.796,-102 134.796,-90 134.796,-90 134.796,-84 140.796,-78 146.796,-78 146.796,-78 185.204,-78 185.204,-78 191.204,-78 197.204,-84 197.204,-90 197.204,-90 197.204,-102 197.204,-102 197.204,-108 191.204,-114 185.204,-114"/>
<text text-anchor="middle" x="166" y="-91.8" font-family="Helvetica,sans-Serif" font-size="14.00">run_log</text>
</g>
<!-- Train_Predict_Model&#45;&gt;run_log -->
<g id="edge1" class="edge">
<title>Train_Predict_Model&#45;&gt;run_log</title>
<path fill="none" stroke="black" d="M125.626,-149.831C131.846,-141.539 139.332,-131.557 146.16,-122.453"/>
<polygon fill="black" stroke="black" points="148.99,-124.513 152.19,-114.413 143.39,-120.313 148.99,-124.513"/>
</g>
<!-- train_corpus -->
<g id="node2" class="node">
<title>train_corpus</title>
<path fill="#ffffcc" stroke="black" d="M146.541,-258C146.541,-258 77.459,-258 77.459,-258 71.459,-258 65.459,-252 65.459,-246 65.459,-246 65.459,-234 65.459,-234 65.459,-228 71.459,-222 77.459,-222 77.459,-222 146.541,-222 146.541,-222 152.541,-222 158.541,-228 158.541,-234 158.541,-234 158.541,-246 158.541,-246 158.541,-252 152.541,-258 146.541,-258"/>
<text text-anchor="middle" x="112" y="-235.8" font-family="Helvetica,sans-Serif" font-size="14.00">train_corpus</text>
</g>
<!-- train_corpus&#45;&gt;Train_Predict_Model -->
<g id="edge3" class="edge">
<title>train_corpus&#45;&gt;Train_Predict_Model</title>
<path fill="none" stroke="black" d="M112,-221.831C112,-214.131 112,-204.974 112,-196.417"/>
<polygon fill="black" stroke="black" points="115.5,-196.413 112,-186.413 108.5,-196.413 115.5,-196.413"/>
</g>
<!-- LDA_model_outflow -->
<g id="node6" class="node">
<title>LDA_model_outflow</title>
<ellipse fill="none" stroke="black" cx="103" cy="-31" rx="7" ry="7"/>
</g>
<!-- LDA_model&#45;&gt;LDA_model_outflow -->
<g id="edge5" class="edge">
<title>LDA_model&#45;&gt;LDA_model_outflow</title>
<path fill="none" stroke="black" d="M80.6352,-77.8939C85.3212,-68.0684 91.0562,-56.0435 95.5454,-46.6305"/>
<polygon fill="black" stroke="black" points="98.8166,-47.9021 99.9623,-37.3694 92.4984,-44.8888 98.8166,-47.9021"/>
</g>
<!-- run_log_outflow -->
<g id="node5" class="node">
<title>run_log_outflow</title>
<ellipse fill="none" stroke="black" cx="135" cy="-31" rx="7" ry="7"/>
</g>
<!-- run_log&#45;&gt;run_log_outflow -->
<g id="edge4" class="edge">
<title>run_log&#45;&gt;run_log_outflow</title>
<path fill="none" stroke="black" d="M157.365,-77.8939C152.679,-68.0684 146.944,-56.0435 142.455,-46.6305"/>
<polygon fill="black" stroke="black" points="145.502,-44.8888 138.038,-37.3694 139.183,-47.9021 145.502,-44.8888"/>
</g>
</g>
</svg>
