<?xml version="1.0" encoding="UTF-8" standalone="no"?>
<!DOCTYPE svg PUBLIC "-//W3C//DTD SVG 1.1//EN"
 "http://www.w3.org/Graphics/SVG/1.1/DTD/svg11.dtd">
<!-- Generated by graphviz version 2.39.20160823.1445 (20160823.1445)
 -->
<!-- Title: yw_data_view Pages: 1 -->
<svg width="349pt" height="514pt"
 viewBox="0.00 0.00 349.00 514.00" xmlns="http://www.w3.org/2000/svg" xmlns:xlink="http://www.w3.org/1999/xlink">
<g id="graph0" class="graph" transform="scale(1 1) rotate(0) translate(4 510)">
<title>yw_data_view</title>
<polygon fill="white" stroke="transparent" points="-4,4 -4,-510 345,-510 345,4 -4,4"/>
<text text-anchor="middle" x="170.5" y="-487.6" font-family="Courier,monospace" font-size="18.00">topic_modeling</text>
<g id="clust1" class="cluster">
<title>cluster_workflow</title>
<polygon fill="none" stroke="black" stroke-width="2" points="8,-62 8,-418 333,-418 333,-62 8,-62"/>
</g>
<g id="clust2" class="cluster">
<title>cluster_workflow_inner</title>
<polygon fill="none" stroke="white" stroke-width="2" points="16,-70 16,-410 325,-410 325,-70 16,-70"/>
</g>
<g id="clust3" class="cluster">
<title>cluster_inflows</title>
<polygon fill="none" stroke="white" stroke-width="2" points="141,-426 141,-472 187,-472 187,-426 141,-426"/>
</g>
<g id="clust4" class="cluster">
<title>cluster_inflows_inner</title>
<polygon fill="none" stroke="white" stroke-width="2" points="149,-434 149,-464 179,-464 179,-434 149,-434"/>
</g>
<g id="clust5" class="cluster">
<title>cluster_outflows</title>
<polygon fill="none" stroke="white" stroke-width="2" points="125,-8 125,-54 203,-54 203,-8 125,-8"/>
</g>
<g id="clust6" class="cluster">
<title>cluster_outflows_inner</title>
<polygon fill="none" stroke="white" stroke-width="2" points="133,-16 133,-46 195,-46 195,-16 133,-16"/>
</g>
<!-- Train_Predict_Model -->
<g id="node1" class="node">
<title>Train_Predict_Model</title>
<polygon fill="#ccffcc" stroke="black" points="251.626,-186 76.3736,-186 76.3736,-150 251.626,-150 251.626,-186"/>
<text text-anchor="middle" x="164" y="-163.8" font-family="Courier,monospace" font-size="14.00">Train_Predict_Model</text>
</g>
<!-- LDA_model -->
<g id="node7" class="node">
<title>LDA_model</title>
<path fill="#ffffcc" stroke="black" d="M149.651,-114C149.651,-114 84.3485,-114 84.3485,-114 78.3485,-114 72.3485,-108 72.3485,-102 72.3485,-102 72.3485,-90 72.3485,-90 72.3485,-84 78.3485,-78 84.3485,-78 84.3485,-78 149.651,-78 149.651,-78 155.651,-78 161.651,-84 161.651,-90 161.651,-90 161.651,-102 161.651,-102 161.651,-108 155.651,-114 149.651,-114"/>
<text text-anchor="middle" x="117" y="-91.8" font-family="Helvetica,sans-Serif" font-size="14.00">LDA_model</text>
</g>
<!-- Train_Predict_Model&#45;&gt;LDA_model -->
<g id="edge2" class="edge">
<title>Train_Predict_Model&#45;&gt;LDA_model</title>
<path fill="none" stroke="black" d="M152.14,-149.831C146.837,-141.708 140.476,-131.964 134.633,-123.012"/>
<polygon fill="black" stroke="black" points="137.417,-120.874 129.02,-114.413 131.555,-124.7 137.417,-120.874"/>
</g>
<!-- run_log -->
<g id="node8" class="node">
<title>run_log</title>
<path fill="#ffffcc" stroke="black" d="M230.204,-114C230.204,-114 191.796,-114 191.796,-114 185.796,-114 179.796,-108 179.796,-102 179.796,-102 179.796,-90 179.796,-90 179.796,-84 185.796,-78 191.796,-78 191.796,-78 230.204,-78 230.204,-78 236.204,-78 242.204,-84 242.204,-90 242.204,-90 242.204,-102 242.204,-102 242.204,-108 236.204,-114 230.204,-114"/>
<text text-anchor="middle" x="211" y="-91.8" font-family="Helvetica,sans-Serif" font-size="14.00">run_log</text>
</g>
<!-- Train_Predict_Model&#45;&gt;run_log -->
<g id="edge1" class="edge">
<title>Train_Predict_Model&#45;&gt;run_log</title>
<path fill="none" stroke="black" d="M175.86,-149.831C181.163,-141.708 187.524,-131.964 193.367,-123.012"/>
<polygon fill="black" stroke="black" points="196.445,-124.7 198.98,-114.413 190.583,-120.874 196.445,-124.7"/>
</g>
<!-- ConstructCorpus -->
<g id="node2" class="node">
<title>ConstructCorpus</title>
<polygon fill="#ccffcc" stroke="black" points="235.021,-330 92.9795,-330 92.9795,-294 235.021,-294 235.021,-330"/>
<text text-anchor="middle" x="164" y="-307.8" font-family="Courier,monospace" font-size="14.00">ConstructCorpus</text>
</g>
<!-- dictionary -->
<g id="node4" class="node">
<title>dictionary</title>
<path fill="#ffffcc" stroke="black" d="M87.917,-258C87.917,-258 36.083,-258 36.083,-258 30.083,-258 24.083,-252 24.083,-246 24.083,-246 24.083,-234 24.083,-234 24.083,-228 30.083,-222 36.083,-222 36.083,-222 87.917,-222 87.917,-222 93.917,-222 99.917,-228 99.917,-234 99.917,-234 99.917,-246 99.917,-246 99.917,-252 93.917,-258 87.917,-258"/>
<text text-anchor="middle" x="62" y="-235.8" font-family="Helvetica,sans-Serif" font-size="14.00">dictionary</text>
</g>
<!-- ConstructCorpus&#45;&gt;dictionary -->
<g id="edge5" class="edge">
<title>ConstructCorpus&#45;&gt;dictionary</title>
<path fill="none" stroke="black" d="M138.261,-293.831C125.456,-284.793 109.809,-273.748 96.0281,-264.02"/>
<polygon fill="black" stroke="black" points="97.9188,-261.07 87.7307,-258.163 93.882,-266.789 97.9188,-261.07"/>
</g>
<!-- train_corpus -->
<g id="node5" class="node">
<title>train_corpus</title>
<path fill="#ffffcc" stroke="black" d="M198.541,-258C198.541,-258 129.459,-258 129.459,-258 123.459,-258 117.459,-252 117.459,-246 117.459,-246 117.459,-234 117.459,-234 117.459,-228 123.459,-222 129.459,-222 129.459,-222 198.541,-222 198.541,-222 204.541,-222 210.541,-228 210.541,-234 210.541,-234 210.541,-246 210.541,-246 210.541,-252 204.541,-258 198.541,-258"/>
<text text-anchor="middle" x="164" y="-235.8" font-family="Helvetica,sans-Serif" font-size="14.00">train_corpus</text>
</g>
<!-- ConstructCorpus&#45;&gt;train_corpus -->
<g id="edge4" class="edge">
<title>ConstructCorpus&#45;&gt;train_corpus</title>
<path fill="none" stroke="black" d="M164,-293.831C164,-286.131 164,-276.974 164,-268.417"/>
<polygon fill="black" stroke="black" points="167.5,-268.413 164,-258.413 160.5,-268.413 167.5,-268.413"/>
</g>
<!-- test_corpus -->
<g id="node6" class="node">
<title>test_corpus</title>
<path fill="#ffffcc" stroke="black" d="M305.373,-258C305.373,-258 240.627,-258 240.627,-258 234.627,-258 228.627,-252 228.627,-246 228.627,-246 228.627,-234 228.627,-234 228.627,-228 234.627,-222 240.627,-222 240.627,-222 305.373,-222 305.373,-222 311.373,-222 317.373,-228 317.373,-234 317.373,-234 317.373,-246 317.373,-246 317.373,-252 311.373,-258 305.373,-258"/>
<text text-anchor="middle" x="273" y="-235.8" font-family="Helvetica,sans-Serif" font-size="14.00">test_corpus</text>
</g>
<!-- ConstructCorpus&#45;&gt;test_corpus -->
<g id="edge3" class="edge">
<title>ConstructCorpus&#45;&gt;test_corpus</title>
<path fill="none" stroke="black" d="M191.505,-293.831C205.318,-284.707 222.226,-273.539 237.053,-263.745"/>
<polygon fill="black" stroke="black" points="239.089,-266.595 245.503,-258.163 235.23,-260.754 239.089,-266.595"/>
</g>
<!-- Static_text -->
<g id="node3" class="node">
<title>Static_text</title>
<path fill="#ffffcc" stroke="black" d="M192.866,-402C192.866,-402 135.134,-402 135.134,-402 129.134,-402 123.134,-396 123.134,-390 123.134,-390 123.134,-378 123.134,-378 123.134,-372 129.134,-366 135.134,-366 135.134,-366 192.866,-366 192.866,-366 198.866,-366 204.866,-372 204.866,-378 204.866,-378 204.866,-390 204.866,-390 204.866,-396 198.866,-402 192.866,-402"/>
<text text-anchor="middle" x="164" y="-379.8" font-family="Helvetica,sans-Serif" font-size="14.00">Static_text</text>
</g>
<!-- Static_text&#45;&gt;ConstructCorpus -->
<g id="edge6" class="edge">
<title>Static_text&#45;&gt;ConstructCorpus</title>
<path fill="none" stroke="black" d="M164,-365.831C164,-358.131 164,-348.974 164,-340.417"/>
<polygon fill="black" stroke="black" points="167.5,-340.413 164,-330.413 160.5,-340.413 167.5,-340.413"/>
</g>
<!-- dictionary&#45;&gt;Train_Predict_Model -->
<g id="edge7" class="edge">
<title>dictionary&#45;&gt;Train_Predict_Model</title>
<path fill="none" stroke="black" d="M87.7389,-221.831C100.544,-212.793 116.191,-201.748 129.972,-192.02"/>
<polygon fill="black" stroke="black" points="132.118,-194.789 138.269,-186.163 128.081,-189.07 132.118,-194.789"/>
</g>
<!-- train_corpus&#45;&gt;Train_Predict_Model -->
<g id="edge8" class="edge">
<title>train_corpus&#45;&gt;Train_Predict_Model</title>
<path fill="none" stroke="black" d="M164,-221.831C164,-214.131 164,-204.974 164,-196.417"/>
<polygon fill="black" stroke="black" points="167.5,-196.413 164,-186.413 160.5,-196.413 167.5,-196.413"/>
</g>
<!-- test_corpus&#45;&gt;Train_Predict_Model -->
<g id="edge9" class="edge">
<title>test_corpus&#45;&gt;Train_Predict_Model</title>
<path fill="none" stroke="black" d="M245.495,-221.831C231.682,-212.707 214.774,-201.539 199.947,-191.745"/>
<polygon fill="black" stroke="black" points="201.77,-188.754 191.497,-186.163 197.911,-194.595 201.77,-188.754"/>
</g>
<!-- LDA_model_outflow -->
<g id="node11" class="node">
<title>LDA_model_outflow</title>
<ellipse fill="none" stroke="black" cx="148" cy="-31" rx="7" ry="7"/>
</g>
<!-- LDA_model&#45;&gt;LDA_model_outflow -->
<g id="edge12" class="edge">
<title>LDA_model&#45;&gt;LDA_model_outflow</title>
<path fill="none" stroke="black" d="M125.635,-77.8939C130.321,-68.0684 136.056,-56.0435 140.545,-46.6305"/>
<polygon fill="black" stroke="black" points="143.817,-47.9021 144.962,-37.3694 137.498,-44.8888 143.817,-47.9021"/>
</g>
<!-- run_log_outflow -->
<g id="node10" class="node">
<title>run_log_outflow</title>
<ellipse fill="none" stroke="black" cx="180" cy="-31" rx="7" ry="7"/>
</g>
<!-- run_log&#45;&gt;run_log_outflow -->
<g id="edge11" class="edge">
<title>run_log&#45;&gt;run_log_outflow</title>
<path fill="none" stroke="black" d="M202.365,-77.8939C197.679,-68.0684 191.944,-56.0435 187.455,-46.6305"/>
<polygon fill="black" stroke="black" points="190.502,-44.8888 183.038,-37.3694 184.183,-47.9021 190.502,-44.8888"/>
</g>
<!-- Static_text_inflow -->
<g id="node9" class="node">
<title>Static_text_inflow</title>
<ellipse fill="none" stroke="black" cx="164" cy="-449" rx="7" ry="7"/>
</g>
<!-- Static_text_inflow&#45;&gt;Static_text -->
<g id="edge10" class="edge">
<title>Static_text_inflow&#45;&gt;Static_text</title>
<path fill="none" stroke="black" d="M164,-441.796C164,-434.582 164,-423.016 164,-412.12"/>
<polygon fill="black" stroke="black" points="167.5,-412.041 164,-402.041 160.5,-412.041 167.5,-412.041"/>
</g>
</g>
</svg>
