<?xml version="1.0" encoding="UTF-8" standalone="no"?>
<!DOCTYPE svg PUBLIC "-//W3C//DTD SVG 1.1//EN"
 "http://www.w3.org/Graphics/SVG/1.1/DTD/svg11.dtd">
<!-- Generated by graphviz version 2.39.20160823.1445 (20160823.1445)
 -->
<!-- Title: yw_data_view Pages: 1 -->
<svg width="443pt" height="516pt"
 viewBox="0.00 0.00 443.00 516.00" xmlns="http://www.w3.org/2000/svg" xmlns:xlink="http://www.w3.org/1999/xlink">
<g id="graph0" class="graph" transform="scale(1 1) rotate(0) translate(4 512)">
<title>yw_data_view</title>
<polygon fill="white" stroke="transparent" points="-4,4 -4,-512 439,-512 439,4 -4,4"/>
<text text-anchor="middle" x="217.5" y="-489.6" font-family="Courier,monospace" font-size="18.00">topic_modeling</text>
<g id="clust1" class="cluster">
<title>cluster_workflow</title>
<polygon fill="none" stroke="black" stroke-width="2" points="8,-62 8,-420 427,-420 427,-62 8,-62"/>
</g>
<g id="clust2" class="cluster">
<title>cluster_workflow_inner</title>
<polygon fill="none" stroke="white" stroke-width="2" points="16,-70 16,-412 419,-412 419,-70 16,-70"/>
</g>
<g id="clust3" class="cluster">
<title>cluster_inflows</title>
<polygon fill="none" stroke="white" stroke-width="2" points="258,-428 258,-474 368,-474 368,-428 258,-428"/>
</g>
<g id="clust4" class="cluster">
<title>cluster_inflows_inner</title>
<polygon fill="none" stroke="white" stroke-width="2" points="266,-436 266,-466 360,-466 360,-436 266,-436"/>
</g>
<g id="clust5" class="cluster">
<title>cluster_outflows</title>
<polygon fill="none" stroke="white" stroke-width="2" points="171,-8 171,-54 249,-54 249,-8 171,-8"/>
</g>
<g id="clust6" class="cluster">
<title>cluster_outflows_inner</title>
<polygon fill="none" stroke="white" stroke-width="2" points="179,-16 179,-46 241,-46 241,-16 179,-16"/>
</g>
<!-- ConstructCorpus -->
<g id="node1" class="node">
<title>ConstructCorpus</title>
<polygon fill="#ccffcc" stroke="black" points="217.021,-331 74.9795,-331 74.9795,-295 217.021,-295 217.021,-331"/>
<text text-anchor="middle" x="146" y="-308.8" font-family="Courier,monospace" font-size="14.00">ConstructCorpus</text>
</g>
<!-- dictionary -->
<g id="node6" class="node">
<title>dictionary</title>
<path fill="#ffffcc" stroke="black" d="M66.0202,-259C66.0202,-259 35.9798,-259 35.9798,-259 29.9798,-259 23.9798,-253 23.9798,-247 23.9798,-247 23.9798,-235 23.9798,-235 23.9798,-229 29.9798,-223 35.9798,-223 35.9798,-223 66.0202,-223 66.0202,-223 72.0202,-223 78.0202,-229 78.0202,-235 78.0202,-235 78.0202,-247 78.0202,-247 78.0202,-253 72.0202,-259 66.0202,-259"/>
<text text-anchor="middle" x="51" y="-238.3" font-family="Helvetica,sans-Serif" font-size="9.00">dictionary</text>
</g>
<!-- ConstructCorpus&#45;&gt;dictionary -->
<g id="edge9" class="edge">
<title>ConstructCorpus&#45;&gt;dictionary</title>
<path fill="none" stroke="black" d="M122.027,-294.831C110.214,-285.878 95.8028,-274.956 83.0565,-265.295"/>
<polygon fill="black" stroke="black" points="85.0486,-262.414 74.9648,-259.163 80.8205,-267.992 85.0486,-262.414"/>
</g>
<!-- train_corpus -->
<g id="node7" class="node">
<title>train_corpus</title>
<path fill="#ffffcc" stroke="black" d="M149.528,-259C149.528,-259 108.472,-259 108.472,-259 102.472,-259 96.4719,-253 96.4719,-247 96.4719,-247 96.4719,-235 96.4719,-235 96.4719,-229 102.472,-223 108.472,-223 108.472,-223 149.528,-223 149.528,-223 155.528,-223 161.528,-229 161.528,-235 161.528,-235 161.528,-247 161.528,-247 161.528,-253 155.528,-259 149.528,-259"/>
<text text-anchor="middle" x="129" y="-238.3" font-family="Helvetica,sans-Serif" font-size="9.00">train_corpus</text>
</g>
<!-- ConstructCorpus&#45;&gt;train_corpus -->
<g id="edge10" class="edge">
<title>ConstructCorpus&#45;&gt;train_corpus</title>
<path fill="none" stroke="black" d="M141.71,-294.831C139.892,-287.131 137.73,-277.974 135.709,-269.417"/>
<polygon fill="black" stroke="black" points="139.052,-268.341 133.348,-259.413 132.239,-269.95 139.052,-268.341"/>
</g>
<!-- test_corpus -->
<g id="node8" class="node">
<title>test_corpus</title>
<path fill="#ffffcc" stroke="black" d="M230.027,-259C230.027,-259 191.973,-259 191.973,-259 185.973,-259 179.973,-253 179.973,-247 179.973,-247 179.973,-235 179.973,-235 179.973,-229 185.973,-223 191.973,-223 191.973,-223 230.027,-223 230.027,-223 236.027,-223 242.027,-229 242.027,-235 242.027,-235 242.027,-247 242.027,-247 242.027,-253 236.027,-259 230.027,-259"/>
<text text-anchor="middle" x="211" y="-238.3" font-family="Helvetica,sans-Serif" font-size="9.00">test_corpus</text>
</g>
<!-- ConstructCorpus&#45;&gt;test_corpus -->
<g id="edge11" class="edge">
<title>ConstructCorpus&#45;&gt;test_corpus</title>
<path fill="none" stroke="black" d="M162.402,-294.831C170.042,-286.369 179.268,-276.149 187.621,-266.897"/>
<polygon fill="black" stroke="black" points="190.274,-269.181 194.377,-259.413 185.078,-264.491 190.274,-269.181"/>
</g>
<!-- Train_Predict_Model -->
<g id="node2" class="node">
<title>Train_Predict_Model</title>
<polygon fill="#ccffcc" stroke="black" points="298.626,-187 123.374,-187 123.374,-151 298.626,-151 298.626,-187"/>
<text text-anchor="middle" x="211" y="-164.8" font-family="Courier,monospace" font-size="14.00">Train_Predict_Model</text>
</g>
<!-- LDA_model -->
<g id="node9" class="node">
<title>LDA_model</title>
<path fill="#ffe4b5" stroke="black" d="M151.696,-78.5C151.696,-78.5 192.304,-78.5 192.304,-78.5 198.304,-78.5 204.304,-84.5 204.304,-90.5 204.304,-90.5 204.304,-102.5 204.304,-102.5 204.304,-108.5 198.304,-114.5 192.304,-114.5 192.304,-114.5 151.696,-114.5 151.696,-114.5 145.696,-114.5 139.696,-108.5 139.696,-102.5 139.696,-102.5 139.696,-90.5 139.696,-90.5 139.696,-84.5 145.696,-78.5 151.696,-78.5"/>
<text text-anchor="middle" x="172" y="-102.8" font-family="Courier,monospace" font-weight="bold" font-size="9.00">LDA_model</text>
<polyline fill="none" stroke="black" points="139.696,-96.5 204.304,-96.5 "/>
<text text-anchor="middle" x="172" y="-84.8" font-family="Courier,monospace" font-weight="bold" font-size="9.00"> </text>
</g>
<!-- Train_Predict_Model&#45;&gt;LDA_model -->
<g id="edge12" class="edge">
<title>Train_Predict_Model&#45;&gt;LDA_model</title>
<path fill="none" stroke="black" d="M201.159,-150.705C196.737,-142.486 191.43,-132.619 186.561,-123.569"/>
<polygon fill="black" stroke="black" points="189.523,-121.686 181.703,-114.538 183.358,-125.003 189.523,-121.686"/>
</g>
<!-- run_log -->
<g id="node10" class="node">
<title>run_log</title>
<path fill="#ffe4b5" stroke="black" d="M234,-78.5C234,-78.5 264,-78.5 264,-78.5 270,-78.5 276,-84.5 276,-90.5 276,-90.5 276,-102.5 276,-102.5 276,-108.5 270,-114.5 264,-114.5 264,-114.5 234,-114.5 234,-114.5 228,-114.5 222,-108.5 222,-102.5 222,-102.5 222,-90.5 222,-90.5 222,-84.5 228,-78.5 234,-78.5"/>
<text text-anchor="middle" x="248.903" y="-102.8" font-family="Courier,monospace" font-weight="bold" font-size="9.00">run_log</text>
<polyline fill="none" stroke="black" points="222,-96.5 275.806,-96.5 "/>
<text text-anchor="middle" x="248.903" y="-84.8" font-family="Courier,monospace" font-weight="bold" font-size="9.00"> </text>
</g>
<!-- Train_Predict_Model&#45;&gt;run_log -->
<g id="edge13" class="edge">
<title>Train_Predict_Model&#45;&gt;run_log</title>
<path fill="none" stroke="black" d="M220.589,-150.705C224.897,-142.486 230.069,-132.619 234.812,-123.569"/>
<polygon fill="black" stroke="black" points="238.003,-125.02 239.546,-114.538 231.803,-121.77 238.003,-125.02"/>
</g>
<!-- Static_text -->
<g id="node3" class="node">
<title>Static_text</title>
<path fill="#ffe4b5" stroke="black" d="M221.295,-367.5C221.295,-367.5 272.705,-367.5 272.705,-367.5 278.705,-367.5 284.705,-373.5 284.705,-379.5 284.705,-379.5 284.705,-391.5 284.705,-391.5 284.705,-397.5 278.705,-403.5 272.705,-403.5 272.705,-403.5 221.295,-403.5 221.295,-403.5 215.295,-403.5 209.295,-397.5 209.295,-391.5 209.295,-391.5 209.295,-379.5 209.295,-379.5 209.295,-373.5 215.295,-367.5 221.295,-367.5"/>
<text text-anchor="middle" x="247" y="-391.8" font-family="Courier,monospace" font-weight="bold" font-size="9.00">Static_text</text>
<polyline fill="none" stroke="black" points="209.295,-385.5 284.705,-385.5 "/>
<text text-anchor="middle" x="247" y="-373.8" font-family="Courier,monospace" font-weight="bold" font-size="9.00"> </text>
</g>
<!-- Static_text&#45;&gt;ConstructCorpus -->
<g id="edge1" class="edge">
<title>Static_text&#45;&gt;ConstructCorpus</title>
<path fill="none" stroke="black" d="M221.774,-367.392C209,-358.223 193.319,-346.967 179.543,-337.078"/>
<polygon fill="black" stroke="black" points="181.419,-334.116 171.254,-331.128 177.337,-339.803 181.419,-334.116"/>
</g>
<!-- stopwords -->
<g id="node4" class="node">
<title>stopwords</title>
<path fill="#ffffcc" stroke="black" d="M179.519,-403.5C179.519,-403.5 146.481,-403.5 146.481,-403.5 140.481,-403.5 134.481,-397.5 134.481,-391.5 134.481,-391.5 134.481,-379.5 134.481,-379.5 134.481,-373.5 140.481,-367.5 146.481,-367.5 146.481,-367.5 179.519,-367.5 179.519,-367.5 185.519,-367.5 191.519,-373.5 191.519,-379.5 191.519,-379.5 191.519,-391.5 191.519,-391.5 191.519,-397.5 185.519,-403.5 179.519,-403.5"/>
<text text-anchor="middle" x="163" y="-382.8" font-family="Helvetica,sans-Serif" font-size="9.00">stopwords</text>
</g>
<!-- stopwords&#45;&gt;ConstructCorpus -->
<g id="edge2" class="edge">
<title>stopwords&#45;&gt;ConstructCorpus</title>
<path fill="none" stroke="black" d="M158.71,-367.205C156.844,-359.245 154.615,-349.741 152.549,-340.929"/>
<polygon fill="black" stroke="black" points="155.92,-339.975 150.23,-331.038 149.105,-341.573 155.92,-339.975"/>
</g>
<!-- regular_expression -->
<g id="node5" class="node">
<title>regular_expression</title>
<path fill="#ffffcc" stroke="black" d="M104.045,-403.5C104.045,-403.5 35.9549,-403.5 35.9549,-403.5 29.9549,-403.5 23.9549,-397.5 23.9549,-391.5 23.9549,-391.5 23.9549,-379.5 23.9549,-379.5 23.9549,-373.5 29.9549,-367.5 35.9549,-367.5 35.9549,-367.5 104.045,-367.5 104.045,-367.5 110.045,-367.5 116.045,-373.5 116.045,-379.5 116.045,-379.5 116.045,-391.5 116.045,-391.5 116.045,-397.5 110.045,-403.5 104.045,-403.5"/>
<text text-anchor="middle" x="70" y="-382.8" font-family="Helvetica,sans-Serif" font-size="9.00">regular_expression</text>
</g>
<!-- regular_expression&#45;&gt;ConstructCorpus -->
<g id="edge3" class="edge">
<title>regular_expression&#45;&gt;ConstructCorpus</title>
<path fill="none" stroke="black" d="M89.178,-367.205C98.4289,-358.38 109.671,-347.656 119.706,-338.083"/>
<polygon fill="black" stroke="black" points="122.272,-340.473 127.091,-331.038 117.44,-335.408 122.272,-340.473"/>
</g>
<!-- dictionary&#45;&gt;Train_Predict_Model -->
<g id="edge4" class="edge">
<title>dictionary&#45;&gt;Train_Predict_Model</title>
<path fill="none" stroke="black" d="M78.052,-227.282C81.0601,-225.814 84.088,-224.361 87,-223 110.359,-212.083 136.495,-200.596 158.727,-191.036"/>
<polygon fill="black" stroke="black" points="160.183,-194.22 167.996,-187.064 157.426,-187.786 160.183,-194.22"/>
</g>
<!-- train_corpus&#45;&gt;Train_Predict_Model -->
<g id="edge5" class="edge">
<title>train_corpus&#45;&gt;Train_Predict_Model</title>
<path fill="none" stroke="black" d="M149.692,-222.831C159.695,-214.048 171.855,-203.371 182.7,-193.849"/>
<polygon fill="black" stroke="black" points="185.109,-196.391 190.315,-187.163 180.491,-191.131 185.109,-196.391"/>
</g>
<!-- test_corpus&#45;&gt;Train_Predict_Model -->
<g id="edge6" class="edge">
<title>test_corpus&#45;&gt;Train_Predict_Model</title>
<path fill="none" stroke="black" d="M211,-222.831C211,-215.131 211,-205.974 211,-197.417"/>
<polygon fill="black" stroke="black" points="214.5,-197.413 211,-187.413 207.5,-197.413 214.5,-197.413"/>
</g>
<!-- LDA_model_outflow -->
<g id="node17" class="node">
<title>LDA_model_outflow</title>
<ellipse fill="none" stroke="black" cx="194" cy="-31" rx="7" ry="7"/>
</g>
<!-- LDA_model&#45;&gt;LDA_model_outflow -->
<g id="edge18" class="edge">
<title>LDA_model&#45;&gt;LDA_model_outflow</title>
<path fill="none" stroke="black" d="M178.128,-78.2546C181.381,-68.5689 185.347,-56.762 188.501,-47.3732"/>
<polygon fill="black" stroke="black" points="191.872,-48.3283 191.738,-37.7343 185.236,-46.0994 191.872,-48.3283"/>
</g>
<!-- run_log_outflow -->
<g id="node16" class="node">
<title>run_log_outflow</title>
<ellipse fill="none" stroke="black" cx="226" cy="-31" rx="7" ry="7"/>
</g>
<!-- run_log&#45;&gt;run_log_outflow -->
<g id="edge17" class="edge">
<title>run_log&#45;&gt;run_log_outflow</title>
<path fill="none" stroke="black" d="M242.593,-78.2546C239.192,-68.5689 235.046,-56.762 231.749,-47.3732"/>
<polygon fill="black" stroke="black" points="234.98,-46.0099 228.365,-37.7343 228.376,-48.3291 234.98,-46.0099"/>
</g>
<!-- num_iteration -->
<g id="node11" class="node">
<title>num_iteration</title>
<path fill="#ffffff" stroke="black" d="M319.033,-259C319.033,-259 272.967,-259 272.967,-259 266.967,-259 260.967,-253 260.967,-247 260.967,-247 260.967,-235 260.967,-235 260.967,-229 266.967,-223 272.967,-223 272.967,-223 319.033,-223 319.033,-223 325.033,-223 331.033,-229 331.033,-235 331.033,-235 331.033,-247 331.033,-247 331.033,-253 325.033,-259 319.033,-259"/>
<text text-anchor="middle" x="296" y="-238.3" font-family="Helvetica,sans-Serif" font-size="9.00">num_iteration</text>
</g>
<!-- num_iteration&#45;&gt;Train_Predict_Model -->
<g id="edge7" class="edge">
<title>num_iteration&#45;&gt;Train_Predict_Model</title>
<path fill="none" stroke="black" d="M274.551,-222.831C264.182,-214.048 251.577,-203.371 240.335,-193.849"/>
<polygon fill="black" stroke="black" points="242.335,-190.956 232.442,-187.163 237.81,-196.297 242.335,-190.956"/>
</g>
<!-- num_topics -->
<g id="node12" class="node">
<title>num_topics</title>
<path fill="#ffffff" stroke="black" d="M399.024,-259C399.024,-259 360.976,-259 360.976,-259 354.976,-259 348.976,-253 348.976,-247 348.976,-247 348.976,-235 348.976,-235 348.976,-229 354.976,-223 360.976,-223 360.976,-223 399.024,-223 399.024,-223 405.024,-223 411.024,-229 411.024,-235 411.024,-235 411.024,-247 411.024,-247 411.024,-253 405.024,-259 399.024,-259"/>
<text text-anchor="middle" x="380" y="-238.3" font-family="Helvetica,sans-Serif" font-size="9.00">num_topics</text>
</g>
<!-- num_topics&#45;&gt;Train_Predict_Model -->
<g id="edge8" class="edge">
<title>num_topics&#45;&gt;Train_Predict_Model</title>
<path fill="none" stroke="black" d="M348.592,-226.772C345.692,-225.487 342.794,-224.213 340,-223 315.24,-212.249 287.655,-200.651 264.368,-190.969"/>
<polygon fill="black" stroke="black" points="265.585,-187.685 255.007,-187.084 262.901,-194.15 265.585,-187.685"/>
</g>
<!-- Static_text_inflow -->
<g id="node13" class="node">
<title>Static_text_inflow</title>
<ellipse fill="none" stroke="black" cx="281" cy="-451" rx="7" ry="7"/>
</g>
<!-- Static_text_inflow&#45;&gt;Static_text -->
<g id="edge14" class="edge">
<title>Static_text_inflow&#45;&gt;Static_text</title>
<path fill="none" stroke="black" d="M277.616,-444.48C273.746,-437.025 267.159,-424.335 261.084,-412.632"/>
<polygon fill="black" stroke="black" points="264.097,-410.84 256.383,-403.577 257.884,-414.065 264.097,-410.84"/>
</g>
<!-- num_iteration_inflow -->
<g id="node14" class="node">
<title>num_iteration_inflow</title>
<ellipse fill="none" stroke="black" cx="313" cy="-451" rx="7" ry="7"/>
</g>
<!-- num_iteration_inflow&#45;&gt;num_iteration -->
<g id="edge15" class="edge">
<title>num_iteration_inflow&#45;&gt;num_iteration</title>
<path fill="none" stroke="black" d="M312.434,-444.013C310.249,-417.018 302.282,-318.597 298.299,-269.398"/>
<polygon fill="black" stroke="black" points="301.763,-268.817 297.468,-259.132 294.786,-269.382 301.763,-268.817"/>
</g>
<!-- num_topics_inflow -->
<g id="node15" class="node">
<title>num_topics_inflow</title>
<ellipse fill="none" stroke="black" cx="345" cy="-451" rx="7" ry="7"/>
</g>
<!-- num_topics_inflow&#45;&gt;num_topics -->
<g id="edge16" class="edge">
<title>num_topics_inflow&#45;&gt;num_topics</title>
<path fill="none" stroke="black" d="M346.165,-444.013C350.673,-416.961 367.136,-318.183 375.319,-269.088"/>
<polygon fill="black" stroke="black" points="378.786,-269.571 376.978,-259.132 371.882,-268.42 378.786,-269.571"/>
</g>
</g>
</svg>
