<?xml version="1.0" encoding="UTF-8" standalone="no"?>
<!DOCTYPE svg PUBLIC "-//W3C//DTD SVG 1.1//EN"
 "http://www.w3.org/Graphics/SVG/1.1/DTD/svg11.dtd">
<!-- Generated by graphviz version 2.39.20160823.1445 (20160823.1445)
 -->
<!-- Title: yw_data_view Pages: 1 -->
<svg width="653pt" height="660pt"
 viewBox="0.00 0.00 653.00 660.00" xmlns="http://www.w3.org/2000/svg" xmlns:xlink="http://www.w3.org/1999/xlink">
<g id="graph0" class="graph" transform="scale(1 1) rotate(0) translate(4 656)">
<title>yw_data_view</title>
<polygon fill="white" stroke="transparent" points="-4,4 -4,-656 649,-656 649,4 -4,4"/>
<text text-anchor="middle" x="322.5" y="-633.6" font-family="Courier,monospace" font-size="18.00">topic_modeling</text>
<g id="clust1" class="cluster">
<title>cluster_workflow</title>
<polygon fill="none" stroke="black" stroke-width="2" points="8,-62 8,-564 637,-564 637,-62 8,-62"/>
</g>
<g id="clust2" class="cluster">
<title>cluster_workflow_inner</title>
<polygon fill="none" stroke="white" stroke-width="2" points="16,-70 16,-556 629,-556 629,-70 16,-70"/>
</g>
<g id="clust3" class="cluster">
<title>cluster_inflows</title>
<polygon fill="none" stroke="white" stroke-width="2" points="548,-572 548,-618 594,-618 594,-572 548,-572"/>
</g>
<g id="clust4" class="cluster">
<title>cluster_inflows_inner</title>
<polygon fill="none" stroke="white" stroke-width="2" points="556,-580 556,-610 586,-610 586,-580 556,-580"/>
</g>
<g id="clust5" class="cluster">
<title>cluster_outflows</title>
<polygon fill="none" stroke="white" stroke-width="2" points="303,-8 303,-54 349,-54 349,-8 303,-8"/>
</g>
<g id="clust6" class="cluster">
<title>cluster_outflows_inner</title>
<polygon fill="none" stroke="white" stroke-width="2" points="311,-16 311,-46 341,-46 341,-16 311,-16"/>
</g>
<!-- AccessText -->
<g id="node1" class="node">
<title>AccessText</title>
<polygon fill="#ccffcc" stroke="black" points="621.014,-475 520.986,-475 520.986,-439 621.014,-439 621.014,-475"/>
<text text-anchor="middle" x="571" y="-452.8" font-family="Courier,monospace" font-size="14.00">AccessText</text>
</g>
<!-- TextRead -->
<g id="node5" class="node">
<title>TextRead</title>
<path fill="#ffffcc" stroke="black" d="M597.021,-403C597.021,-403 566.979,-403 566.979,-403 560.979,-403 554.979,-397 554.979,-391 554.979,-391 554.979,-379 554.979,-379 554.979,-373 560.979,-367 566.979,-367 566.979,-367 597.021,-367 597.021,-367 603.021,-367 609.021,-373 609.021,-379 609.021,-379 609.021,-391 609.021,-391 609.021,-397 603.021,-403 597.021,-403"/>
<text text-anchor="middle" x="582" y="-382.3" font-family="Helvetica,sans-Serif" font-size="9.00">TextRead</text>
</g>
<!-- AccessText&#45;&gt;TextRead -->
<g id="edge12" class="edge">
<title>AccessText&#45;&gt;TextRead</title>
<path fill="none" stroke="black" d="M573.776,-438.831C574.952,-431.131 576.351,-421.974 577.659,-413.417"/>
<polygon fill="black" stroke="black" points="581.136,-413.827 579.187,-403.413 574.217,-412.77 581.136,-413.827"/>
</g>
<!-- PreprocessFile -->
<g id="node2" class="node">
<title>PreprocessFile</title>
<polygon fill="#ccffcc" stroke="black" points="597.62,-331 464.38,-331 464.38,-295 597.62,-295 597.62,-331"/>
<text text-anchor="middle" x="531" y="-308.8" font-family="Courier,monospace" font-size="14.00">PreprocessFile</text>
</g>
<!-- FileProcess -->
<g id="node8" class="node">
<title>FileProcess</title>
<path fill="#ffffcc" stroke="black" d="M608.513,-259C608.513,-259 569.487,-259 569.487,-259 563.487,-259 557.487,-253 557.487,-247 557.487,-247 557.487,-235 557.487,-235 557.487,-229 563.487,-223 569.487,-223 569.487,-223 608.513,-223 608.513,-223 614.513,-223 620.513,-229 620.513,-235 620.513,-235 620.513,-247 620.513,-247 620.513,-253 614.513,-259 608.513,-259"/>
<text text-anchor="middle" x="589" y="-238.3" font-family="Helvetica,sans-Serif" font-size="9.00">FileProcess</text>
</g>
<!-- PreprocessFile&#45;&gt;FileProcess -->
<g id="edge13" class="edge">
<title>PreprocessFile&#45;&gt;FileProcess</title>
<path fill="none" stroke="black" d="M545.636,-294.831C552.316,-286.539 560.357,-276.557 567.69,-267.453"/>
<polygon fill="black" stroke="black" points="570.619,-269.396 574.167,-259.413 565.168,-265.005 570.619,-269.396"/>
</g>
<!-- LDA -->
<g id="node3" class="node">
<title>LDA</title>
<polygon fill="#ccffcc" stroke="black" points="353,-187 299,-187 299,-151 353,-151 353,-187"/>
<text text-anchor="middle" x="326" y="-164.8" font-family="Courier,monospace" font-size="14.00">LDA</text>
</g>
<!-- Topicmodeling_Result -->
<g id="node15" class="node">
<title>Topicmodeling_Result</title>
<path fill="#ffe4b5" stroke="black" d="M275.991,-78.5C275.991,-78.5 376.009,-78.5 376.009,-78.5 382.009,-78.5 388.009,-84.5 388.009,-90.5 388.009,-90.5 388.009,-102.5 388.009,-102.5 388.009,-108.5 382.009,-114.5 376.009,-114.5 376.009,-114.5 275.991,-114.5 275.991,-114.5 269.991,-114.5 263.991,-108.5 263.991,-102.5 263.991,-102.5 263.991,-90.5 263.991,-90.5 263.991,-84.5 269.991,-78.5 275.991,-78.5"/>
<text text-anchor="middle" x="326" y="-102.8" font-family="Courier,monospace" font-weight="bold" font-size="9.00">Topicmodeling_Result</text>
<polyline fill="none" stroke="black" points="263.991,-96.5 388.009,-96.5 "/>
<text text-anchor="start" x="271.991" y="-84.8" font-family="Courier,monospace" font-weight="bold" font-size="9.00">output.txt</text>
</g>
<!-- LDA&#45;&gt;Topicmodeling_Result -->
<g id="edge14" class="edge">
<title>LDA&#45;&gt;Topicmodeling_Result</title>
<path fill="none" stroke="black" d="M326,-150.705C326,-142.832 326,-133.447 326,-124.717"/>
<polygon fill="black" stroke="black" points="329.5,-124.538 326,-114.538 322.5,-124.538 329.5,-124.538"/>
</g>
<!-- Static_text -->
<g id="node4" class="node">
<title>Static_text</title>
<path fill="#ffe4b5" stroke="black" d="M545.295,-511.5C545.295,-511.5 596.705,-511.5 596.705,-511.5 602.705,-511.5 608.705,-517.5 608.705,-523.5 608.705,-523.5 608.705,-535.5 608.705,-535.5 608.705,-541.5 602.705,-547.5 596.705,-547.5 596.705,-547.5 545.295,-547.5 545.295,-547.5 539.295,-547.5 533.295,-541.5 533.295,-535.5 533.295,-535.5 533.295,-523.5 533.295,-523.5 533.295,-517.5 539.295,-511.5 545.295,-511.5"/>
<text text-anchor="middle" x="571" y="-535.8" font-family="Courier,monospace" font-weight="bold" font-size="9.00">Static_text</text>
<polyline fill="none" stroke="black" points="533.295,-529.5 608.705,-529.5 "/>
<text text-anchor="start" x="541.295" y="-517.8" font-family="Courier,monospace" font-weight="bold" font-size="9.00">book1.txt</text>
</g>
<!-- Static_text&#45;&gt;AccessText -->
<g id="edge1" class="edge">
<title>Static_text&#45;&gt;AccessText</title>
<path fill="none" stroke="black" d="M571,-511.205C571,-503.332 571,-493.947 571,-485.217"/>
<polygon fill="black" stroke="black" points="574.5,-485.038 571,-475.038 567.5,-485.038 574.5,-485.038"/>
</g>
<!-- TextRead&#45;&gt;PreprocessFile -->
<g id="edge2" class="edge">
<title>TextRead&#45;&gt;PreprocessFile</title>
<path fill="none" stroke="black" d="M569.131,-366.831C563.316,-358.623 556.33,-348.761 549.935,-339.732"/>
<polygon fill="black" stroke="black" points="552.679,-337.55 544.043,-331.413 546.967,-341.597 552.679,-337.55"/>
</g>
<!-- stopwords -->
<g id="node6" class="node">
<title>stopwords</title>
<path fill="#ffffcc" stroke="black" d="M524.519,-403C524.519,-403 491.481,-403 491.481,-403 485.481,-403 479.481,-397 479.481,-391 479.481,-391 479.481,-379 479.481,-379 479.481,-373 485.481,-367 491.481,-367 491.481,-367 524.519,-367 524.519,-367 530.519,-367 536.519,-373 536.519,-379 536.519,-379 536.519,-391 536.519,-391 536.519,-397 530.519,-403 524.519,-403"/>
<text text-anchor="middle" x="508" y="-382.3" font-family="Helvetica,sans-Serif" font-size="9.00">stopwords</text>
</g>
<!-- stopwords&#45;&gt;PreprocessFile -->
<g id="edge3" class="edge">
<title>stopwords&#45;&gt;PreprocessFile</title>
<path fill="none" stroke="black" d="M513.804,-366.831C516.291,-359.046 519.253,-349.773 522.013,-341.135"/>
<polygon fill="black" stroke="black" points="525.409,-342.004 525.118,-331.413 518.741,-339.874 525.409,-342.004"/>
</g>
<!-- regular_expression -->
<g id="node7" class="node">
<title>regular_expression</title>
<path fill="#ffffcc" stroke="black" d="M449.045,-403C449.045,-403 380.955,-403 380.955,-403 374.955,-403 368.955,-397 368.955,-391 368.955,-391 368.955,-379 368.955,-379 368.955,-373 374.955,-367 380.955,-367 380.955,-367 449.045,-367 449.045,-367 455.045,-367 461.045,-373 461.045,-379 461.045,-379 461.045,-391 461.045,-391 461.045,-397 455.045,-403 449.045,-403"/>
<text text-anchor="middle" x="415" y="-382.3" font-family="Helvetica,sans-Serif" font-size="9.00">regular_expression</text>
</g>
<!-- regular_expression&#45;&gt;PreprocessFile -->
<g id="edge4" class="edge">
<title>regular_expression&#45;&gt;PreprocessFile</title>
<path fill="none" stroke="black" d="M444.272,-366.831C459.109,-357.622 477.302,-346.33 493.186,-336.471"/>
<polygon fill="black" stroke="black" points="495.087,-339.41 501.738,-331.163 491.395,-333.463 495.087,-339.41"/>
</g>
<!-- FileProcess&#45;&gt;LDA -->
<g id="edge5" class="edge">
<title>FileProcess&#45;&gt;LDA</title>
<path fill="none" stroke="black" d="M557.338,-226.113C554.544,-224.995 551.737,-223.938 549,-223 485.025,-201.072 407.826,-184.478 363.08,-175.788"/>
<polygon fill="black" stroke="black" points="363.716,-172.347 353.236,-173.903 362.399,-179.222 363.716,-172.347"/>
</g>
<!-- n_components -->
<g id="node9" class="node">
<title>n_components</title>
<path fill="#ffffcc" stroke="black" d="M527.541,-259C527.541,-259 476.459,-259 476.459,-259 470.459,-259 464.459,-253 464.459,-247 464.459,-247 464.459,-235 464.459,-235 464.459,-229 470.459,-223 476.459,-223 476.459,-223 527.541,-223 527.541,-223 533.541,-223 539.541,-229 539.541,-235 539.541,-235 539.541,-247 539.541,-247 539.541,-253 533.541,-259 527.541,-259"/>
<text text-anchor="middle" x="502" y="-238.3" font-family="Helvetica,sans-Serif" font-size="9.00">n_components</text>
</g>
<!-- n_components&#45;&gt;LDA -->
<g id="edge6" class="edge">
<title>n_components&#45;&gt;LDA</title>
<path fill="none" stroke="black" d="M464.244,-225.554C434.206,-213.266 392.424,-196.174 362.674,-184.003"/>
<polygon fill="black" stroke="black" points="363.661,-180.625 353.08,-180.078 361.011,-187.104 363.661,-180.625"/>
</g>
<!-- n_top_words -->
<g id="node10" class="node">
<title>n_top_words</title>
<path fill="#ffffcc" stroke="black" d="M434.536,-259C434.536,-259 391.464,-259 391.464,-259 385.464,-259 379.464,-253 379.464,-247 379.464,-247 379.464,-235 379.464,-235 379.464,-229 385.464,-223 391.464,-223 391.464,-223 434.536,-223 434.536,-223 440.536,-223 446.536,-229 446.536,-235 446.536,-235 446.536,-247 446.536,-247 446.536,-253 440.536,-259 434.536,-259"/>
<text text-anchor="middle" x="413" y="-238.3" font-family="Helvetica,sans-Serif" font-size="9.00">n_top_words</text>
</g>
<!-- n_top_words&#45;&gt;LDA -->
<g id="edge7" class="edge">
<title>n_top_words&#45;&gt;LDA</title>
<path fill="none" stroke="black" d="M391.046,-222.831C380.331,-213.963 367.281,-203.164 355.691,-193.572"/>
<polygon fill="black" stroke="black" points="357.882,-190.842 347.947,-187.163 353.419,-196.235 357.882,-190.842"/>
</g>
<!-- random_state -->
<g id="node11" class="node">
<title>random_state</title>
<path fill="#ffffcc" stroke="black" d="M349.533,-259C349.533,-259 302.467,-259 302.467,-259 296.467,-259 290.467,-253 290.467,-247 290.467,-247 290.467,-235 290.467,-235 290.467,-229 296.467,-223 302.467,-223 302.467,-223 349.533,-223 349.533,-223 355.533,-223 361.533,-229 361.533,-235 361.533,-235 361.533,-247 361.533,-247 361.533,-253 355.533,-259 349.533,-259"/>
<text text-anchor="middle" x="326" y="-238.3" font-family="Helvetica,sans-Serif" font-size="9.00">random_state</text>
</g>
<!-- random_state&#45;&gt;LDA -->
<g id="edge8" class="edge">
<title>random_state&#45;&gt;LDA</title>
<path fill="none" stroke="black" d="M326,-222.831C326,-215.131 326,-205.974 326,-197.417"/>
<polygon fill="black" stroke="black" points="329.5,-197.413 326,-187.413 322.5,-197.413 329.5,-197.413"/>
</g>
<!-- max_iter -->
<g id="node12" class="node">
<title>max_iter</title>
<path fill="#ffffcc" stroke="black" d="M260,-259C260,-259 230,-259 230,-259 224,-259 218,-253 218,-247 218,-247 218,-235 218,-235 218,-229 224,-223 230,-223 230,-223 260,-223 260,-223 266,-223 272,-229 272,-235 272,-235 272,-247 272,-247 272,-253 266,-259 260,-259"/>
<text text-anchor="middle" x="245" y="-238.3" font-family="Helvetica,sans-Serif" font-size="9.00">max_iter</text>
</g>
<!-- max_iter&#45;&gt;LDA -->
<g id="edge9" class="edge">
<title>max_iter&#45;&gt;LDA</title>
<path fill="none" stroke="black" d="M265.44,-222.831C275.32,-214.048 287.332,-203.371 298.045,-193.849"/>
<polygon fill="black" stroke="black" points="300.418,-196.422 305.567,-187.163 295.767,-191.191 300.418,-196.422"/>
</g>
<!-- learning_method -->
<g id="node13" class="node">
<title>learning_method</title>
<path fill="#ffffcc" stroke="black" d="M187.547,-259C187.547,-259 128.453,-259 128.453,-259 122.453,-259 116.453,-253 116.453,-247 116.453,-247 116.453,-235 116.453,-235 116.453,-229 122.453,-223 128.453,-223 128.453,-223 187.547,-223 187.547,-223 193.547,-223 199.547,-229 199.547,-235 199.547,-235 199.547,-247 199.547,-247 199.547,-253 193.547,-259 187.547,-259"/>
<text text-anchor="middle" x="158" y="-238.3" font-family="Helvetica,sans-Serif" font-size="9.00">learning_method</text>
</g>
<!-- learning_method&#45;&gt;LDA -->
<g id="edge10" class="edge">
<title>learning_method&#45;&gt;LDA</title>
<path fill="none" stroke="black" d="M199.528,-223.202C227.134,-211.371 263.046,-195.98 289.545,-184.624"/>
<polygon fill="black" stroke="black" points="291.036,-187.792 298.849,-180.636 288.279,-181.358 291.036,-187.792"/>
</g>
<!-- learning_offset -->
<g id="node14" class="node">
<title>learning_offset</title>
<path fill="#ffffcc" stroke="black" d="M86.3824,-259C86.3824,-259 35.6176,-259 35.6176,-259 29.6176,-259 23.6176,-253 23.6176,-247 23.6176,-247 23.6176,-235 23.6176,-235 23.6176,-229 29.6176,-223 35.6176,-223 35.6176,-223 86.3824,-223 86.3824,-223 92.3824,-223 98.3824,-229 98.3824,-235 98.3824,-235 98.3824,-247 98.3824,-247 98.3824,-253 92.3824,-259 86.3824,-259"/>
<text text-anchor="middle" x="61" y="-238.3" font-family="Helvetica,sans-Serif" font-size="9.00">learning_offset</text>
</g>
<!-- learning_offset&#45;&gt;LDA -->
<g id="edge11" class="edge">
<title>learning_offset&#45;&gt;LDA</title>
<path fill="none" stroke="black" d="M98.5116,-225.858C101.369,-224.848 104.221,-223.882 107,-223 169.889,-203.037 244.863,-185.96 288.771,-176.618"/>
<polygon fill="black" stroke="black" points="289.647,-180.01 298.71,-174.522 288.203,-173.161 289.647,-180.01"/>
</g>
<!-- Topicmodeling_Result_outflow -->
<g id="node17" class="node">
<title>Topicmodeling_Result_outflow</title>
<ellipse fill="none" stroke="black" cx="326" cy="-31" rx="7" ry="7"/>
</g>
<!-- Topicmodeling_Result&#45;&gt;Topicmodeling_Result_outflow -->
<g id="edge16" class="edge">
<title>Topicmodeling_Result&#45;&gt;Topicmodeling_Result_outflow</title>
<path fill="none" stroke="black" d="M326,-78.2546C326,-68.8859 326,-57.5326 326,-48.3027"/>
<polygon fill="black" stroke="black" points="329.5,-48.0563 326,-38.0563 322.5,-48.0563 329.5,-48.0563"/>
</g>
<!-- Static_text_inflow -->
<g id="node16" class="node">
<title>Static_text_inflow</title>
<ellipse fill="none" stroke="black" cx="571" cy="-595" rx="7" ry="7"/>
</g>
<!-- Static_text_inflow&#45;&gt;Static_text -->
<g id="edge15" class="edge">
<title>Static_text_inflow&#45;&gt;Static_text</title>
<path fill="none" stroke="black" d="M571,-587.99C571,-580.738 571,-568.935 571,-557.824"/>
<polygon fill="black" stroke="black" points="574.5,-557.555 571,-547.555 567.5,-557.555 574.5,-557.555"/>
</g>
</g>
</svg>
