<?xml version="1.0" encoding="UTF-8" standalone="no"?>
<!DOCTYPE svg PUBLIC "-//W3C//DTD SVG 1.1//EN"
 "http://www.w3.org/Graphics/SVG/1.1/DTD/svg11.dtd">
<!-- Generated by graphviz version 2.39.20160823.1445 (20160823.1445)
 -->
<!-- Title: yw_data_view Pages: 1 -->
<svg width="857pt" height="660pt"
 viewBox="0.00 0.00 857.00 660.00" xmlns="http://www.w3.org/2000/svg" xmlns:xlink="http://www.w3.org/1999/xlink">
<g id="graph0" class="graph" transform="scale(1 1) rotate(0) translate(4 656)">
<title>yw_data_view</title>
<polygon fill="white" stroke="transparent" points="-4,4 -4,-656 853,-656 853,4 -4,4"/>
<text text-anchor="middle" x="424.5" y="-633.6" font-family="Courier,monospace" font-size="18.00">topic_modeling</text>
<g id="clust1" class="cluster">
<title>cluster_workflow</title>
<polygon fill="none" stroke="black" stroke-width="2" points="8,-62 8,-564 841,-564 841,-62 8,-62"/>
</g>
<g id="clust2" class="cluster">
<title>cluster_workflow_inner</title>
<polygon fill="none" stroke="white" stroke-width="2" points="16,-70 16,-556 833,-556 833,-70 16,-70"/>
</g>
<g id="clust3" class="cluster">
<title>cluster_inflows</title>
<polygon fill="none" stroke="white" stroke-width="2" points="51,-572 51,-618 97,-618 97,-572 51,-572"/>
</g>
<g id="clust4" class="cluster">
<title>cluster_inflows_inner</title>
<polygon fill="none" stroke="white" stroke-width="2" points="59,-580 59,-610 89,-610 89,-580 59,-580"/>
</g>
<g id="clust5" class="cluster">
<title>cluster_outflows</title>
<polygon fill="none" stroke="white" stroke-width="2" points="407,-8 407,-54 453,-54 453,-8 407,-8"/>
</g>
<g id="clust6" class="cluster">
<title>cluster_outflows_inner</title>
<polygon fill="none" stroke="white" stroke-width="2" points="415,-16 415,-46 445,-46 445,-16 415,-16"/>
</g>
<!-- PreprocessFile -->
<g id="node1" class="node">
<title>PreprocessFile</title>
<polygon fill="#ccffcc" stroke="black" points="207.62,-331 74.3803,-331 74.3803,-295 207.62,-295 207.62,-331"/>
<text text-anchor="middle" x="141" y="-308.8" font-family="Courier,monospace" font-size="14.00">PreprocessFile</text>
</g>
<!-- FileProcess -->
<g id="node7" class="node">
<title>FileProcess</title>
<path fill="#ffffcc" stroke="black" d="M101.631,-259C101.631,-259 36.369,-259 36.369,-259 30.369,-259 24.369,-253 24.369,-247 24.369,-247 24.369,-235 24.369,-235 24.369,-229 30.369,-223 36.369,-223 36.369,-223 101.631,-223 101.631,-223 107.631,-223 113.631,-229 113.631,-235 113.631,-235 113.631,-247 113.631,-247 113.631,-253 107.631,-259 101.631,-259"/>
<text text-anchor="middle" x="69" y="-236.8" font-family="Helvetica,sans-Serif" font-size="14.00">FileProcess</text>
</g>
<!-- PreprocessFile&#45;&gt;FileProcess -->
<g id="edge13" class="edge">
<title>PreprocessFile&#45;&gt;FileProcess</title>
<path fill="none" stroke="black" d="M122.831,-294.831C114.285,-286.285 103.944,-275.944 94.6198,-266.62"/>
<polygon fill="black" stroke="black" points="96.9592,-264.009 87.4133,-259.413 92.0095,-268.959 96.9592,-264.009"/>
</g>
<!-- AccessText -->
<g id="node2" class="node">
<title>AccessText</title>
<polygon fill="#ccffcc" stroke="black" points="124.014,-475 23.9863,-475 23.9863,-439 124.014,-439 124.014,-475"/>
<text text-anchor="middle" x="74" y="-452.8" font-family="Courier,monospace" font-size="14.00">AccessText</text>
</g>
<!-- TextRead -->
<g id="node4" class="node">
<title>TextRead</title>
<path fill="#ffffcc" stroke="black" d="M93.6447,-403C93.6447,-403 42.3553,-403 42.3553,-403 36.3553,-403 30.3553,-397 30.3553,-391 30.3553,-391 30.3553,-379 30.3553,-379 30.3553,-373 36.3553,-367 42.3553,-367 42.3553,-367 93.6447,-367 93.6447,-367 99.6447,-367 105.645,-373 105.645,-379 105.645,-379 105.645,-391 105.645,-391 105.645,-397 99.6447,-403 93.6447,-403"/>
<text text-anchor="middle" x="68" y="-380.8" font-family="Helvetica,sans-Serif" font-size="14.00">TextRead</text>
</g>
<!-- AccessText&#45;&gt;TextRead -->
<g id="edge12" class="edge">
<title>AccessText&#45;&gt;TextRead</title>
<path fill="none" stroke="black" d="M72.4859,-438.831C71.8442,-431.131 71.0812,-421.974 70.3681,-413.417"/>
<polygon fill="black" stroke="black" points="73.8529,-413.088 69.5344,-403.413 66.8771,-413.669 73.8529,-413.088"/>
</g>
<!-- LDA -->
<g id="node3" class="node">
<title>LDA</title>
<polygon fill="#ccffcc" stroke="black" points="457,-187 403,-187 403,-151 457,-151 457,-187"/>
<text text-anchor="middle" x="430" y="-164.8" font-family="Courier,monospace" font-size="14.00">LDA</text>
</g>
<!-- Topicmodeling_Result -->
<g id="node15" class="node">
<title>Topicmodeling_Result</title>
<path fill="#ffe4b5" stroke="black" d="M379.991,-78.5C379.991,-78.5 480.009,-78.5 480.009,-78.5 486.009,-78.5 492.009,-84.5 492.009,-90.5 492.009,-90.5 492.009,-102.5 492.009,-102.5 492.009,-108.5 486.009,-114.5 480.009,-114.5 480.009,-114.5 379.991,-114.5 379.991,-114.5 373.991,-114.5 367.991,-108.5 367.991,-102.5 367.991,-102.5 367.991,-90.5 367.991,-90.5 367.991,-84.5 373.991,-78.5 379.991,-78.5"/>
<text text-anchor="middle" x="430" y="-102.8" font-family="Courier,monospace" font-weight="bold" font-size="9.00">Topicmodeling_Result</text>
<polyline fill="none" stroke="black" points="367.991,-96.5 492.009,-96.5 "/>
<text text-anchor="middle" x="430" y="-84.8" font-family="Courier,monospace" font-weight="bold" font-size="9.00"> </text>
</g>
<!-- LDA&#45;&gt;Topicmodeling_Result -->
<g id="edge14" class="edge">
<title>LDA&#45;&gt;Topicmodeling_Result</title>
<path fill="none" stroke="black" d="M430,-150.705C430,-142.832 430,-133.447 430,-124.717"/>
<polygon fill="black" stroke="black" points="433.5,-124.538 430,-114.538 426.5,-124.538 433.5,-124.538"/>
</g>
<!-- TextRead&#45;&gt;PreprocessFile -->
<g id="edge7" class="edge">
<title>TextRead&#45;&gt;PreprocessFile</title>
<path fill="none" stroke="black" d="M86.421,-366.831C95.1529,-358.219 105.732,-347.785 115.242,-338.405"/>
<polygon fill="black" stroke="black" points="117.923,-340.677 122.585,-331.163 113.007,-335.693 117.923,-340.677"/>
</g>
<!-- stopwords -->
<g id="node5" class="node">
<title>stopwords</title>
<path fill="#ffffcc" stroke="black" d="M343.807,-403C343.807,-403 288.193,-403 288.193,-403 282.193,-403 276.193,-397 276.193,-391 276.193,-391 276.193,-379 276.193,-379 276.193,-373 282.193,-367 288.193,-367 288.193,-367 343.807,-367 343.807,-367 349.807,-367 355.807,-373 355.807,-379 355.807,-379 355.807,-391 355.807,-391 355.807,-397 349.807,-403 343.807,-403"/>
<text text-anchor="middle" x="316" y="-380.8" font-family="Helvetica,sans-Serif" font-size="14.00">stopwords</text>
</g>
<!-- stopwords&#45;&gt;PreprocessFile -->
<g id="edge9" class="edge">
<title>stopwords&#45;&gt;PreprocessFile</title>
<path fill="none" stroke="black" d="M275.851,-368.482C251.676,-358.535 220.598,-345.749 194.372,-334.959"/>
<polygon fill="black" stroke="black" points="195.53,-331.651 184.951,-331.083 192.867,-338.124 195.53,-331.651"/>
</g>
<!-- regular_expression -->
<g id="node6" class="node">
<title>regular_expression</title>
<path fill="#ffffcc" stroke="black" d="M246.568,-403C246.568,-403 135.432,-403 135.432,-403 129.432,-403 123.432,-397 123.432,-391 123.432,-391 123.432,-379 123.432,-379 123.432,-373 129.432,-367 135.432,-367 135.432,-367 246.568,-367 246.568,-367 252.568,-367 258.568,-373 258.568,-379 258.568,-379 258.568,-391 258.568,-391 258.568,-397 252.568,-403 246.568,-403"/>
<text text-anchor="middle" x="191" y="-380.8" font-family="Helvetica,sans-Serif" font-size="14.00">regular_expression</text>
</g>
<!-- regular_expression&#45;&gt;PreprocessFile -->
<g id="edge11" class="edge">
<title>regular_expression&#45;&gt;PreprocessFile</title>
<path fill="none" stroke="black" d="M178.383,-366.831C172.683,-358.623 165.834,-348.761 159.564,-339.732"/>
<polygon fill="black" stroke="black" points="162.366,-337.631 153.787,-331.413 156.616,-341.623 162.366,-337.631"/>
</g>
<!-- FileProcess&#45;&gt;LDA -->
<g id="edge2" class="edge">
<title>FileProcess&#45;&gt;LDA</title>
<path fill="none" stroke="black" d="M113.674,-225.288C116.478,-224.47 119.27,-223.699 122,-223 218.301,-198.361 334.41,-181.343 392.727,-173.649"/>
<polygon fill="black" stroke="black" points="393.461,-177.083 402.925,-172.321 392.557,-170.141 393.461,-177.083"/>
</g>
<!-- n_components -->
<g id="node8" class="node">
<title>n_components</title>
<path fill="#ffffcc" stroke="black" d="M812.841,-259C812.841,-259 729.159,-259 729.159,-259 723.159,-259 717.159,-253 717.159,-247 717.159,-247 717.159,-235 717.159,-235 717.159,-229 723.159,-223 729.159,-223 729.159,-223 812.841,-223 812.841,-223 818.841,-223 824.841,-229 824.841,-235 824.841,-235 824.841,-247 824.841,-247 824.841,-253 818.841,-259 812.841,-259"/>
<text text-anchor="middle" x="771" y="-236.8" font-family="Helvetica,sans-Serif" font-size="14.00">n_components</text>
</g>
<!-- n_components&#45;&gt;LDA -->
<g id="edge5" class="edge">
<title>n_components&#45;&gt;LDA</title>
<path fill="none" stroke="black" d="M717.125,-225.276C714.044,-224.48 710.987,-223.715 708,-223 622.384,-202.494 520.527,-184.255 467.037,-175.144"/>
<polygon fill="black" stroke="black" points="467.447,-171.664 457.003,-173.446 466.279,-178.566 467.447,-171.664"/>
</g>
<!-- n_top_words -->
<g id="node9" class="node">
<title>n_top_words</title>
<path fill="#ffffcc" stroke="black" d="M687.165,-259C687.165,-259 614.835,-259 614.835,-259 608.835,-259 602.835,-253 602.835,-247 602.835,-247 602.835,-235 602.835,-235 602.835,-229 608.835,-223 614.835,-223 614.835,-223 687.165,-223 687.165,-223 693.165,-223 699.165,-229 699.165,-235 699.165,-235 699.165,-247 699.165,-247 699.165,-253 693.165,-259 687.165,-259"/>
<text text-anchor="middle" x="651" y="-236.8" font-family="Helvetica,sans-Serif" font-size="14.00">n_top_words</text>
</g>
<!-- n_top_words&#45;&gt;LDA -->
<g id="edge6" class="edge">
<title>n_top_words&#45;&gt;LDA</title>
<path fill="none" stroke="black" d="M602.774,-225.288C562.026,-212.013 504.503,-193.272 467.229,-181.129"/>
<polygon fill="black" stroke="black" points="467.876,-177.659 457.284,-177.889 465.708,-184.314 467.876,-177.659"/>
</g>
<!-- random_state -->
<g id="node10" class="node">
<title>random_state</title>
<path fill="#ffffcc" stroke="black" d="M572.607,-259C572.607,-259 495.393,-259 495.393,-259 489.393,-259 483.393,-253 483.393,-247 483.393,-247 483.393,-235 483.393,-235 483.393,-229 489.393,-223 495.393,-223 495.393,-223 572.607,-223 572.607,-223 578.607,-223 584.607,-229 584.607,-235 584.607,-235 584.607,-247 584.607,-247 584.607,-253 578.607,-259 572.607,-259"/>
<text text-anchor="middle" x="534" y="-236.8" font-family="Helvetica,sans-Serif" font-size="14.00">random_state</text>
</g>
<!-- random_state&#45;&gt;LDA -->
<g id="edge8" class="edge">
<title>random_state&#45;&gt;LDA</title>
<path fill="none" stroke="black" d="M507.756,-222.831C494.701,-213.793 478.747,-202.748 464.695,-193.02"/>
<polygon fill="black" stroke="black" points="466.449,-189.977 456.235,-187.163 462.465,-195.733 466.449,-189.977"/>
</g>
<!-- max_iter -->
<g id="node11" class="node">
<title>max_iter</title>
<path fill="#ffffcc" stroke="black" d="M452.683,-259C452.683,-259 407.317,-259 407.317,-259 401.317,-259 395.317,-253 395.317,-247 395.317,-247 395.317,-235 395.317,-235 395.317,-229 401.317,-223 407.317,-223 407.317,-223 452.683,-223 452.683,-223 458.683,-223 464.683,-229 464.683,-235 464.683,-235 464.683,-247 464.683,-247 464.683,-253 458.683,-259 452.683,-259"/>
<text text-anchor="middle" x="430" y="-236.8" font-family="Helvetica,sans-Serif" font-size="14.00">max_iter</text>
</g>
<!-- max_iter&#45;&gt;LDA -->
<g id="edge10" class="edge">
<title>max_iter&#45;&gt;LDA</title>
<path fill="none" stroke="black" d="M430,-222.831C430,-215.131 430,-205.974 430,-197.417"/>
<polygon fill="black" stroke="black" points="433.5,-197.413 430,-187.413 426.5,-197.413 433.5,-197.413"/>
</g>
<!-- learning_method -->
<g id="node12" class="node">
<title>learning_method</title>
<path fill="#ffffcc" stroke="black" d="M365.296,-259C365.296,-259 268.704,-259 268.704,-259 262.704,-259 256.704,-253 256.704,-247 256.704,-247 256.704,-235 256.704,-235 256.704,-229 262.704,-223 268.704,-223 268.704,-223 365.296,-223 365.296,-223 371.296,-223 377.296,-229 377.296,-235 377.296,-235 377.296,-247 377.296,-247 377.296,-253 371.296,-259 365.296,-259"/>
<text text-anchor="middle" x="317" y="-236.8" font-family="Helvetica,sans-Serif" font-size="14.00">learning_method</text>
</g>
<!-- learning_method&#45;&gt;LDA -->
<g id="edge1" class="edge">
<title>learning_method&#45;&gt;LDA</title>
<path fill="none" stroke="black" d="M345.515,-222.831C360.299,-213.411 378.504,-201.812 394.224,-191.796"/>
<polygon fill="black" stroke="black" points="396.111,-194.743 402.664,-186.418 392.35,-188.84 396.111,-194.743"/>
</g>
<!-- learning_offset -->
<g id="node13" class="node">
<title>learning_offset</title>
<path fill="#ffffcc" stroke="black" d="M226.595,-259C226.595,-259 143.405,-259 143.405,-259 137.405,-259 131.405,-253 131.405,-247 131.405,-247 131.405,-235 131.405,-235 131.405,-229 137.405,-223 143.405,-223 143.405,-223 226.595,-223 226.595,-223 232.595,-223 238.595,-229 238.595,-235 238.595,-235 238.595,-247 238.595,-247 238.595,-253 232.595,-259 226.595,-259"/>
<text text-anchor="middle" x="185" y="-236.8" font-family="Helvetica,sans-Serif" font-size="14.00">learning_offset</text>
</g>
<!-- learning_offset&#45;&gt;LDA -->
<g id="edge4" class="edge">
<title>learning_offset&#45;&gt;LDA</title>
<path fill="none" stroke="black" d="M238.766,-225.199C285.514,-211.461 352.006,-191.921 393.005,-179.872"/>
<polygon fill="black" stroke="black" points="394.245,-183.156 402.852,-176.978 392.271,-176.44 394.245,-183.156"/>
</g>
<!-- Static_text -->
<g id="node14" class="node">
<title>Static_text</title>
<path fill="#ffe4b5" stroke="black" d="M48.2952,-511.5C48.2952,-511.5 99.7048,-511.5 99.7048,-511.5 105.705,-511.5 111.705,-517.5 111.705,-523.5 111.705,-523.5 111.705,-535.5 111.705,-535.5 111.705,-541.5 105.705,-547.5 99.7048,-547.5 99.7048,-547.5 48.2952,-547.5 48.2952,-547.5 42.2952,-547.5 36.2952,-541.5 36.2952,-535.5 36.2952,-535.5 36.2952,-523.5 36.2952,-523.5 36.2952,-517.5 42.2952,-511.5 48.2952,-511.5"/>
<text text-anchor="middle" x="74" y="-535.8" font-family="Courier,monospace" font-weight="bold" font-size="9.00">Static_text</text>
<polyline fill="none" stroke="black" points="36.2952,-529.5 111.705,-529.5 "/>
<text text-anchor="start" x="44.2952" y="-517.8" font-family="Courier,monospace" font-weight="bold" font-size="9.00">book1.txt</text>
</g>
<!-- Static_text&#45;&gt;AccessText -->
<g id="edge3" class="edge">
<title>Static_text&#45;&gt;AccessText</title>
<path fill="none" stroke="black" d="M74,-511.205C74,-503.332 74,-493.947 74,-485.217"/>
<polygon fill="black" stroke="black" points="77.5001,-485.038 74,-475.038 70.5001,-485.038 77.5001,-485.038"/>
</g>
<!-- Topicmodeling_Result_outflow -->
<g id="node17" class="node">
<title>Topicmodeling_Result_outflow</title>
<ellipse fill="none" stroke="black" cx="430" cy="-31" rx="7" ry="7"/>
</g>
<!-- Topicmodeling_Result&#45;&gt;Topicmodeling_Result_outflow -->
<g id="edge16" class="edge">
<title>Topicmodeling_Result&#45;&gt;Topicmodeling_Result_outflow</title>
<path fill="none" stroke="black" d="M430,-78.2546C430,-68.8859 430,-57.5326 430,-48.3027"/>
<polygon fill="black" stroke="black" points="433.5,-48.0563 430,-38.0563 426.5,-48.0563 433.5,-48.0563"/>
</g>
<!-- Static_text_inflow -->
<g id="node16" class="node">
<title>Static_text_inflow</title>
<ellipse fill="none" stroke="black" cx="74" cy="-595" rx="7" ry="7"/>
</g>
<!-- Static_text_inflow&#45;&gt;Static_text -->
<g id="edge15" class="edge">
<title>Static_text_inflow&#45;&gt;Static_text</title>
<path fill="none" stroke="black" d="M74,-587.99C74,-580.738 74,-568.935 74,-557.824"/>
<polygon fill="black" stroke="black" points="77.5001,-557.555 74,-547.555 70.5001,-557.555 77.5001,-557.555"/>
</g>
</g>
</svg>
