<?xml version="1.0" encoding="UTF-8" standalone="no"?>
<!DOCTYPE svg PUBLIC "-//W3C//DTD SVG 1.1//EN"
 "http://www.w3.org/Graphics/SVG/1.1/DTD/svg11.dtd">
<!-- Generated by graphviz version 2.39.20160823.1445 (20160823.1445)
 -->
<!-- Title: yw_data_view Pages: 1 -->
<svg width="517pt" height="516pt"
 viewBox="0.00 0.00 517.00 516.00" xmlns="http://www.w3.org/2000/svg" xmlns:xlink="http://www.w3.org/1999/xlink">
<g id="graph0" class="graph" transform="scale(1 1) rotate(0) translate(4 512)">
<title>yw_data_view</title>
<polygon fill="white" stroke="transparent" points="-4,4 -4,-512 513,-512 513,4 -4,4"/>
<text text-anchor="middle" x="254.5" y="-489.6" font-family="Courier,monospace" font-size="18.00">topic_modeling</text>
<g id="clust1" class="cluster">
<title>cluster_workflow</title>
<polygon fill="none" stroke="black" stroke-width="2" points="8,-62 8,-420 501,-420 501,-62 8,-62"/>
</g>
<g id="clust2" class="cluster">
<title>cluster_workflow_inner</title>
<polygon fill="none" stroke="white" stroke-width="2" points="16,-70 16,-412 493,-412 493,-70 16,-70"/>
</g>
<g id="clust3" class="cluster">
<title>cluster_inflows</title>
<polygon fill="none" stroke="white" stroke-width="2" points="323,-428 323,-474 433,-474 433,-428 323,-428"/>
</g>
<g id="clust4" class="cluster">
<title>cluster_inflows_inner</title>
<polygon fill="none" stroke="white" stroke-width="2" points="331,-436 331,-466 425,-466 425,-436 331,-436"/>
</g>
<g id="clust5" class="cluster">
<title>cluster_outflows</title>
<polygon fill="none" stroke="white" stroke-width="2" points="250,-8 250,-54 296,-54 296,-8 250,-8"/>
</g>
<g id="clust6" class="cluster">
<title>cluster_outflows_inner</title>
<polygon fill="none" stroke="white" stroke-width="2" points="258,-16 258,-46 288,-46 288,-16 258,-16"/>
</g>
<!-- ConstructCorpus -->
<g id="node1" class="node">
<title>ConstructCorpus</title>
<polygon fill="#ccffcc" stroke="black" points="245.021,-331 102.979,-331 102.979,-295 245.021,-295 245.021,-331"/>
<text text-anchor="middle" x="174" y="-308.8" font-family="Courier,monospace" font-size="14.00">ConstructCorpus</text>
</g>
<!-- dictionary -->
<g id="node5" class="node">
<title>dictionary</title>
<path fill="#ffffcc" stroke="black" d="M87.917,-259C87.917,-259 36.083,-259 36.083,-259 30.083,-259 24.083,-253 24.083,-247 24.083,-247 24.083,-235 24.083,-235 24.083,-229 30.083,-223 36.083,-223 36.083,-223 87.917,-223 87.917,-223 93.917,-223 99.917,-229 99.917,-235 99.917,-235 99.917,-247 99.917,-247 99.917,-253 93.917,-259 87.917,-259"/>
<text text-anchor="middle" x="62" y="-236.8" font-family="Helvetica,sans-Serif" font-size="14.00">dictionary</text>
</g>
<!-- ConstructCorpus&#45;&gt;dictionary -->
<g id="edge9" class="edge">
<title>ConstructCorpus&#45;&gt;dictionary</title>
<path fill="none" stroke="black" d="M145.738,-294.831C131.545,-285.707 114.172,-274.539 98.9364,-264.745"/>
<polygon fill="black" stroke="black" points="100.558,-261.626 90.2533,-259.163 96.7724,-267.515 100.558,-261.626"/>
</g>
<!-- train_corpus -->
<g id="node6" class="node">
<title>train_corpus</title>
<path fill="#ffffcc" stroke="black" d="M198.541,-259C198.541,-259 129.459,-259 129.459,-259 123.459,-259 117.459,-253 117.459,-247 117.459,-247 117.459,-235 117.459,-235 117.459,-229 123.459,-223 129.459,-223 129.459,-223 198.541,-223 198.541,-223 204.541,-223 210.541,-229 210.541,-235 210.541,-235 210.541,-247 210.541,-247 210.541,-253 204.541,-259 198.541,-259"/>
<text text-anchor="middle" x="164" y="-236.8" font-family="Helvetica,sans-Serif" font-size="14.00">train_corpus</text>
</g>
<!-- ConstructCorpus&#45;&gt;train_corpus -->
<g id="edge10" class="edge">
<title>ConstructCorpus&#45;&gt;train_corpus</title>
<path fill="none" stroke="black" d="M171.477,-294.831C170.407,-287.131 169.135,-277.974 167.947,-269.417"/>
<polygon fill="black" stroke="black" points="171.4,-268.837 166.557,-259.413 164.466,-269.8 171.4,-268.837"/>
</g>
<!-- test_corpus -->
<g id="node7" class="node">
<title>test_corpus</title>
<path fill="#ffffcc" stroke="black" d="M305.373,-259C305.373,-259 240.627,-259 240.627,-259 234.627,-259 228.627,-253 228.627,-247 228.627,-247 228.627,-235 228.627,-235 228.627,-229 234.627,-223 240.627,-223 240.627,-223 305.373,-223 305.373,-223 311.373,-223 317.373,-229 317.373,-235 317.373,-235 317.373,-247 317.373,-247 317.373,-253 311.373,-259 305.373,-259"/>
<text text-anchor="middle" x="273" y="-236.8" font-family="Helvetica,sans-Serif" font-size="14.00">test_corpus</text>
</g>
<!-- ConstructCorpus&#45;&gt;test_corpus -->
<g id="edge11" class="edge">
<title>ConstructCorpus&#45;&gt;test_corpus</title>
<path fill="none" stroke="black" d="M198.982,-294.831C211.293,-285.878 226.311,-274.956 239.594,-265.295"/>
<polygon fill="black" stroke="black" points="241.997,-267.875 248.026,-259.163 237.88,-262.214 241.997,-267.875"/>
</g>
<!-- Train_Predict_Model -->
<g id="node2" class="node">
<title>Train_Predict_Model</title>
<polygon fill="#ccffcc" stroke="black" points="360.626,-187 185.374,-187 185.374,-151 360.626,-151 360.626,-187"/>
<text text-anchor="middle" x="273" y="-164.8" font-family="Courier,monospace" font-size="14.00">Train_Predict_Model</text>
</g>
<!-- run_log -->
<g id="node9" class="node">
<title>run_log</title>
<path fill="#ffe4b5" stroke="black" d="M258,-78.5C258,-78.5 288,-78.5 288,-78.5 294,-78.5 300,-84.5 300,-90.5 300,-90.5 300,-102.5 300,-102.5 300,-108.5 294,-114.5 288,-114.5 288,-114.5 258,-114.5 258,-114.5 252,-114.5 246,-108.5 246,-102.5 246,-102.5 246,-90.5 246,-90.5 246,-84.5 252,-78.5 258,-78.5"/>
<text text-anchor="middle" x="272.903" y="-102.8" font-family="Courier,monospace" font-weight="bold" font-size="9.00">run_log</text>
<polyline fill="none" stroke="black" points="246,-96.5 299.806,-96.5 "/>
<text text-anchor="start" x="254" y="-84.8" font-family="Courier,monospace" font-weight="bold" font-size="9.00">log.txt</text>
</g>
<!-- Train_Predict_Model&#45;&gt;run_log -->
<g id="edge12" class="edge">
<title>Train_Predict_Model&#45;&gt;run_log</title>
<path fill="none" stroke="black" d="M273,-150.705C273,-142.832 273,-133.447 273,-124.717"/>
<polygon fill="black" stroke="black" points="276.5,-124.538 273,-114.538 269.5,-124.538 276.5,-124.538"/>
</g>
<!-- stopwords -->
<g id="node3" class="node">
<title>stopwords</title>
<path fill="#ffffcc" stroke="black" d="M337.807,-403.5C337.807,-403.5 282.193,-403.5 282.193,-403.5 276.193,-403.5 270.193,-397.5 270.193,-391.5 270.193,-391.5 270.193,-379.5 270.193,-379.5 270.193,-373.5 276.193,-367.5 282.193,-367.5 282.193,-367.5 337.807,-367.5 337.807,-367.5 343.807,-367.5 349.807,-373.5 349.807,-379.5 349.807,-379.5 349.807,-391.5 349.807,-391.5 349.807,-397.5 343.807,-403.5 337.807,-403.5"/>
<text text-anchor="middle" x="310" y="-381.3" font-family="Helvetica,sans-Serif" font-size="14.00">stopwords</text>
</g>
<!-- stopwords&#45;&gt;ConstructCorpus -->
<g id="edge7" class="edge">
<title>stopwords&#45;&gt;ConstructCorpus</title>
<path fill="none" stroke="black" d="M276.032,-367.392C258.183,-357.877 236.118,-346.114 217.078,-335.964"/>
<polygon fill="black" stroke="black" points="218.477,-332.744 208.006,-331.128 215.184,-338.921 218.477,-332.744"/>
</g>
<!-- regular_expression -->
<g id="node4" class="node">
<title>regular_expression</title>
<path fill="#ffffcc" stroke="black" d="M240.568,-403.5C240.568,-403.5 129.432,-403.5 129.432,-403.5 123.432,-403.5 117.432,-397.5 117.432,-391.5 117.432,-391.5 117.432,-379.5 117.432,-379.5 117.432,-373.5 123.432,-367.5 129.432,-367.5 129.432,-367.5 240.568,-367.5 240.568,-367.5 246.568,-367.5 252.568,-373.5 252.568,-379.5 252.568,-379.5 252.568,-391.5 252.568,-391.5 252.568,-397.5 246.568,-403.5 240.568,-403.5"/>
<text text-anchor="middle" x="185" y="-381.3" font-family="Helvetica,sans-Serif" font-size="14.00">regular_expression</text>
</g>
<!-- regular_expression&#45;&gt;ConstructCorpus -->
<g id="edge6" class="edge">
<title>regular_expression&#45;&gt;ConstructCorpus</title>
<path fill="none" stroke="black" d="M182.224,-367.205C181.017,-359.245 179.574,-349.741 178.238,-340.929"/>
<polygon fill="black" stroke="black" points="181.697,-340.4 176.737,-331.038 174.777,-341.45 181.697,-340.4"/>
</g>
<!-- dictionary&#45;&gt;Train_Predict_Model -->
<g id="edge5" class="edge">
<title>dictionary&#45;&gt;Train_Predict_Model</title>
<path fill="none" stroke="black" d="M100.091,-225.903C102.761,-224.904 105.417,-223.927 108,-223 139.87,-211.56 175.543,-199.761 205.545,-190.122"/>
<polygon fill="black" stroke="black" points="206.618,-193.454 215.075,-187.071 204.484,-186.787 206.618,-193.454"/>
</g>
<!-- train_corpus&#45;&gt;Train_Predict_Model -->
<g id="edge4" class="edge">
<title>train_corpus&#45;&gt;Train_Predict_Model</title>
<path fill="none" stroke="black" d="M191.505,-222.831C205.318,-213.707 222.226,-202.539 237.053,-192.745"/>
<polygon fill="black" stroke="black" points="239.089,-195.595 245.503,-187.163 235.23,-189.754 239.089,-195.595"/>
</g>
<!-- test_corpus&#45;&gt;Train_Predict_Model -->
<g id="edge3" class="edge">
<title>test_corpus&#45;&gt;Train_Predict_Model</title>
<path fill="none" stroke="black" d="M273,-222.831C273,-215.131 273,-205.974 273,-197.417"/>
<polygon fill="black" stroke="black" points="276.5,-197.413 273,-187.413 269.5,-197.413 276.5,-197.413"/>
</g>
<!-- Static_text -->
<g id="node8" class="node">
<title>Static_text</title>
<path fill="#ffe4b5" stroke="black" d="M36.2952,-367.5C36.2952,-367.5 87.7048,-367.5 87.7048,-367.5 93.7048,-367.5 99.7048,-373.5 99.7048,-379.5 99.7048,-379.5 99.7048,-391.5 99.7048,-391.5 99.7048,-397.5 93.7048,-403.5 87.7048,-403.5 87.7048,-403.5 36.2952,-403.5 36.2952,-403.5 30.2952,-403.5 24.2952,-397.5 24.2952,-391.5 24.2952,-391.5 24.2952,-379.5 24.2952,-379.5 24.2952,-373.5 30.2952,-367.5 36.2952,-367.5"/>
<text text-anchor="middle" x="62" y="-391.8" font-family="Courier,monospace" font-weight="bold" font-size="9.00">Static_text</text>
<polyline fill="none" stroke="black" points="24.2952,-385.5 99.7048,-385.5 "/>
<text text-anchor="middle" x="62" y="-373.8" font-family="Courier,monospace" font-weight="bold" font-size="9.00"> </text>
</g>
<!-- Static_text&#45;&gt;ConstructCorpus -->
<g id="edge8" class="edge">
<title>Static_text&#45;&gt;ConstructCorpus</title>
<path fill="none" stroke="black" d="M89.9734,-367.392C104.272,-358.136 121.856,-346.754 137.236,-336.798"/>
<polygon fill="black" stroke="black" points="139.502,-339.5 145.995,-331.128 135.698,-333.624 139.502,-339.5"/>
</g>
<!-- run_log_outflow -->
<g id="node15" class="node">
<title>run_log_outflow</title>
<ellipse fill="none" stroke="black" cx="273" cy="-31" rx="7" ry="7"/>
</g>
<!-- run_log&#45;&gt;run_log_outflow -->
<g id="edge16" class="edge">
<title>run_log&#45;&gt;run_log_outflow</title>
<path fill="none" stroke="black" d="M273,-78.2546C273,-68.8859 273,-57.5326 273,-48.3027"/>
<polygon fill="black" stroke="black" points="276.5,-48.0563 273,-38.0563 269.5,-48.0563 276.5,-48.0563"/>
</g>
<!-- num_iteration -->
<g id="node10" class="node">
<title>num_iteration</title>
<path fill="#ffffff" stroke="black" d="M393.033,-259C393.033,-259 346.967,-259 346.967,-259 340.967,-259 334.967,-253 334.967,-247 334.967,-247 334.967,-235 334.967,-235 334.967,-229 340.967,-223 346.967,-223 346.967,-223 393.033,-223 393.033,-223 399.033,-223 405.033,-229 405.033,-235 405.033,-235 405.033,-247 405.033,-247 405.033,-253 399.033,-259 393.033,-259"/>
<text text-anchor="middle" x="370" y="-238.3" font-family="Helvetica,sans-Serif" font-size="9.00">num_iteration</text>
</g>
<!-- num_iteration&#45;&gt;Train_Predict_Model -->
<g id="edge2" class="edge">
<title>num_iteration&#45;&gt;Train_Predict_Model</title>
<path fill="none" stroke="black" d="M345.523,-222.831C333.461,-213.878 318.746,-202.956 305.731,-193.295"/>
<polygon fill="black" stroke="black" points="307.585,-190.313 297.469,-187.163 303.413,-195.933 307.585,-190.313"/>
</g>
<!-- num_topics -->
<g id="node11" class="node">
<title>num_topics</title>
<path fill="#ffffff" stroke="black" d="M473.024,-259C473.024,-259 434.976,-259 434.976,-259 428.976,-259 422.976,-253 422.976,-247 422.976,-247 422.976,-235 422.976,-235 422.976,-229 428.976,-223 434.976,-223 434.976,-223 473.024,-223 473.024,-223 479.024,-223 485.024,-229 485.024,-235 485.024,-235 485.024,-247 485.024,-247 485.024,-253 479.024,-259 473.024,-259"/>
<text text-anchor="middle" x="454" y="-238.3" font-family="Helvetica,sans-Serif" font-size="9.00">num_topics</text>
</g>
<!-- num_topics&#45;&gt;Train_Predict_Model -->
<g id="edge1" class="edge">
<title>num_topics&#45;&gt;Train_Predict_Model</title>
<path fill="none" stroke="black" d="M422.631,-226.68C419.722,-225.414 416.812,-224.17 414,-223 387.175,-211.838 357.147,-200.219 331.718,-190.631"/>
<polygon fill="black" stroke="black" points="332.805,-187.301 322.213,-187.061 330.344,-193.854 332.805,-187.301"/>
</g>
<!-- Static_text_inflow -->
<g id="node12" class="node">
<title>Static_text_inflow</title>
<ellipse fill="none" stroke="black" cx="346" cy="-451" rx="7" ry="7"/>
</g>
<!-- Static_text_inflow&#45;&gt;Static_text -->
<g id="edge13" class="edge">
<title>Static_text_inflow&#45;&gt;Static_text</title>
<path fill="none" stroke="black" d="M338.757,-450.554C303.709,-448.32 151.612,-437.749 108,-420 101.663,-417.421 95.423,-413.751 89.6812,-409.758"/>
<polygon fill="black" stroke="black" points="91.7766,-406.954 81.6727,-403.767 87.5834,-412.559 91.7766,-406.954"/>
</g>
<!-- num_iteration_inflow -->
<g id="node13" class="node">
<title>num_iteration_inflow</title>
<ellipse fill="none" stroke="black" cx="378" cy="-451" rx="7" ry="7"/>
</g>
<!-- num_iteration_inflow&#45;&gt;num_iteration -->
<g id="edge14" class="edge">
<title>num_iteration_inflow&#45;&gt;num_iteration</title>
<path fill="none" stroke="black" d="M377.725,-443.771C376.682,-416.415 372.945,-318.301 371.078,-269.285"/>
<polygon fill="black" stroke="black" points="374.566,-268.917 370.688,-259.058 367.571,-269.184 374.566,-268.917"/>
</g>
<!-- num_topics_inflow -->
<g id="node14" class="node">
<title>num_topics_inflow</title>
<ellipse fill="none" stroke="black" cx="410" cy="-451" rx="7" ry="7"/>
</g>
<!-- num_topics_inflow&#45;&gt;num_topics -->
<g id="edge15" class="edge">
<title>num_topics_inflow&#45;&gt;num_topics</title>
<path fill="none" stroke="black" d="M411.464,-444.013C417.132,-416.961 437.828,-318.183 448.115,-269.088"/>
<polygon fill="black" stroke="black" points="451.576,-269.637 450.201,-259.132 444.725,-268.201 451.576,-269.637"/>
</g>
</g>
</svg>
