<?xml version="1.0" encoding="UTF-8" standalone="no"?>
<!DOCTYPE svg PUBLIC "-//W3C//DTD SVG 1.1//EN"
 "http://www.w3.org/Graphics/SVG/1.1/DTD/svg11.dtd">
<!-- Generated by graphviz version 2.39.20160823.1445 (20160823.1445)
 -->
<!-- Title: yw_data_view Pages: 1 -->
<svg width="382pt" height="460pt"
 viewBox="0.00 0.00 382.00 460.00" xmlns="http://www.w3.org/2000/svg" xmlns:xlink="http://www.w3.org/1999/xlink">
<g id="graph0" class="graph" transform="scale(1 1) rotate(0) translate(4 456)">
<title>yw_data_view</title>
<polygon fill="white" stroke="transparent" points="-4,4 -4,-456 378,-456 378,4 -4,4"/>
<text text-anchor="middle" x="187" y="-433.6" font-family="Courier,monospace" font-size="18.00">topic_modeling</text>
<g id="clust1" class="cluster">
<title>cluster_workflow</title>
<polygon fill="none" stroke="black" stroke-width="2" points="8,-8 8,-364 366,-364 366,-8 8,-8"/>
</g>
<g id="clust2" class="cluster">
<title>cluster_workflow_inner</title>
<polygon fill="none" stroke="white" stroke-width="2" points="16,-16 16,-356 358,-356 358,-16 16,-16"/>
</g>
<g id="clust3" class="cluster">
<title>cluster_inflows</title>
<polygon fill="none" stroke="white" stroke-width="2" points="277,-372 277,-418 323,-418 323,-372 277,-372"/>
</g>
<g id="clust4" class="cluster">
<title>cluster_inflows_inner</title>
<polygon fill="none" stroke="white" stroke-width="2" points="285,-380 285,-410 315,-410 315,-380 285,-380"/>
</g>
<!-- AccessText -->
<g id="node1" class="node">
<title>AccessText</title>
<polygon fill="#ccffcc" stroke="black" points="350.014,-276 249.986,-276 249.986,-240 350.014,-240 350.014,-276"/>
<text text-anchor="middle" x="300" y="-253.8" font-family="Courier,monospace" font-size="14.00">AccessText</text>
</g>
<!-- TextRead -->
<g id="node4" class="node">
<title>TextRead</title>
<path fill="#ffffcc" stroke="black" d="M337.645,-204C337.645,-204 286.355,-204 286.355,-204 280.355,-204 274.355,-198 274.355,-192 274.355,-192 274.355,-180 274.355,-180 274.355,-174 280.355,-168 286.355,-168 286.355,-168 337.645,-168 337.645,-168 343.645,-168 349.645,-174 349.645,-180 349.645,-180 349.645,-192 349.645,-192 349.645,-198 343.645,-204 337.645,-204"/>
<text text-anchor="middle" x="312" y="-181.8" font-family="Helvetica,sans-Serif" font-size="14.00">TextRead</text>
</g>
<!-- AccessText&#45;&gt;TextRead -->
<g id="edge5" class="edge">
<title>AccessText&#45;&gt;TextRead</title>
<path fill="none" stroke="black" d="M303.028,-239.831C304.312,-232.131 305.838,-222.974 307.264,-214.417"/>
<polygon fill="black" stroke="black" points="310.739,-214.853 308.931,-204.413 303.835,-213.702 310.739,-214.853"/>
</g>
<!-- PreprocessFile -->
<g id="node2" class="node">
<title>PreprocessFile</title>
<polygon fill="#ccffcc" stroke="black" points="283.62,-132 150.38,-132 150.38,-96 283.62,-96 283.62,-132"/>
<text text-anchor="middle" x="217" y="-109.8" font-family="Courier,monospace" font-size="14.00">PreprocessFile</text>
</g>
<!-- FileProcess -->
<g id="node7" class="node">
<title>FileProcess</title>
<path fill="#ffffcc" stroke="black" d="M249.631,-60C249.631,-60 184.369,-60 184.369,-60 178.369,-60 172.369,-54 172.369,-48 172.369,-48 172.369,-36 172.369,-36 172.369,-30 178.369,-24 184.369,-24 184.369,-24 249.631,-24 249.631,-24 255.631,-24 261.631,-30 261.631,-36 261.631,-36 261.631,-48 261.631,-48 261.631,-54 255.631,-60 249.631,-60"/>
<text text-anchor="middle" x="217" y="-37.8" font-family="Helvetica,sans-Serif" font-size="14.00">FileProcess</text>
</g>
<!-- PreprocessFile&#45;&gt;FileProcess -->
<g id="edge6" class="edge">
<title>PreprocessFile&#45;&gt;FileProcess</title>
<path fill="none" stroke="black" d="M217,-95.8314C217,-88.131 217,-78.9743 217,-70.4166"/>
<polygon fill="black" stroke="black" points="220.5,-70.4132 217,-60.4133 213.5,-70.4133 220.5,-70.4132"/>
</g>
<!-- Static_text -->
<g id="node3" class="node">
<title>Static_text</title>
<path fill="#ffffcc" stroke="black" d="M328.866,-348C328.866,-348 271.134,-348 271.134,-348 265.134,-348 259.134,-342 259.134,-336 259.134,-336 259.134,-324 259.134,-324 259.134,-318 265.134,-312 271.134,-312 271.134,-312 328.866,-312 328.866,-312 334.866,-312 340.866,-318 340.866,-324 340.866,-324 340.866,-336 340.866,-336 340.866,-342 334.866,-348 328.866,-348"/>
<text text-anchor="middle" x="300" y="-325.8" font-family="Helvetica,sans-Serif" font-size="14.00">Static_text</text>
</g>
<!-- Static_text&#45;&gt;AccessText -->
<g id="edge4" class="edge">
<title>Static_text&#45;&gt;AccessText</title>
<path fill="none" stroke="black" d="M300,-311.831C300,-304.131 300,-294.974 300,-286.417"/>
<polygon fill="black" stroke="black" points="303.5,-286.413 300,-276.413 296.5,-286.413 303.5,-286.413"/>
</g>
<!-- TextRead&#45;&gt;PreprocessFile -->
<g id="edge3" class="edge">
<title>TextRead&#45;&gt;PreprocessFile</title>
<path fill="none" stroke="black" d="M288.027,-167.831C276.214,-158.878 261.803,-147.956 249.057,-138.295"/>
<polygon fill="black" stroke="black" points="251.049,-135.414 240.965,-132.163 246.82,-140.992 251.049,-135.414"/>
</g>
<!-- stopwords -->
<g id="node5" class="node">
<title>stopwords</title>
<path fill="#ffffcc" stroke="black" d="M244.807,-204C244.807,-204 189.193,-204 189.193,-204 183.193,-204 177.193,-198 177.193,-192 177.193,-192 177.193,-180 177.193,-180 177.193,-174 183.193,-168 189.193,-168 189.193,-168 244.807,-168 244.807,-168 250.807,-168 256.807,-174 256.807,-180 256.807,-180 256.807,-192 256.807,-192 256.807,-198 250.807,-204 244.807,-204"/>
<text text-anchor="middle" x="217" y="-181.8" font-family="Helvetica,sans-Serif" font-size="14.00">stopwords</text>
</g>
<!-- stopwords&#45;&gt;PreprocessFile -->
<g id="edge2" class="edge">
<title>stopwords&#45;&gt;PreprocessFile</title>
<path fill="none" stroke="black" d="M217,-167.831C217,-160.131 217,-150.974 217,-142.417"/>
<polygon fill="black" stroke="black" points="220.5,-142.413 217,-132.413 213.5,-142.413 220.5,-142.413"/>
</g>
<!-- regular_expression -->
<g id="node6" class="node">
<title>regular_expression</title>
<path fill="#ffffcc" stroke="black" d="M147.568,-204C147.568,-204 36.4316,-204 36.4316,-204 30.4316,-204 24.4316,-198 24.4316,-192 24.4316,-192 24.4316,-180 24.4316,-180 24.4316,-174 30.4316,-168 36.4316,-168 36.4316,-168 147.568,-168 147.568,-168 153.568,-168 159.568,-174 159.568,-180 159.568,-180 159.568,-192 159.568,-192 159.568,-198 153.568,-204 147.568,-204"/>
<text text-anchor="middle" x="92" y="-181.8" font-family="Helvetica,sans-Serif" font-size="14.00">regular_expression</text>
</g>
<!-- regular_expression&#45;&gt;PreprocessFile -->
<g id="edge1" class="edge">
<title>regular_expression&#45;&gt;PreprocessFile</title>
<path fill="none" stroke="black" d="M123.543,-167.831C139.679,-158.537 159.499,-147.121 176.727,-137.197"/>
<polygon fill="black" stroke="black" points="178.549,-140.187 185.467,-132.163 175.055,-134.121 178.549,-140.187"/>
</g>
<!-- Static_text_inflow -->
<g id="node8" class="node">
<title>Static_text_inflow</title>
<ellipse fill="none" stroke="black" cx="300" cy="-395" rx="7" ry="7"/>
</g>
<!-- Static_text_inflow&#45;&gt;Static_text -->
<g id="edge7" class="edge">
<title>Static_text_inflow&#45;&gt;Static_text</title>
<path fill="none" stroke="black" d="M300,-387.796C300,-380.582 300,-369.016 300,-358.12"/>
<polygon fill="black" stroke="black" points="303.5,-358.041 300,-348.041 296.5,-358.041 303.5,-358.041"/>
</g>
</g>
</svg>
