<?xml version="1.0" encoding="UTF-8" standalone="no"?>
<!DOCTYPE svg PUBLIC "-//W3C//DTD SVG 1.1//EN"
 "http://www.w3.org/Graphics/SVG/1.1/DTD/svg11.dtd">
<!-- Generated by graphviz version 2.39.20160823.1445 (20160823.1445)
 -->
<!-- Title: yw_data_view Pages: 1 -->
<svg width="857pt" height="658pt"
 viewBox="0.00 0.00 857.00 658.00" xmlns="http://www.w3.org/2000/svg" xmlns:xlink="http://www.w3.org/1999/xlink">
<g id="graph0" class="graph" transform="scale(1 1) rotate(0) translate(4 654)">
<title>yw_data_view</title>
<polygon fill="white" stroke="transparent" points="-4,4 -4,-654 853,-654 853,4 -4,4"/>
<text text-anchor="middle" x="424.5" y="-631.6" font-family="Courier,monospace" font-size="18.00">topic_modeling</text>
<g id="clust1" class="cluster">
<title>cluster_workflow</title>
<polygon fill="none" stroke="black" stroke-width="2" points="8,-62 8,-562 841,-562 841,-62 8,-62"/>
</g>
<g id="clust2" class="cluster">
<title>cluster_workflow_inner</title>
<polygon fill="none" stroke="white" stroke-width="2" points="16,-70 16,-554 833,-554 833,-70 16,-70"/>
</g>
<g id="clust3" class="cluster">
<title>cluster_inflows</title>
<polygon fill="none" stroke="white" stroke-width="2" points="752,-570 752,-616 798,-616 798,-570 752,-570"/>
</g>
<g id="clust4" class="cluster">
<title>cluster_inflows_inner</title>
<polygon fill="none" stroke="white" stroke-width="2" points="760,-578 760,-608 790,-608 790,-578 760,-578"/>
</g>
<g id="clust5" class="cluster">
<title>cluster_outflows</title>
<polygon fill="none" stroke="white" stroke-width="2" points="404,-8 404,-54 450,-54 450,-8 404,-8"/>
</g>
<g id="clust6" class="cluster">
<title>cluster_outflows_inner</title>
<polygon fill="none" stroke="white" stroke-width="2" points="412,-16 412,-46 442,-46 442,-16 412,-16"/>
</g>
<!-- PreprocessFile -->
<g id="node1" class="node">
<title>PreprocessFile</title>
<polygon fill="#ccffcc" stroke="black" points="788.62,-330 655.38,-330 655.38,-294 788.62,-294 788.62,-330"/>
<text text-anchor="middle" x="722" y="-307.8" font-family="Courier,monospace" font-size="14.00">PreprocessFile</text>
</g>
<!-- FileProcess -->
<g id="node8" class="node">
<title>FileProcess</title>
<path fill="#ffffcc" stroke="black" d="M812.631,-258C812.631,-258 747.369,-258 747.369,-258 741.369,-258 735.369,-252 735.369,-246 735.369,-246 735.369,-234 735.369,-234 735.369,-228 741.369,-222 747.369,-222 747.369,-222 812.631,-222 812.631,-222 818.631,-222 824.631,-228 824.631,-234 824.631,-234 824.631,-246 824.631,-246 824.631,-252 818.631,-258 812.631,-258"/>
<text text-anchor="middle" x="780" y="-235.8" font-family="Helvetica,sans-Serif" font-size="14.00">FileProcess</text>
</g>
<!-- PreprocessFile&#45;&gt;FileProcess -->
<g id="edge13" class="edge">
<title>PreprocessFile&#45;&gt;FileProcess</title>
<path fill="none" stroke="black" d="M736.636,-293.831C743.316,-285.539 751.357,-275.557 758.69,-266.453"/>
<polygon fill="black" stroke="black" points="761.619,-268.396 765.167,-258.413 756.168,-264.005 761.619,-268.396"/>
</g>
<!-- AccessText -->
<g id="node2" class="node">
<title>AccessText</title>
<polygon fill="#ccffcc" stroke="black" points="825.014,-474 724.986,-474 724.986,-438 825.014,-438 825.014,-474"/>
<text text-anchor="middle" x="775" y="-451.8" font-family="Courier,monospace" font-size="14.00">AccessText</text>
</g>
<!-- TextRead -->
<g id="node5" class="node">
<title>TextRead</title>
<path fill="#ffffcc" stroke="black" d="M806.645,-402C806.645,-402 755.355,-402 755.355,-402 749.355,-402 743.355,-396 743.355,-390 743.355,-390 743.355,-378 743.355,-378 743.355,-372 749.355,-366 755.355,-366 755.355,-366 806.645,-366 806.645,-366 812.645,-366 818.645,-372 818.645,-378 818.645,-378 818.645,-390 818.645,-390 818.645,-396 812.645,-402 806.645,-402"/>
<text text-anchor="middle" x="781" y="-379.8" font-family="Helvetica,sans-Serif" font-size="14.00">TextRead</text>
</g>
<!-- AccessText&#45;&gt;TextRead -->
<g id="edge12" class="edge">
<title>AccessText&#45;&gt;TextRead</title>
<path fill="none" stroke="black" d="M776.514,-437.831C777.156,-430.131 777.919,-420.974 778.632,-412.417"/>
<polygon fill="black" stroke="black" points="782.123,-412.669 779.466,-402.413 775.147,-412.088 782.123,-412.669"/>
</g>
<!-- LDA -->
<g id="node3" class="node">
<title>LDA</title>
<polygon fill="#ccffcc" stroke="black" points="454,-186 400,-186 400,-150 454,-150 454,-186"/>
<text text-anchor="middle" x="427" y="-163.8" font-family="Courier,monospace" font-size="14.00">LDA</text>
</g>
<!-- Topicmodeling_Result -->
<g id="node15" class="node">
<title>Topicmodeling_Result</title>
<path fill="#ffffcc" stroke="black" d="M491.465,-114C491.465,-114 362.535,-114 362.535,-114 356.535,-114 350.535,-108 350.535,-102 350.535,-102 350.535,-90 350.535,-90 350.535,-84 356.535,-78 362.535,-78 362.535,-78 491.465,-78 491.465,-78 497.465,-78 503.465,-84 503.465,-90 503.465,-90 503.465,-102 503.465,-102 503.465,-108 497.465,-114 491.465,-114"/>
<text text-anchor="middle" x="427" y="-91.8" font-family="Helvetica,sans-Serif" font-size="14.00">Topicmodeling_Result</text>
</g>
<!-- LDA&#45;&gt;Topicmodeling_Result -->
<g id="edge14" class="edge">
<title>LDA&#45;&gt;Topicmodeling_Result</title>
<path fill="none" stroke="black" d="M427,-149.831C427,-142.131 427,-132.974 427,-124.417"/>
<polygon fill="black" stroke="black" points="430.5,-124.413 427,-114.413 423.5,-124.413 430.5,-124.413"/>
</g>
<!-- Static_text -->
<g id="node4" class="node">
<title>Static_text</title>
<path fill="#ffffcc" stroke="black" d="M803.866,-546C803.866,-546 746.134,-546 746.134,-546 740.134,-546 734.134,-540 734.134,-534 734.134,-534 734.134,-522 734.134,-522 734.134,-516 740.134,-510 746.134,-510 746.134,-510 803.866,-510 803.866,-510 809.866,-510 815.866,-516 815.866,-522 815.866,-522 815.866,-534 815.866,-534 815.866,-540 809.866,-546 803.866,-546"/>
<text text-anchor="middle" x="775" y="-523.8" font-family="Helvetica,sans-Serif" font-size="14.00">Static_text</text>
</g>
<!-- Static_text&#45;&gt;AccessText -->
<g id="edge9" class="edge">
<title>Static_text&#45;&gt;AccessText</title>
<path fill="none" stroke="black" d="M775,-509.831C775,-502.131 775,-492.974 775,-484.417"/>
<polygon fill="black" stroke="black" points="778.5,-484.413 775,-474.413 771.5,-484.413 778.5,-484.413"/>
</g>
<!-- TextRead&#45;&gt;PreprocessFile -->
<g id="edge2" class="edge">
<title>TextRead&#45;&gt;PreprocessFile</title>
<path fill="none" stroke="black" d="M766.112,-365.831C759.247,-357.454 750.97,-347.353 743.449,-338.175"/>
<polygon fill="black" stroke="black" points="746.134,-335.93 737.089,-330.413 740.72,-340.366 746.134,-335.93"/>
</g>
<!-- stopwords -->
<g id="node6" class="node">
<title>stopwords</title>
<path fill="#ffffcc" stroke="black" d="M713.807,-402C713.807,-402 658.193,-402 658.193,-402 652.193,-402 646.193,-396 646.193,-390 646.193,-390 646.193,-378 646.193,-378 646.193,-372 652.193,-366 658.193,-366 658.193,-366 713.807,-366 713.807,-366 719.807,-366 725.807,-372 725.807,-378 725.807,-378 725.807,-390 725.807,-390 725.807,-396 719.807,-402 713.807,-402"/>
<text text-anchor="middle" x="686" y="-379.8" font-family="Helvetica,sans-Serif" font-size="14.00">stopwords</text>
</g>
<!-- stopwords&#45;&gt;PreprocessFile -->
<g id="edge4" class="edge">
<title>stopwords&#45;&gt;PreprocessFile</title>
<path fill="none" stroke="black" d="M695.084,-365.831C699.061,-357.877 703.815,-348.369 708.214,-339.572"/>
<polygon fill="black" stroke="black" points="711.452,-340.923 712.793,-330.413 705.191,-337.792 711.452,-340.923"/>
</g>
<!-- regular_expression -->
<g id="node7" class="node">
<title>regular_expression</title>
<path fill="#ffffcc" stroke="black" d="M616.568,-402C616.568,-402 505.432,-402 505.432,-402 499.432,-402 493.432,-396 493.432,-390 493.432,-390 493.432,-378 493.432,-378 493.432,-372 499.432,-366 505.432,-366 505.432,-366 616.568,-366 616.568,-366 622.568,-366 628.568,-372 628.568,-378 628.568,-378 628.568,-390 628.568,-390 628.568,-396 622.568,-402 616.568,-402"/>
<text text-anchor="middle" x="561" y="-379.8" font-family="Helvetica,sans-Serif" font-size="14.00">regular_expression</text>
</g>
<!-- regular_expression&#45;&gt;PreprocessFile -->
<g id="edge6" class="edge">
<title>regular_expression&#45;&gt;PreprocessFile</title>
<path fill="none" stroke="black" d="M601.627,-365.831C623.16,-356.202 649.785,-344.295 672.515,-334.13"/>
<polygon fill="black" stroke="black" points="673.965,-337.316 681.665,-330.038 671.107,-330.925 673.965,-337.316"/>
</g>
<!-- FileProcess&#45;&gt;LDA -->
<g id="edge8" class="edge">
<title>FileProcess&#45;&gt;LDA</title>
<path fill="none" stroke="black" d="M735.322,-224.303C732.519,-223.481 729.729,-222.705 727,-222 633.662,-197.894 521.257,-180.752 464.181,-172.869"/>
<polygon fill="black" stroke="black" points="464.565,-169.389 454.184,-171.505 463.619,-176.325 464.565,-169.389"/>
</g>
<!-- n_components -->
<g id="node9" class="node">
<title>n_components</title>
<path fill="#ffffcc" stroke="black" d="M705.841,-258C705.841,-258 622.159,-258 622.159,-258 616.159,-258 610.159,-252 610.159,-246 610.159,-246 610.159,-234 610.159,-234 610.159,-228 616.159,-222 622.159,-222 622.159,-222 705.841,-222 705.841,-222 711.841,-222 717.841,-228 717.841,-234 717.841,-234 717.841,-246 717.841,-246 717.841,-252 711.841,-258 705.841,-258"/>
<text text-anchor="middle" x="664" y="-235.8" font-family="Helvetica,sans-Serif" font-size="14.00">n_components</text>
</g>
<!-- n_components&#45;&gt;LDA -->
<g id="edge11" class="edge">
<title>n_components&#45;&gt;LDA</title>
<path fill="none" stroke="black" d="M609.924,-223.572C565.183,-209.98 502.838,-191.039 463.714,-179.154"/>
<polygon fill="black" stroke="black" points="464.637,-175.776 454.052,-176.218 462.602,-182.474 464.637,-175.776"/>
</g>
<!-- n_top_words -->
<g id="node10" class="node">
<title>n_top_words</title>
<path fill="#ffffcc" stroke="black" d="M580.165,-258C580.165,-258 507.835,-258 507.835,-258 501.835,-258 495.835,-252 495.835,-246 495.835,-246 495.835,-234 495.835,-234 495.835,-228 501.835,-222 507.835,-222 507.835,-222 580.165,-222 580.165,-222 586.165,-222 592.165,-228 592.165,-234 592.165,-234 592.165,-246 592.165,-246 592.165,-252 586.165,-258 580.165,-258"/>
<text text-anchor="middle" x="544" y="-235.8" font-family="Helvetica,sans-Serif" font-size="14.00">n_top_words</text>
</g>
<!-- n_top_words&#45;&gt;LDA -->
<g id="edge1" class="edge">
<title>n_top_words&#45;&gt;LDA</title>
<path fill="none" stroke="black" d="M514.476,-221.831C498.826,-212.2 479.473,-200.291 462.953,-190.125"/>
<polygon fill="black" stroke="black" points="464.46,-186.942 454.109,-184.682 460.791,-192.904 464.46,-186.942"/>
</g>
<!-- random_state -->
<g id="node11" class="node">
<title>random_state</title>
<path fill="#ffffcc" stroke="black" d="M465.607,-258C465.607,-258 388.393,-258 388.393,-258 382.393,-258 376.393,-252 376.393,-246 376.393,-246 376.393,-234 376.393,-234 376.393,-228 382.393,-222 388.393,-222 388.393,-222 465.607,-222 465.607,-222 471.607,-222 477.607,-228 477.607,-234 477.607,-234 477.607,-246 477.607,-246 477.607,-252 471.607,-258 465.607,-258"/>
<text text-anchor="middle" x="427" y="-235.8" font-family="Helvetica,sans-Serif" font-size="14.00">random_state</text>
</g>
<!-- random_state&#45;&gt;LDA -->
<g id="edge3" class="edge">
<title>random_state&#45;&gt;LDA</title>
<path fill="none" stroke="black" d="M427,-221.831C427,-214.131 427,-204.974 427,-196.417"/>
<polygon fill="black" stroke="black" points="430.5,-196.413 427,-186.413 423.5,-196.413 430.5,-196.413"/>
</g>
<!-- max_iter -->
<g id="node12" class="node">
<title>max_iter</title>
<path fill="#ffffcc" stroke="black" d="M345.683,-258C345.683,-258 300.317,-258 300.317,-258 294.317,-258 288.317,-252 288.317,-246 288.317,-246 288.317,-234 288.317,-234 288.317,-228 294.317,-222 300.317,-222 300.317,-222 345.683,-222 345.683,-222 351.683,-222 357.683,-228 357.683,-234 357.683,-234 357.683,-246 357.683,-246 357.683,-252 351.683,-258 345.683,-258"/>
<text text-anchor="middle" x="323" y="-235.8" font-family="Helvetica,sans-Serif" font-size="14.00">max_iter</text>
</g>
<!-- max_iter&#45;&gt;LDA -->
<g id="edge5" class="edge">
<title>max_iter&#45;&gt;LDA</title>
<path fill="none" stroke="black" d="M349.244,-221.831C362.299,-212.793 378.253,-201.748 392.305,-192.02"/>
<polygon fill="black" stroke="black" points="394.535,-194.733 400.765,-186.163 390.551,-188.977 394.535,-194.733"/>
</g>
<!-- learning_method -->
<g id="node13" class="node">
<title>learning_method</title>
<path fill="#ffffcc" stroke="black" d="M258.296,-258C258.296,-258 161.704,-258 161.704,-258 155.704,-258 149.704,-252 149.704,-246 149.704,-246 149.704,-234 149.704,-234 149.704,-228 155.704,-222 161.704,-222 161.704,-222 258.296,-222 258.296,-222 264.296,-222 270.296,-228 270.296,-234 270.296,-234 270.296,-246 270.296,-246 270.296,-252 264.296,-258 258.296,-258"/>
<text text-anchor="middle" x="210" y="-235.8" font-family="Helvetica,sans-Serif" font-size="14.00">learning_method</text>
</g>
<!-- learning_method&#45;&gt;LDA -->
<g id="edge7" class="edge">
<title>learning_method&#45;&gt;LDA</title>
<path fill="none" stroke="black" d="M264.478,-221.924C303.786,-208.882 355.794,-191.626 390.27,-180.187"/>
<polygon fill="black" stroke="black" points="391.549,-183.45 399.938,-176.979 389.345,-176.806 391.549,-183.45"/>
</g>
<!-- learning_offset -->
<g id="node14" class="node">
<title>learning_offset</title>
<path fill="#ffffcc" stroke="black" d="M119.595,-258C119.595,-258 36.4045,-258 36.4045,-258 30.4045,-258 24.4045,-252 24.4045,-246 24.4045,-246 24.4045,-234 24.4045,-234 24.4045,-228 30.4045,-222 36.4045,-222 36.4045,-222 119.595,-222 119.595,-222 125.595,-222 131.595,-228 131.595,-234 131.595,-234 131.595,-246 131.595,-246 131.595,-252 125.595,-258 119.595,-258"/>
<text text-anchor="middle" x="78" y="-235.8" font-family="Helvetica,sans-Serif" font-size="14.00">learning_offset</text>
</g>
<!-- learning_offset&#45;&gt;LDA -->
<g id="edge10" class="edge">
<title>learning_offset&#45;&gt;LDA</title>
<path fill="none" stroke="black" d="M131.871,-224.257C134.952,-223.466 138.011,-222.708 141,-222 229.461,-201.058 334.835,-182.882 389.662,-173.926"/>
<polygon fill="black" stroke="black" points="390.305,-177.368 399.615,-172.311 389.183,-170.458 390.305,-177.368"/>
</g>
<!-- Topicmodeling_Result_outflow -->
<g id="node17" class="node">
<title>Topicmodeling_Result_outflow</title>
<ellipse fill="none" stroke="black" cx="427" cy="-31" rx="7" ry="7"/>
</g>
<!-- Topicmodeling_Result&#45;&gt;Topicmodeling_Result_outflow -->
<g id="edge16" class="edge">
<title>Topicmodeling_Result&#45;&gt;Topicmodeling_Result_outflow</title>
<path fill="none" stroke="black" d="M427,-77.8939C427,-68.5967 427,-57.3301 427,-48.1707"/>
<polygon fill="black" stroke="black" points="430.5,-48.0024 427,-38.0024 423.5,-48.0025 430.5,-48.0024"/>
</g>
<!-- Static_text_inflow -->
<g id="node16" class="node">
<title>Static_text_inflow</title>
<ellipse fill="none" stroke="black" cx="775" cy="-593" rx="7" ry="7"/>
</g>
<!-- Static_text_inflow&#45;&gt;Static_text -->
<g id="edge15" class="edge">
<title>Static_text_inflow&#45;&gt;Static_text</title>
<path fill="none" stroke="black" d="M775,-585.796C775,-578.582 775,-567.016 775,-556.12"/>
<polygon fill="black" stroke="black" points="778.5,-556.041 775,-546.041 771.5,-556.041 778.5,-556.041"/>
</g>
</g>
</svg>
