<?xml version="1.0" encoding="UTF-8" standalone="no"?>
<!DOCTYPE svg PUBLIC "-//W3C//DTD SVG 1.1//EN"
 "http://www.w3.org/Graphics/SVG/1.1/DTD/svg11.dtd">
<!-- Generated by graphviz version 2.39.20160823.1445 (20160823.1445)
 -->
<!-- Title: yw_data_view Pages: 1 -->
<svg width="389pt" height="316pt"
 viewBox="0.00 0.00 389.00 316.00" xmlns="http://www.w3.org/2000/svg" xmlns:xlink="http://www.w3.org/1999/xlink">
<g id="graph0" class="graph" transform="scale(1 1) rotate(0) translate(4 312)">
<title>yw_data_view</title>
<polygon fill="white" stroke="transparent" points="-4,4 -4,-312 385,-312 385,4 -4,4"/>
<text text-anchor="middle" x="190.5" y="-289.6" font-family="Courier,monospace" font-size="18.00">topic_modeling</text>
<g id="clust1" class="cluster">
<title>cluster_workflow</title>
<polygon fill="none" stroke="black" stroke-width="2" points="8,-8 8,-220 373,-220 373,-8 8,-8"/>
</g>
<g id="clust2" class="cluster">
<title>cluster_workflow_inner</title>
<polygon fill="none" stroke="white" stroke-width="2" points="16,-16 16,-212 365,-212 365,-16 16,-16"/>
</g>
<g id="clust3" class="cluster">
<title>cluster_inflows</title>
<polygon fill="none" stroke="white" stroke-width="2" points="293,-228 293,-274 339,-274 339,-228 293,-228"/>
</g>
<g id="clust4" class="cluster">
<title>cluster_inflows_inner</title>
<polygon fill="none" stroke="white" stroke-width="2" points="301,-236 301,-266 331,-266 331,-236 301,-236"/>
</g>
<!-- ConstructCorpus -->
<g id="node1" class="node">
<title>ConstructCorpus</title>
<polygon fill="#ccffcc" stroke="black" points="288.021,-132 145.979,-132 145.979,-96 288.021,-96 288.021,-132"/>
<text text-anchor="middle" x="217" y="-109.8" font-family="Courier,monospace" font-size="14.00">ConstructCorpus</text>
</g>
<!-- train_corpus -->
<g id="node5" class="node">
<title>train_corpus</title>
<path fill="#ffffcc" stroke="black" d="M251.541,-60C251.541,-60 182.459,-60 182.459,-60 176.459,-60 170.459,-54 170.459,-48 170.459,-48 170.459,-36 170.459,-36 170.459,-30 176.459,-24 182.459,-24 182.459,-24 251.541,-24 251.541,-24 257.541,-24 263.541,-30 263.541,-36 263.541,-36 263.541,-48 263.541,-48 263.541,-54 257.541,-60 251.541,-60"/>
<text text-anchor="middle" x="217" y="-37.8" font-family="Helvetica,sans-Serif" font-size="14.00">train_corpus</text>
</g>
<!-- ConstructCorpus&#45;&gt;train_corpus -->
<g id="edge4" class="edge">
<title>ConstructCorpus&#45;&gt;train_corpus</title>
<path fill="none" stroke="black" d="M217,-95.8314C217,-88.131 217,-78.9743 217,-70.4166"/>
<polygon fill="black" stroke="black" points="220.5,-70.4132 217,-60.4133 213.5,-70.4133 220.5,-70.4132"/>
</g>
<!-- Static_text -->
<g id="node2" class="node">
<title>Static_text</title>
<path fill="#ffffcc" stroke="black" d="M344.866,-204C344.866,-204 287.134,-204 287.134,-204 281.134,-204 275.134,-198 275.134,-192 275.134,-192 275.134,-180 275.134,-180 275.134,-174 281.134,-168 287.134,-168 287.134,-168 344.866,-168 344.866,-168 350.866,-168 356.866,-174 356.866,-180 356.866,-180 356.866,-192 356.866,-192 356.866,-198 350.866,-204 344.866,-204"/>
<text text-anchor="middle" x="316" y="-181.8" font-family="Helvetica,sans-Serif" font-size="14.00">Static_text</text>
</g>
<!-- Static_text&#45;&gt;ConstructCorpus -->
<g id="edge3" class="edge">
<title>Static_text&#45;&gt;ConstructCorpus</title>
<path fill="none" stroke="black" d="M291.018,-167.831C278.707,-158.878 263.689,-147.956 250.406,-138.295"/>
<polygon fill="black" stroke="black" points="252.12,-135.214 241.974,-132.163 248.003,-140.875 252.12,-135.214"/>
</g>
<!-- stopwords -->
<g id="node3" class="node">
<title>stopwords</title>
<path fill="#ffffcc" stroke="black" d="M244.807,-204C244.807,-204 189.193,-204 189.193,-204 183.193,-204 177.193,-198 177.193,-192 177.193,-192 177.193,-180 177.193,-180 177.193,-174 183.193,-168 189.193,-168 189.193,-168 244.807,-168 244.807,-168 250.807,-168 256.807,-174 256.807,-180 256.807,-180 256.807,-192 256.807,-192 256.807,-198 250.807,-204 244.807,-204"/>
<text text-anchor="middle" x="217" y="-181.8" font-family="Helvetica,sans-Serif" font-size="14.00">stopwords</text>
</g>
<!-- stopwords&#45;&gt;ConstructCorpus -->
<g id="edge2" class="edge">
<title>stopwords&#45;&gt;ConstructCorpus</title>
<path fill="none" stroke="black" d="M217,-167.831C217,-160.131 217,-150.974 217,-142.417"/>
<polygon fill="black" stroke="black" points="220.5,-142.413 217,-132.413 213.5,-142.413 220.5,-142.413"/>
</g>
<!-- regular_expression -->
<g id="node4" class="node">
<title>regular_expression</title>
<path fill="#ffffcc" stroke="black" d="M147.568,-204C147.568,-204 36.4316,-204 36.4316,-204 30.4316,-204 24.4316,-198 24.4316,-192 24.4316,-192 24.4316,-180 24.4316,-180 24.4316,-174 30.4316,-168 36.4316,-168 36.4316,-168 147.568,-168 147.568,-168 153.568,-168 159.568,-174 159.568,-180 159.568,-180 159.568,-192 159.568,-192 159.568,-198 153.568,-204 147.568,-204"/>
<text text-anchor="middle" x="92" y="-181.8" font-family="Helvetica,sans-Serif" font-size="14.00">regular_expression</text>
</g>
<!-- regular_expression&#45;&gt;ConstructCorpus -->
<g id="edge1" class="edge">
<title>regular_expression&#45;&gt;ConstructCorpus</title>
<path fill="none" stroke="black" d="M123.543,-167.831C139.679,-158.537 159.499,-147.121 176.727,-137.197"/>
<polygon fill="black" stroke="black" points="178.549,-140.187 185.467,-132.163 175.055,-134.121 178.549,-140.187"/>
</g>
<!-- Static_text_inflow -->
<g id="node6" class="node">
<title>Static_text_inflow</title>
<ellipse fill="none" stroke="black" cx="316" cy="-251" rx="7" ry="7"/>
</g>
<!-- Static_text_inflow&#45;&gt;Static_text -->
<g id="edge5" class="edge">
<title>Static_text_inflow&#45;&gt;Static_text</title>
<path fill="none" stroke="black" d="M316,-243.796C316,-236.582 316,-225.016 316,-214.12"/>
<polygon fill="black" stroke="black" points="319.5,-214.041 316,-204.041 312.5,-214.041 319.5,-214.041"/>
</g>
</g>
</svg>
