<?xml version="1.0" encoding="UTF-8" standalone="no"?>
<!DOCTYPE svg PUBLIC "-//W3C//DTD SVG 1.1//EN"
 "http://www.w3.org/Graphics/SVG/1.1/DTD/svg11.dtd">
<!-- Generated by graphviz version 2.39.20160823.1445 (20160823.1445)
 -->
<!-- Title: yw_data_view Pages: 1 -->
<svg width="175pt" height="316pt"
 viewBox="0.00 0.00 175.22 316.00" xmlns="http://www.w3.org/2000/svg" xmlns:xlink="http://www.w3.org/1999/xlink">
<g id="graph0" class="graph" transform="scale(1 1) rotate(0) translate(4 312)">
<title>yw_data_view</title>
<polygon fill="white" stroke="transparent" points="-4,4 -4,-312 171.225,-312 171.225,4 -4,4"/>
<text text-anchor="middle" x="83.6123" y="-289.6" font-family="Courier,monospace" font-size="18.00">topic_modeling</text>
<g id="clust1" class="cluster">
<title>cluster_workflow</title>
<polygon fill="none" stroke="black" stroke-width="2" points="17.6123,-8 17.6123,-220 149.612,-220 149.612,-8 17.6123,-8"/>
</g>
<g id="clust2" class="cluster">
<title>cluster_workflow_inner</title>
<polygon fill="none" stroke="white" stroke-width="2" points="25.6123,-16 25.6123,-212 141.612,-212 141.612,-16 25.6123,-16"/>
</g>
<g id="clust3" class="cluster">
<title>cluster_inflows</title>
<polygon fill="none" stroke="white" stroke-width="2" points="60.6123,-228 60.6123,-274 106.612,-274 106.612,-228 60.6123,-228"/>
</g>
<g id="clust4" class="cluster">
<title>cluster_inflows_inner</title>
<polygon fill="none" stroke="white" stroke-width="2" points="68.6123,-236 68.6123,-266 98.6123,-266 98.6123,-236 68.6123,-236"/>
</g>
<!-- AccessText -->
<g id="node1" class="node">
<title>AccessText</title>
<polygon fill="#ccffcc" stroke="black" points="133.626,-132 33.5986,-132 33.5986,-96 133.626,-96 133.626,-132"/>
<text text-anchor="middle" x="83.6123" y="-109.8" font-family="Courier,monospace" font-size="14.00">AccessText</text>
</g>
<!-- TextRead -->
<g id="node3" class="node">
<title>TextRead</title>
<path fill="#ffffcc" stroke="black" d="M109.257,-60C109.257,-60 57.9676,-60 57.9676,-60 51.9676,-60 45.9676,-54 45.9676,-48 45.9676,-48 45.9676,-36 45.9676,-36 45.9676,-30 51.9676,-24 57.9676,-24 57.9676,-24 109.257,-24 109.257,-24 115.257,-24 121.257,-30 121.257,-36 121.257,-36 121.257,-48 121.257,-48 121.257,-54 115.257,-60 109.257,-60"/>
<text text-anchor="middle" x="83.6123" y="-37.8" font-family="Helvetica,sans-Serif" font-size="14.00">TextRead</text>
</g>
<!-- AccessText&#45;&gt;TextRead -->
<g id="edge2" class="edge">
<title>AccessText&#45;&gt;TextRead</title>
<path fill="none" stroke="black" d="M83.6123,-95.8314C83.6123,-88.131 83.6123,-78.9743 83.6123,-70.4166"/>
<polygon fill="black" stroke="black" points="87.1124,-70.4132 83.6123,-60.4133 80.1124,-70.4133 87.1124,-70.4132"/>
</g>
<!-- Static_text -->
<g id="node2" class="node">
<title>Static_text</title>
<path fill="#ffffcc" stroke="black" d="M112.478,-204C112.478,-204 54.7462,-204 54.7462,-204 48.7462,-204 42.7462,-198 42.7462,-192 42.7462,-192 42.7462,-180 42.7462,-180 42.7462,-174 48.7462,-168 54.7462,-168 54.7462,-168 112.478,-168 112.478,-168 118.478,-168 124.478,-174 124.478,-180 124.478,-180 124.478,-192 124.478,-192 124.478,-198 118.478,-204 112.478,-204"/>
<text text-anchor="middle" x="83.6123" y="-181.8" font-family="Helvetica,sans-Serif" font-size="14.00">Static_text</text>
</g>
<!-- Static_text&#45;&gt;AccessText -->
<g id="edge1" class="edge">
<title>Static_text&#45;&gt;AccessText</title>
<path fill="none" stroke="black" d="M83.6123,-167.831C83.6123,-160.131 83.6123,-150.974 83.6123,-142.417"/>
<polygon fill="black" stroke="black" points="87.1124,-142.413 83.6123,-132.413 80.1124,-142.413 87.1124,-142.413"/>
</g>
<!-- Static_text_inflow -->
<g id="node4" class="node">
<title>Static_text_inflow</title>
<ellipse fill="none" stroke="black" cx="83.6123" cy="-251" rx="7" ry="7"/>
</g>
<!-- Static_text_inflow&#45;&gt;Static_text -->
<g id="edge3" class="edge">
<title>Static_text_inflow&#45;&gt;Static_text</title>
<path fill="none" stroke="black" d="M83.6123,-243.796C83.6123,-236.582 83.6123,-225.016 83.6123,-214.12"/>
<polygon fill="black" stroke="black" points="87.1124,-214.041 83.6123,-204.041 80.1124,-214.041 87.1124,-214.041"/>
</g>
</g>
</svg>
