<?xml version="1.0" encoding="UTF-8" standalone="no"?>
<!DOCTYPE svg PUBLIC "-//W3C//DTD SVG 1.1//EN"
 "http://www.w3.org/Graphics/SVG/1.1/DTD/svg11.dtd">
<!-- Generated by graphviz version 2.39.20160823.1445 (20160823.1445)
 -->
<!-- Title: yw_data_view Pages: 1 -->
<svg width="574pt" height="514pt"
 viewBox="0.00 0.00 574.00 514.00" xmlns="http://www.w3.org/2000/svg" xmlns:xlink="http://www.w3.org/1999/xlink">
<g id="graph0" class="graph" transform="scale(1 1) rotate(0) translate(4 510)">
<title>yw_data_view</title>
<polygon fill="white" stroke="transparent" points="-4,4 -4,-510 570,-510 570,4 -4,4"/>
<text text-anchor="middle" x="283" y="-487.6" font-family="Courier,monospace" font-size="18.00">topic_modeling</text>
<g id="clust1" class="cluster">
<title>cluster_workflow</title>
<polygon fill="none" stroke="black" stroke-width="2" points="8,-62 8,-418 558,-418 558,-62 8,-62"/>
</g>
<g id="clust2" class="cluster">
<title>cluster_workflow_inner</title>
<polygon fill="none" stroke="white" stroke-width="2" points="16,-70 16,-410 550,-410 550,-70 16,-70"/>
</g>
<g id="clust3" class="cluster">
<title>cluster_inflows</title>
<polygon fill="none" stroke="white" stroke-width="2" points="331,-426 331,-472 441,-472 441,-426 331,-426"/>
</g>
<g id="clust4" class="cluster">
<title>cluster_inflows_inner</title>
<polygon fill="none" stroke="white" stroke-width="2" points="339,-434 339,-464 433,-464 433,-434 339,-434"/>
</g>
<g id="clust5" class="cluster">
<title>cluster_outflows</title>
<polygon fill="none" stroke="white" stroke-width="2" points="250,-8 250,-54 296,-54 296,-8 250,-8"/>
</g>
<g id="clust6" class="cluster">
<title>cluster_outflows_inner</title>
<polygon fill="none" stroke="white" stroke-width="2" points="258,-16 258,-46 288,-46 288,-16 258,-16"/>
</g>
<!-- ConstructCorpus -->
<g id="node1" class="node">
<title>ConstructCorpus</title>
<polygon fill="#ccffcc" stroke="black" points="262.021,-330 119.979,-330 119.979,-294 262.021,-294 262.021,-330"/>
<text text-anchor="middle" x="191" y="-307.8" font-family="Courier,monospace" font-size="14.00">ConstructCorpus</text>
</g>
<!-- dictionary -->
<g id="node6" class="node">
<title>dictionary</title>
<path fill="#ffffcc" stroke="black" d="M87.917,-258C87.917,-258 36.083,-258 36.083,-258 30.083,-258 24.083,-252 24.083,-246 24.083,-246 24.083,-234 24.083,-234 24.083,-228 30.083,-222 36.083,-222 36.083,-222 87.917,-222 87.917,-222 93.917,-222 99.917,-228 99.917,-234 99.917,-234 99.917,-246 99.917,-246 99.917,-252 93.917,-258 87.917,-258"/>
<text text-anchor="middle" x="62" y="-235.8" font-family="Helvetica,sans-Serif" font-size="14.00">dictionary</text>
</g>
<!-- ConstructCorpus&#45;&gt;dictionary -->
<g id="edge9" class="edge">
<title>ConstructCorpus&#45;&gt;dictionary</title>
<path fill="none" stroke="black" d="M158.448,-293.831C141.795,-284.537 121.341,-273.121 103.561,-263.197"/>
<polygon fill="black" stroke="black" points="104.98,-259.98 94.5417,-258.163 101.568,-266.093 104.98,-259.98"/>
</g>
<!-- train_corpus -->
<g id="node7" class="node">
<title>train_corpus</title>
<path fill="#ffffcc" stroke="black" d="M198.541,-258C198.541,-258 129.459,-258 129.459,-258 123.459,-258 117.459,-252 117.459,-246 117.459,-246 117.459,-234 117.459,-234 117.459,-228 123.459,-222 129.459,-222 129.459,-222 198.541,-222 198.541,-222 204.541,-222 210.541,-228 210.541,-234 210.541,-234 210.541,-246 210.541,-246 210.541,-252 204.541,-258 198.541,-258"/>
<text text-anchor="middle" x="164" y="-235.8" font-family="Helvetica,sans-Serif" font-size="14.00">train_corpus</text>
</g>
<!-- ConstructCorpus&#45;&gt;train_corpus -->
<g id="edge10" class="edge">
<title>ConstructCorpus&#45;&gt;train_corpus</title>
<path fill="none" stroke="black" d="M184.187,-293.831C181.236,-285.962 177.714,-276.571 174.445,-267.853"/>
<polygon fill="black" stroke="black" points="177.693,-266.548 170.905,-258.413 171.139,-269.006 177.693,-266.548"/>
</g>
<!-- test_corpus -->
<g id="node8" class="node">
<title>test_corpus</title>
<path fill="#ffffcc" stroke="black" d="M305.373,-258C305.373,-258 240.627,-258 240.627,-258 234.627,-258 228.627,-252 228.627,-246 228.627,-246 228.627,-234 228.627,-234 228.627,-228 234.627,-222 240.627,-222 240.627,-222 305.373,-222 305.373,-222 311.373,-222 317.373,-228 317.373,-234 317.373,-234 317.373,-246 317.373,-246 317.373,-252 311.373,-258 305.373,-258"/>
<text text-anchor="middle" x="273" y="-235.8" font-family="Helvetica,sans-Serif" font-size="14.00">test_corpus</text>
</g>
<!-- ConstructCorpus&#45;&gt;test_corpus -->
<g id="edge11" class="edge">
<title>ConstructCorpus&#45;&gt;test_corpus</title>
<path fill="none" stroke="black" d="M211.692,-293.831C221.695,-285.048 233.855,-274.371 244.7,-264.849"/>
<polygon fill="black" stroke="black" points="247.109,-267.391 252.315,-258.163 242.491,-262.131 247.109,-267.391"/>
</g>
<!-- Train_Predict_Model -->
<g id="node2" class="node">
<title>Train_Predict_Model</title>
<polygon fill="#ccffcc" stroke="black" points="360.626,-186 185.374,-186 185.374,-150 360.626,-150 360.626,-186"/>
<text text-anchor="middle" x="273" y="-163.8" font-family="Courier,monospace" font-size="14.00">Train_Predict_Model</text>
</g>
<!-- run_log -->
<g id="node9" class="node">
<title>run_log</title>
<path fill="#ffffcc" stroke="black" d="M292.204,-114C292.204,-114 253.796,-114 253.796,-114 247.796,-114 241.796,-108 241.796,-102 241.796,-102 241.796,-90 241.796,-90 241.796,-84 247.796,-78 253.796,-78 253.796,-78 292.204,-78 292.204,-78 298.204,-78 304.204,-84 304.204,-90 304.204,-90 304.204,-102 304.204,-102 304.204,-108 298.204,-114 292.204,-114"/>
<text text-anchor="middle" x="273" y="-91.8" font-family="Helvetica,sans-Serif" font-size="14.00">run_log</text>
</g>
<!-- Train_Predict_Model&#45;&gt;run_log -->
<g id="edge12" class="edge">
<title>Train_Predict_Model&#45;&gt;run_log</title>
<path fill="none" stroke="black" d="M273,-149.831C273,-142.131 273,-132.974 273,-124.417"/>
<polygon fill="black" stroke="black" points="276.5,-124.413 273,-114.413 269.5,-124.413 276.5,-124.413"/>
</g>
<!-- Static_text -->
<g id="node3" class="node">
<title>Static_text</title>
<path fill="#ffffcc" stroke="black" d="M345.866,-402C345.866,-402 288.134,-402 288.134,-402 282.134,-402 276.134,-396 276.134,-390 276.134,-390 276.134,-378 276.134,-378 276.134,-372 282.134,-366 288.134,-366 288.134,-366 345.866,-366 345.866,-366 351.866,-366 357.866,-372 357.866,-378 357.866,-378 357.866,-390 357.866,-390 357.866,-396 351.866,-402 345.866,-402"/>
<text text-anchor="middle" x="317" y="-379.8" font-family="Helvetica,sans-Serif" font-size="14.00">Static_text</text>
</g>
<!-- Static_text&#45;&gt;ConstructCorpus -->
<g id="edge8" class="edge">
<title>Static_text&#45;&gt;ConstructCorpus</title>
<path fill="none" stroke="black" d="M285.205,-365.831C268.939,-356.537 248.961,-345.121 231.595,-335.197"/>
<polygon fill="black" stroke="black" points="233.204,-332.085 222.785,-330.163 229.731,-338.163 233.204,-332.085"/>
</g>
<!-- stopwords -->
<g id="node4" class="node">
<title>stopwords</title>
<path fill="#ffffcc" stroke="black" d="M245.807,-402C245.807,-402 190.193,-402 190.193,-402 184.193,-402 178.193,-396 178.193,-390 178.193,-390 178.193,-378 178.193,-378 178.193,-372 184.193,-366 190.193,-366 190.193,-366 245.807,-366 245.807,-366 251.807,-366 257.807,-372 257.807,-378 257.807,-378 257.807,-390 257.807,-390 257.807,-396 251.807,-402 245.807,-402"/>
<text text-anchor="middle" x="218" y="-379.8" font-family="Helvetica,sans-Serif" font-size="14.00">stopwords</text>
</g>
<!-- stopwords&#45;&gt;ConstructCorpus -->
<g id="edge7" class="edge">
<title>stopwords&#45;&gt;ConstructCorpus</title>
<path fill="none" stroke="black" d="M211.187,-365.831C208.236,-357.962 204.714,-348.571 201.445,-339.853"/>
<polygon fill="black" stroke="black" points="204.693,-338.548 197.905,-330.413 198.139,-341.006 204.693,-338.548"/>
</g>
<!-- regular_expression -->
<g id="node5" class="node">
<title>regular_expression</title>
<path fill="#ffffcc" stroke="black" d="M148.568,-402C148.568,-402 37.4316,-402 37.4316,-402 31.4316,-402 25.4316,-396 25.4316,-390 25.4316,-390 25.4316,-378 25.4316,-378 25.4316,-372 31.4316,-366 37.4316,-366 37.4316,-366 148.568,-366 148.568,-366 154.568,-366 160.568,-372 160.568,-378 160.568,-378 160.568,-390 160.568,-390 160.568,-396 154.568,-402 148.568,-402"/>
<text text-anchor="middle" x="93" y="-379.8" font-family="Helvetica,sans-Serif" font-size="14.00">regular_expression</text>
</g>
<!-- regular_expression&#45;&gt;ConstructCorpus -->
<g id="edge6" class="edge">
<title>regular_expression&#45;&gt;ConstructCorpus</title>
<path fill="none" stroke="black" d="M117.73,-365.831C129.916,-356.878 144.782,-345.956 157.931,-336.295"/>
<polygon fill="black" stroke="black" points="160.292,-338.904 166.278,-330.163 156.147,-333.263 160.292,-338.904"/>
</g>
<!-- dictionary&#45;&gt;Train_Predict_Model -->
<g id="edge5" class="edge">
<title>dictionary&#45;&gt;Train_Predict_Model</title>
<path fill="none" stroke="black" d="M100.091,-224.903C102.761,-223.904 105.417,-222.927 108,-222 139.87,-210.56 175.543,-198.761 205.545,-189.122"/>
<polygon fill="black" stroke="black" points="206.618,-192.454 215.075,-186.071 204.484,-185.787 206.618,-192.454"/>
</g>
<!-- train_corpus&#45;&gt;Train_Predict_Model -->
<g id="edge4" class="edge">
<title>train_corpus&#45;&gt;Train_Predict_Model</title>
<path fill="none" stroke="black" d="M191.505,-221.831C205.318,-212.707 222.226,-201.539 237.053,-191.745"/>
<polygon fill="black" stroke="black" points="239.089,-194.595 245.503,-186.163 235.23,-188.754 239.089,-194.595"/>
</g>
<!-- test_corpus&#45;&gt;Train_Predict_Model -->
<g id="edge3" class="edge">
<title>test_corpus&#45;&gt;Train_Predict_Model</title>
<path fill="none" stroke="black" d="M273,-221.831C273,-214.131 273,-204.974 273,-196.417"/>
<polygon fill="black" stroke="black" points="276.5,-196.413 273,-186.413 269.5,-196.413 276.5,-196.413"/>
</g>
<!-- run_log_outflow -->
<g id="node15" class="node">
<title>run_log_outflow</title>
<ellipse fill="none" stroke="black" cx="273" cy="-31" rx="7" ry="7"/>
</g>
<!-- run_log&#45;&gt;run_log_outflow -->
<g id="edge16" class="edge">
<title>run_log&#45;&gt;run_log_outflow</title>
<path fill="none" stroke="black" d="M273,-77.8939C273,-68.5967 273,-57.3301 273,-48.1707"/>
<polygon fill="black" stroke="black" points="276.5,-48.0024 273,-38.0024 269.5,-48.0025 276.5,-48.0024"/>
</g>
<!-- num_iteration -->
<g id="node10" class="node">
<title>num_iteration</title>
<path fill="#ffffff" stroke="black" d="M424.327,-258C424.327,-258 347.673,-258 347.673,-258 341.673,-258 335.673,-252 335.673,-246 335.673,-246 335.673,-234 335.673,-234 335.673,-228 341.673,-222 347.673,-222 347.673,-222 424.327,-222 424.327,-222 430.327,-222 436.327,-228 436.327,-234 436.327,-234 436.327,-246 436.327,-246 436.327,-252 430.327,-258 424.327,-258"/>
<text text-anchor="middle" x="386" y="-235.8" font-family="Helvetica,sans-Serif" font-size="14.00">num_iteration</text>
</g>
<!-- num_iteration&#45;&gt;Train_Predict_Model -->
<g id="edge2" class="edge">
<title>num_iteration&#45;&gt;Train_Predict_Model</title>
<path fill="none" stroke="black" d="M357.485,-221.831C343.166,-212.707 325.638,-201.539 310.266,-191.745"/>
<polygon fill="black" stroke="black" points="311.82,-188.585 301.506,-186.163 308.058,-194.488 311.82,-188.585"/>
</g>
<!-- num_topics -->
<g id="node11" class="node">
<title>num_topics</title>
<path fill="#ffffff" stroke="black" d="M529.594,-258C529.594,-258 466.406,-258 466.406,-258 460.406,-258 454.406,-252 454.406,-246 454.406,-246 454.406,-234 454.406,-234 454.406,-228 460.406,-222 466.406,-222 466.406,-222 529.594,-222 529.594,-222 535.594,-222 541.594,-228 541.594,-234 541.594,-234 541.594,-246 541.594,-246 541.594,-252 535.594,-258 529.594,-258"/>
<text text-anchor="middle" x="498" y="-235.8" font-family="Helvetica,sans-Serif" font-size="14.00">num_topics</text>
</g>
<!-- num_topics&#45;&gt;Train_Predict_Model -->
<g id="edge1" class="edge">
<title>num_topics&#45;&gt;Train_Predict_Model</title>
<path fill="none" stroke="black" d="M454.354,-225.087C451.191,-224.034 448.048,-222.996 445,-222 410.894,-210.856 372.842,-198.864 341.217,-189.018"/>
<polygon fill="black" stroke="black" points="342.209,-185.661 331.621,-186.035 340.131,-192.346 342.209,-185.661"/>
</g>
<!-- Static_text_inflow -->
<g id="node12" class="node">
<title>Static_text_inflow</title>
<ellipse fill="none" stroke="black" cx="354" cy="-449" rx="7" ry="7"/>
</g>
<!-- Static_text_inflow&#45;&gt;Static_text -->
<g id="edge13" class="edge">
<title>Static_text_inflow&#45;&gt;Static_text</title>
<path fill="none" stroke="black" d="M350.317,-442.53C346.134,-435.182 339.035,-422.711 332.462,-411.164"/>
<polygon fill="black" stroke="black" points="335.358,-409.176 327.37,-402.217 329.275,-412.639 335.358,-409.176"/>
</g>
<!-- num_iteration_inflow -->
<g id="node13" class="node">
<title>num_iteration_inflow</title>
<ellipse fill="none" stroke="black" cx="386" cy="-449" rx="7" ry="7"/>
</g>
<!-- num_iteration_inflow&#45;&gt;num_iteration -->
<g id="edge14" class="edge">
<title>num_iteration_inflow&#45;&gt;num_iteration</title>
<path fill="none" stroke="black" d="M386,-441.562C386,-414.047 386,-317.115 386,-268.396"/>
<polygon fill="black" stroke="black" points="389.5,-268.22 386,-258.22 382.5,-268.22 389.5,-268.22"/>
</g>
<!-- num_topics_inflow -->
<g id="node14" class="node">
<title>num_topics_inflow</title>
<ellipse fill="none" stroke="black" cx="418" cy="-449" rx="7" ry="7"/>
</g>
<!-- num_topics_inflow&#45;&gt;num_topics -->
<g id="edge15" class="edge">
<title>num_topics_inflow&#45;&gt;num_topics</title>
<path fill="none" stroke="black" d="M420.662,-442.046C430.989,-415.067 468.755,-316.403 487.417,-267.648"/>
<polygon fill="black" stroke="black" points="490.786,-268.636 491.093,-258.045 484.249,-266.133 490.786,-268.636"/>
</g>
</g>
</svg>
